<svg xmlns="http://www.w3.org/2000/svg" viewBox="0 0 421.38 383.53">
  <title>资源 2</title>
  <g fill="#eee" id="图层_2" data-name="图层 2">
    <g id="图层_1-2" data-name="图层 1">
      <g>
        <path d="M11.32,342.07a2.51,2.51,0,0,0,.2.57,2.24,2.24,0,0,1,.21.93,5.29,5.29,0,0,0,.41,1.54,16.21,16.21,0,0,1,.72,3.56c.21,1.65.31,2.66.31,3a4,4,0,0,0,.11,1,2.67,2.67,0,0,1,0,1,6.58,6.58,0,0,0,0,1.54c0,.66,0,1.26,0,1.81a6.81,6.81,0,0,0,0,1.29c0,.31,0,.62,0,.92a2.24,2.24,0,0,1-.21.93,4.84,4.84,0,0,1-.31.62,2.23,2.23,0,0,1-.31.36,2,2,0,0,0-.46.21,6.59,6.59,0,0,0-.57.46,2.1,2.1,0,0,1-1.08.47,8.84,8.84,0,0,1-1,.1,2.79,2.79,0,0,1-.57-.05,2.31,2.31,0,0,1-.41-.16,3.61,3.61,0,0,0-.77-.87.55.55,0,0,1-.26-.52.7.7,0,0,0-.26-.57.57.57,0,0,1-.21-.56,2.15,2.15,0,0,0-.2-1,4.06,4.06,0,0,1-.26-1.45c0-.51-.1-.84-.31-1s-.31-.27-.31-.41a.43.43,0,0,0-.1-.31.42.42,0,0,1-.11-.31l.31-.1.11-.31c-.07-.34-.12-.6-.16-.77a2.83,2.83,0,0,1,0-.72,1,1,0,0,1,.31-.67,2.61,2.61,0,0,0,.52-.62,15.64,15.64,0,0,0,.82-1.86,26,26,0,0,1,1.6-3.25c.69-1.2,1.2-2.09,1.55-2.68a4.09,4.09,0,0,0,.56-1.23C11.2,342.71,11.25,342.41,11.32,342.07Zm44.33-54.33h1.08a1,1,0,0,1,.62.21.79.79,0,0,0,.46.2.58.58,0,0,1,.42.26,6,6,0,0,0,.82.77,1.64,1.64,0,0,0,.36.42c.1.06.16.13.16.2a1.5,1.5,0,0,0,.1.41,3.3,3.3,0,0,1,.51.21,1.9,1.9,0,0,1,.47.36.79.79,0,0,0,.57.26.6.6,0,0,1,.51.31,1,1,0,0,0,.57.41,1.85,1.85,0,0,1,.51.21l.57.41.1.41a15.2,15.2,0,0,0,1.45,1.44,5.82,5.82,0,0,0,.77,1.29.51.51,0,0,1,.1.62,1.68,1.68,0,0,0-.15.62,2.14,2.14,0,0,1-.1.57,8.65,8.65,0,0,0-.26,1.13,4.61,4.61,0,0,1-.36,1.19,1.23,1.23,0,0,0-.16.77,3.61,3.61,0,0,1-.26,1.39,4.07,4.07,0,0,0-.25,1.5,2.68,2.68,0,0,1-.21,1.18,5.43,5.43,0,0,1-.46,1,1.1,1.1,0,0,0-.21.62.58.58,0,0,1-.1.41.36.36,0,0,0-.11.26.45.45,0,0,1-.15.31,2.53,2.53,0,0,0-.31,1,1.66,1.66,0,0,1-.52,1.13,1.15,1.15,0,0,0-.36,1c0,.49,0,.74-.1.78a.69.69,0,0,0-.21.15,12.61,12.61,0,0,1-.46,1.75c-.31,1-.51,1.72-.62,2.07s-.19.61-.26.82a3,3,0,0,1-.2.52,3.36,3.36,0,0,0-.21.56c-.07.25-.24.81-.51,1.71a20.65,20.65,0,0,1-.83,2.26l-.2.11.1.1-.52,1-.92,1.86-.11.1a.92.92,0,0,0-.2.46c0,.11-.09.24-.26.41a1.07,1.07,0,0,0-.31.52.76.76,0,0,1-.16.36l-.3.31-.21.1v.21a1,1,0,0,1-.26.41,8.41,8.41,0,0,0-.82,1.6,9.62,9.62,0,0,1-.88,1.7,7.16,7.16,0,0,0-.62,1l2.17-1.08a16.71,16.71,0,0,1,2.37-1,2.32,2.32,0,0,1,1.13-.16,1.23,1.23,0,0,0,.83-.1,9.83,9.83,0,0,1,1.9-.41c.93-.14,1.53-.24,1.81-.31l-.31-.31a2.8,2.8,0,0,1-1,.05,1.79,1.79,0,0,0-.77,0v-.1l1.65-.36c.41-.1.92-.21,1.54-.31a7.84,7.84,0,0,1,2-.05c.72.07,1.36.15,1.91.26a6.72,6.72,0,0,0,1.6.1,7.3,7.3,0,0,1,2.06.26,7.74,7.74,0,0,1,1.86.62,4.74,4.74,0,0,0,1.23.46,4,4,0,0,1,1.45.72c.51.38,1,.76,1.44,1.13s1.08,1,1.91,1.91c.27.42.46.69.56.83a4.1,4.1,0,0,1,.31.46,6.45,6.45,0,0,0,.41.57,3.23,3.23,0,0,1,.52,1,3.31,3.31,0,0,1,.15,1.54,1.89,1.89,0,0,1-.36,1.09,1.12,1.12,0,0,0-.31.46,2.41,2.41,0,0,0,0,.26v.15l-.1.42c-.41.34-.71.6-.88.77a1.08,1.08,0,0,1-.51.31,1.57,1.57,0,0,0-.57.26l-.2.2a4.68,4.68,0,0,1-.67.16,6.45,6.45,0,0,1-1.09,0,3.62,3.62,0,0,1-1.18-.26,2,2,0,0,0-.78-.21.83.83,0,0,1-.46-.1.48.48,0,0,0-.26-.1h-.2l-.31-.42c-.49-.27-.86-.49-1.14-.67a1.81,1.81,0,0,0-1-.25,4.65,4.65,0,0,1-1-.11,1.31,1.31,0,0,1-.62-.25.77.77,0,0,0-.41-.21l-.57-.1a.63.63,0,0,0-.51.1,1.28,1.28,0,0,1-.46.21c-.18,0-.52.12-1,.25a3.52,3.52,0,0,0-1.23.57q-.46.36-.78.21a1,1,0,0,0-.61-.11,2.39,2.39,0,0,0-.62.21l-.62.31-.41.21a.83.83,0,0,1-.31.05A8.59,8.59,0,0,0,63.43,339a30.69,30.69,0,0,0,2-2.68,21.6,21.6,0,0,0,1.5-2.58,5.49,5.49,0,0,0,.56-1.49,3.08,3.08,0,0,1,.11-.73l-.72-.72-1.34-.62-.31-.41a7.33,7.33,0,0,1-1-.41,3.29,3.29,0,0,0-1.19-.26,17,17,0,0,0-1.75,0,11.8,11.8,0,0,0-2.17.36,16.78,16.78,0,0,0-2.47.88,21.4,21.4,0,0,0-2,1l-1.45.82A7.07,7.07,0,0,0,52,333a13.57,13.57,0,0,1-1.39,1l-.83.93-1.13.92-.62.93.21.31a6.72,6.72,0,0,0,.87.62,4.64,4.64,0,0,1,.72.52,5.09,5.09,0,0,0,.62.46,2.35,2.35,0,0,1,.47.36q.2.21.72.72l2.68,2.68a4.39,4.39,0,0,1,.67.62.5.5,0,0,0,.51.16q.36-.06.78.51c.27.38.46.59.56.62a2.53,2.53,0,0,1,.36.15l.21.31h.21l.1.11.62.31v.1c.21.14.38.24.51.31l.21.31a.76.76,0,0,0,.31.1c.07,0,.22.1.46.31a5.58,5.58,0,0,0,.78.57l1.13.67.1.2L62,348l.1.1.21.21.21.31a.39.39,0,0,1,.2.05,2.41,2.41,0,0,1,.36.25c.17.14.43.38.78.73l.31.3h.3c.07,0,.21.11.42.31a1.73,1.73,0,0,0,.56.42,1.42,1.42,0,0,1,.47.31,2.37,2.37,0,0,0,.67.41,7.13,7.13,0,0,1,.93.51,2.87,2.87,0,0,0,.87.42l.11.1h.25s.07,0,.11.1.12.12.25.16a5.07,5.07,0,0,1,.52.15l.21.21.82.41a.64.64,0,0,0,.31.72l.62.31-.21.72.16.16a.71.71,0,0,1,.1.2,1.79,1.79,0,0,0,.1.26,1.65,1.65,0,0,0,.26.31l.41.1-.93.52-.3,1.44.3.31a.26.26,0,0,0,0,.41,1.28,1.28,0,0,0-.41,1.14l-.41.51-.31.11-.21.2-.51.21-.21.1-.92.36-1.81.67a6.62,6.62,0,0,1-2,.52,1.53,1.53,0,0,0-.72.1.82.82,0,0,1-.46.11,1.74,1.74,0,0,0-.67.15,2,2,0,0,1-.78.15,6.33,6.33,0,0,0-1.29.21,6.21,6.21,0,0,1-1.34.21,15.74,15.74,0,0,0-1.65.15,4.86,4.86,0,0,1-1.54.05.94.94,0,0,0-.62,0,1.24,1.24,0,0,1-.72,0,3.73,3.73,0,0,0-1.14-.05,14.26,14.26,0,0,1-2.37-.15c-1.13-.14-2.28-.3-3.45-.47a20,20,0,0,1-3.66-.92c-1.27-.45-2.2-.81-2.78-1.09l-1.24-.57a2.52,2.52,0,0,1-.77-.56,19.64,19.64,0,0,0-3-1.81,29,29,0,0,1-3.92-2.42,21.64,21.64,0,0,1-2.37-2.06c-2.41-2.68-4.07-4.62-5-5.82A17.6,17.6,0,0,1,23,344c-.59-1.38-1.74-3.78-3.45-7.22a24.93,24.93,0,0,1,2.57,2.06l1.65,2,1.45,1.24,1.85,2,1,.93,2.48,2.47,1.59,1.44a20.82,20.82,0,0,0,3.15,1.91,42.36,42.36,0,0,0,5,2.32,30.63,30.63,0,0,0,4.59,1.39c1.44.31,2.74.55,3.91.72a22.67,22.67,0,0,0,3.46.26,20.74,20.74,0,0,0,3.35-.26c1.1-.17,1.89-.31,2.37-.41s1.13-.26,2-.46c-.07-.28-.12-.52-.16-.72a6.6,6.6,0,0,0-.61-1.39,30.6,30.6,0,0,0-1.71-2.79c-.75-1.13-2.08-2.92-4-5.36s-3.13-4-3.72-4.59a19.56,19.56,0,0,1-1.8-2.27l-.41-.1-.42.52-.72.62a.31.31,0,0,0,.11.2.21.21,0,0,1,0,.26,1.19,1.19,0,0,0-.16.36,3.42,3.42,0,0,0-.05.67,2.58,2.58,0,0,0,.67,1.34,7,7,0,0,1,.82,1.24,1,1,0,0,1,.11.57,1.51,1.51,0,0,0,.05.67.81.81,0,0,1-.05.66,1.72,1.72,0,0,0-.26.62l-.82.62-.21.31a11.4,11.4,0,0,0-1.08.52,2.22,2.22,0,0,1-.93.25,2.79,2.79,0,0,1-.83,0,3.62,3.62,0,0,1-.56-.15l-.31-.21a1,1,0,0,0-.36-.1.61.61,0,0,1-.36-.15c-.14-.11-.42-.3-.83-.57l-1.65-3.09-.31-.21-.62-.72-1.23-1.14a13.93,13.93,0,0,0-1-1.34,1,1,0,0,1-.31-.77,1.69,1.69,0,0,1,.46-1,2.13,2.13,0,0,0,.52-1,1.93,1.93,0,0,1,.15-.62,5.69,5.69,0,0,1,.41-.62l.72-.62L40.18,332c0,.07,0,.1.11.1h.31a1.47,1.47,0,0,1,.46.1l.57.21.51.2a4.2,4.2,0,0,1,.62.42,5.55,5.55,0,0,1,1.34,1.75h.36a8.46,8.46,0,0,0,1.45-.62c.85-.41,1.7-.77,2.52-1.08s1.45-.57,1.86-.77,1-.45,1.65-.73l.31-.41-.42-.2a3.07,3.07,0,0,0-.36.2,1.89,1.89,0,0,1-.72.16,2.3,2.3,0,0,0-1.29.72,4.45,4.45,0,0,1-1,.77,4.94,4.94,0,0,1-.67.21l.42-.21-.21-.21a6.52,6.52,0,0,1-.72.32,1.86,1.86,0,0,1-.72.05,1,1,0,0,1-.52-.16c-.07-.07-.19-.08-.36-.05a.53.53,0,0,1-.36,0l-.31-.16-.31-.41h-.31a1.8,1.8,0,0,1-.57-.26,4.8,4.8,0,0,1-.72-.46.75.75,0,0,0-.46-.21.64.64,0,0,1-.31-.05,4.51,4.51,0,0,0-.52-.15,1.57,1.57,0,0,1-.1-.47.51.51,0,0,0-.1-.3,1.34,1.34,0,0,1-.16-.47l-.15-1a8.15,8.15,0,0,1-1.6.36,2.52,2.52,0,0,0-.88.21,3.52,3.52,0,0,1-.72.26c-.27.06-.89.27-1.85.61a29.88,29.88,0,0,0-3.66,1.7,15.9,15.9,0,0,1-3.51,1.5,6,6,0,0,1-1.6.26,1.62,1.62,0,0,0-.82.15l-.83.31-.61.21a1.09,1.09,0,0,1-.67,0c-.25-.07-.54-.14-.88-.21a5.07,5.07,0,0,1-1.24-.46,8.3,8.3,0,0,1-1.39-.88,5.42,5.42,0,0,0-1.34-.77,5.4,5.4,0,0,1-1.13-.57c-.31-.21-.74-.51-1.29-.93l-.72-.82-.52-.21-.21-.2c.14-.07.64-.28,1.5-.62s1.77-.76,2.73-1.24v-.31c0-.07-.09-.17-.26-.31a5,5,0,0,1-.67-.72l.16-.15a.74.74,0,0,0,.1-.16,2.9,2.9,0,0,0-.26-1q-.3-.87-1.85-6c-1-3.44-1.91-6.66-2.63-9.69S13.43,304,13.12,303a11.76,11.76,0,0,1-.51-2.58,1.86,1.86,0,0,0-.67-1.45c-.42-.3-.62-.49-.62-.56v-.21c.68.28,1.2.5,1.54.67a16.18,16.18,0,0,1,1.55.93c.69.45,1.32.84,1.91,1.19a3,3,0,0,0,1.34.51,1.44,1.44,0,0,1,1,.52,4,4,0,0,0,1.18.82,5.82,5.82,0,0,1,1.34.88c.45.38,1,.81,1.6,1.29l.36.51a7.54,7.54,0,0,1,.47.77,2.2,2.2,0,0,1,.31.83,1,1,0,0,0,.1.46,2.59,2.59,0,0,1,.15.83,8.51,8.51,0,0,0,.26,1.39,5,5,0,0,1,.21,1.19,13.23,13.23,0,0,0,.1,1.34,4.62,4.62,0,0,0,.52.3,1.35,1.35,0,0,0,.61.11,3.48,3.48,0,0,0,1.24-.36,7.19,7.19,0,0,0,1.19-.62,3.16,3.16,0,0,1,.77-.41,10.86,10.86,0,0,0,1.08-.52q.68-.36,2.22-1.29c.21-1.44.36-2.45.46-3A14.93,14.93,0,0,0,33,304.6a4.41,4.41,0,0,0-.05-1.29q-.11-.31-.21-.72H31.68a6.3,6.3,0,0,1-1-.11,4,4,0,0,1-1.55-.77A53.33,53.33,0,0,0,24.31,299l-.83-.83-2.06-1.85.41.1c-.07-.14,0-.27.21-.41l-.21-.31a.82.82,0,0,0,.36.1c.11,0,.55-.07,1.34-.21a22.29,22.29,0,0,0,3.61-1.08q2.43-.87,6.09-2c2.43-.75,5.13-1.48,8.09-2.16s5.31-1.15,7.06-1.4a18.3,18.3,0,0,1,4-.2,8.18,8.18,0,0,0,1.6.1,1.7,1.7,0,0,0,.41-.15l.52-.62ZM25.34,316.19q.3,1.24.36,1.65a8,8,0,0,0,.15.83c.07.27.12.53.16.77a3.45,3.45,0,0,0,.15.67,1.93,1.93,0,0,1,.11.62,1.08,1.08,0,0,0,.1.51,1,1,0,0,1,.1.47,1.84,1.84,0,0,0,.11.57,4.14,4.14,0,0,1,.15.67c0,.24.07.44.1.62a1.83,1.83,0,0,1,.06.41.28.28,0,0,0,.2.25,35.61,35.61,0,0,0,4.33-1.54,25.22,25.22,0,0,1,.1-2.63,2,2,0,0,0-.05-1.08,2.24,2.24,0,0,1-.15-.93,4.82,4.82,0,0,1-.78-.21,1.69,1.69,0,0,0-.56-.1,4.45,4.45,0,0,1-1-.16,4.6,4.6,0,0,1-1.24-.46q-.57-.31-.87-.51a5,5,0,0,0-.52-.31,3.36,3.36,0,0,0-.62-.21Zm28.25-19.28c-.14,0-.23,0-.26-.05s-.19,0-.47.11a3.69,3.69,0,0,1-1,.2,2.27,2.27,0,0,0-1,.31,1.67,1.67,0,0,1-.88.26,1.73,1.73,0,0,0-.77.15,2.23,2.23,0,0,1-.83.21,2.67,2.67,0,0,0-1,.31,2.53,2.53,0,0,1-1,.31,2.61,2.61,0,0,0-1,.26,1.67,1.67,0,0,1-.77.2,1.42,1.42,0,0,0-.72.21,1.42,1.42,0,0,1-.72.21,1.19,1.19,0,0,0-.62.15,1,1,0,0,1-.47.15,2.28,2.28,0,0,0-.72.21l-.1.21.62.51a5.11,5.11,0,0,1,.77,1.29,8.89,8.89,0,0,0,.36.93c.14.31.24.57.31.77a2.57,2.57,0,0,0,.31.62h1.24a4.08,4.08,0,0,1,.67.05.89.89,0,0,0,.46,0,3.06,3.06,0,0,1,.62-.05,1.15,1.15,0,0,1,.77.31c.24.21.64.52,1.19.93l.1.1L49,306a2.87,2.87,0,0,0,.62.51.38.38,0,0,1,.2.36.72.72,0,0,0,.16.47,1.73,1.73,0,0,1,.25.51,2,2,0,0,1,0,.93,3.74,3.74,0,0,1-.36,1.13,2.76,2.76,0,0,1-.41.67,4.67,4.67,0,0,1-.57.47c-.61.48-1.08.82-1.39,1a2.13,2.13,0,0,1-.72.36,1.08,1.08,0,0,0-.51.31,1.08,1.08,0,0,1-.57.31,2.13,2.13,0,0,0-.62.2,2,2,0,0,1-.57.21c-.17,0-.46.12-.87.26q-.21.31-.36.51a4,4,0,0,0-.42,1.09,12.67,12.67,0,0,0-.36,1.54,3,3,0,0,1-.31,1,1.68,1.68,0,0,0-.2.42v.15a1.64,1.64,0,0,0,1.23-.31c.35.28.64.5.88.67a1.57,1.57,0,0,0,1,.21,3.88,3.88,0,0,1,1,0l.36.05h.26A22.4,22.4,0,0,1,48,316.4,11.1,11.1,0,0,0,49,314q.57-1.75,1.65-5.31t2-7a23.78,23.78,0,0,0,.88-3.87A2.75,2.75,0,0,1,53.59,296.91Z"/>
        <path d="M127.56,289.8a26.76,26.76,0,0,0,2.73.21c.58,0,1.1,0,1.54.05a3.77,3.77,0,0,1,1.35.36c.44.21.94.46,1.49.77a15.71,15.71,0,0,1,1.39.88c.38.27.64.45.77.52a5.52,5.52,0,0,0,.83,1,2,2,0,0,1,.52.73c.13.31.25.63.36,1a3.18,3.18,0,0,1,.1,1.13,2.39,2.39,0,0,1-.36,1.08,3.64,3.64,0,0,0-.47,1.34,4.09,4.09,0,0,1-.67,1.65,2.5,2.5,0,0,0-.51,1.19,1.71,1.71,0,0,1-.36.93,3.16,3.16,0,0,0-.47.87,10,10,0,0,1-.67,1.44c-.37.73-.87,1.76-1.49,3.1a13.78,13.78,0,0,0-1,2.42,1,1,0,0,1-.26.62c-.14.14-.2.24-.2.31v.2a7.08,7.08,0,0,1,1.13-.46,23.73,23.73,0,0,0,3.09-1.75,28.74,28.74,0,0,1,3.87-2.12,4.72,4.72,0,0,0,1.44-.72,6.51,6.51,0,0,1,1.65-.82,7.75,7.75,0,0,0,2-1.08,2.07,2.07,0,0,1,.78-.52,1.68,1.68,0,0,0,.36-.1l.3-.16.11-.2h.2l.21-.42h.46a1.57,1.57,0,0,0,.47-.1,1.62,1.62,0,0,1,.51-.1l.21.31a.34.34,0,0,0,.26.1.75.75,0,0,1,.41.21.42.42,0,0,0,.46.1.35.35,0,0,1,.42.1.43.43,0,0,0,.41.16,2.46,2.46,0,0,1,.62-.05.8.8,0,0,1,.56.15,2.18,2.18,0,0,0,.42.31,5.21,5.21,0,0,0,.87.36,4.39,4.39,0,0,0,.62.67.92.92,0,0,1,.31.41,2.12,2.12,0,0,0,.26.47,1.28,1.28,0,0,1,.1.82,2.18,2.18,0,0,1-.57,1.24,2.23,2.23,0,0,0-.51.77v.36a5.33,5.33,0,0,1-.93.62c-.27.14-1,.46-2.21,1a39.08,39.08,0,0,0-3.56,1.75,21.24,21.24,0,0,0-2.06,1.24,1.35,1.35,0,0,1-.57.31.83.83,0,0,0-.46.26,22.58,22.58,0,0,1-2.38,1.44,16,16,0,0,1-2.78,1.39,2.38,2.38,0,0,0-.93.41.86.86,0,0,1-.56.26.5.5,0,0,0-.42.21,2.6,2.6,0,0,1-1.08.51,4.41,4.41,0,0,1-1.91.21,4.2,4.2,0,0,1-1.9-.72,9.19,9.19,0,0,0-1.34-.78,3.13,3.13,0,0,1-.83-.46c-.14.21-.27.28-.41.21l.1.1-.31.72h-.2l-.21.21.21.1a1,1,0,0,0-.31.72l-.52.31.11.21-.52.41a5.11,5.11,0,0,0-.41.77,1.31,1.31,0,0,1-.26.42,1.72,1.72,0,0,0-.21.25c0,.07-.08.18-.15.31l-.31.21.21.1-.42.11a1.53,1.53,0,0,0-.1.46c0,.1-.15.33-.46.67a3.34,3.34,0,0,0-.62.88,1.15,1.15,0,0,1-.31.46.53.53,0,0,0-.21.26,4.25,4.25,0,0,1-.26.56,1.73,1.73,0,0,0,.52.11,6.36,6.36,0,0,1,1.24.36,12.38,12.38,0,0,1,2.42,1.24q1.39.87,5.31,4.07a1.18,1.18,0,0,1,.21-.31,25.44,25.44,0,0,0,.77-2.68c.44-1.72.81-3.16,1.08-4.33a13,13,0,0,0,.41-2.63v-1.24c0-.24-.05-.39-.15-.46a2.23,2.23,0,0,1-.36-.31l.51.1-.31-.31h-.31l-.1-.1a4.46,4.46,0,0,0,.88.1,2.35,2.35,0,0,1,1.13.57c.52.38,1.1.86,1.75,1.44a13,13,0,0,0,1.09.93.35.35,0,0,0,.2.05c.28.41.5.73.67.93a3.18,3.18,0,0,1,.47.83,2.76,2.76,0,0,1,.2,1,6,6,0,0,0,.26,1.4,5.61,5.61,0,0,1-.36,2.88,17.74,17.74,0,0,0-.77,3.46,4.69,4.69,0,0,1-.57,2.06,2.28,2.28,0,0,0-.46.87c0,.21-.09.52-.16.93l1.75,1.76a1.89,1.89,0,0,0,.42.31,17.72,17.72,0,0,1,1.7,1.59q1.49,1.5,3.45,3.15c1.31,1.1,2.41,2,3.3,2.68a9.91,9.91,0,0,0,2.58,1.49c.82.31,1.84.64,3,1s2.89.91,5,1.7,3.45,1.29,3.87,1.5l1.44.72a1.15,1.15,0,0,0,.05.41.59.59,0,0,0,.21.21,2,2,0,0,1,.41.46l.72,1a2.1,2.1,0,0,1,.41,1.39c0,.49-.07.83-.1,1a2.15,2.15,0,0,0,0,.62.53.53,0,0,1-.1.47.41.41,0,0,0-.16.31.35.35,0,0,1-.1.26,2.41,2.41,0,0,0-.31.41l-.93.31-.1.2a1.21,1.21,0,0,1-.41-.15.45.45,0,0,0-.52,0,2,2,0,0,1-.51.26,1.9,1.9,0,0,1-.73,0,4.17,4.17,0,0,0-1.13.05,4.77,4.77,0,0,1-1.8-.16,12.5,12.5,0,0,0-2.22-.31c-.76,0-1.31-.05-1.65-.05a4.46,4.46,0,0,1-1-.1,5.51,5.51,0,0,0-1.18-.1,10.88,10.88,0,0,1-1.14-.05,4.82,4.82,0,0,0-.67-.06,1,1,0,0,1-.46-.1.6.6,0,0,0-.41,0,.79.79,0,0,1-.47-.05.82.82,0,0,0-.51-.05.62.62,0,0,1-.42-.05.54.54,0,0,0-.41-.06,1.6,1.6,0,0,1-.82-.15,4.78,4.78,0,0,0-1.24-.26,6,6,0,0,1-1.86-.57,15.53,15.53,0,0,1-2.42-1.34,19.33,19.33,0,0,1-2.06-1.54c-.55-.48-1.31-1.24-2.27-2.27-.69-.83-1.25-1.48-1.7-2a61.61,61.61,0,0,1-3.56-5.15l-.31.2a37.48,37.48,0,0,1-2.47,3h-.21a18.33,18.33,0,0,1-1.65,1.65l-.31.31-.82.72c-.76.55-1.32.95-1.7,1.19A6.43,6.43,0,0,1,126,353a2.77,2.77,0,0,0-1,.51,1.14,1.14,0,0,1-.72.31,9.1,9.1,0,0,0-1.6.46l-.21-.1c-.27.07-1.06.21-2.37.41a7.42,7.42,0,0,1-2.06.21.22.22,0,0,0-.26-.05.73.73,0,0,1-.36,0,1.82,1.82,0,0,0-.67,0,2.5,2.5,0,0,1-.87-.05,4.63,4.63,0,0,0-1.5.05,8.55,8.55,0,0,0-1.54.31c-.31.1-.64.22-1,.36a.19.19,0,0,1-.16-.1q0-.11-.36-.06a1.19,1.19,0,0,0-.51.21,1.36,1.36,0,0,1-.57.21.6.6,0,0,1-.52-.11c-.1-.1-.27-.12-.51,0a8.83,8.83,0,0,1-1.09.21l-.2-.11-.21-.41-1-.2.1-.11.11-.2-.52-.42a3.18,3.18,0,0,0,.78.11c.24,0,1.15-.11,2.73-.31a15.7,15.7,0,0,0,3.76-.88,25.79,25.79,0,0,0,4-2.27l3.56-2.31c.62-.42,1.11-.78,1.49-1.09s.95-.84,1.7-1.6a88.32,88.32,0,0,0,5.88-7.42c-.07-.14-.09-.22-.05-.26a11.26,11.26,0,0,0-1.29-1.49c-.89-1-2.41-2.68-4.54-5.16-1-.89-1.73-1.51-2.11-1.85a5.07,5.07,0,0,0-1-.72,6.28,6.28,0,0,1-1.13-.83l-.21.31a2.28,2.28,0,0,1-.72-.1l-.41.31a.46.46,0,0,1-.31-.1.42.42,0,0,0-.31-.11,1.4,1.4,0,0,0-.67.36,1.46,1.46,0,0,1-.88.36,1.23,1.23,0,0,0-.67.16,2.5,2.5,0,0,1-1.49.31,1.78,1.78,0,0,0-.93.15,7.37,7.37,0,0,1-1.91.31q-1.4.11-1.65-.21c-.17-.2-.27-.29-.31-.25a.42.42,0,0,1-.25.05v2.73a6.52,6.52,0,0,1-.11,1.29,5.49,5.49,0,0,0-.1.57s0,.08-.1.15,0,.22.1.26.07.48,0,1.34a5.5,5.5,0,0,1-.21,1.44,1.64,1.64,0,0,0-.2.47.17.17,0,0,0,0,.15.25.25,0,0,1,0,.16v.41l1.34-.1q.21-.31.36-.57a1,1,0,0,0,.16-.36l.41-.21.2-.52.93.11v-.31a4.12,4.12,0,0,1,1.24.2l.1-.2h.52a2.44,2.44,0,0,1,.51.05,1.5,1.5,0,0,1,.36.15c.11.07.19.09.26.06a1,1,0,0,0,.21-.16,1.15,1.15,0,0,0,.31.26,2.37,2.37,0,0,0,.72.05c.41,0,.84,0,1.29.05a2,2,0,0,1,.87.21l.52.36.51.72v.16a2,2,0,0,0,.21.41,3,3,0,0,1,.31,1,1.71,1.71,0,0,1-.1,1,6.29,6.29,0,0,0-.42,1.34,2.7,2.7,0,0,0-.67.52.5.5,0,0,1-.41.2,1.15,1.15,0,0,0-.46.1,2,2,0,0,1-.52.16,3.76,3.76,0,0,1-.51.05h-.42a.6.6,0,0,0-.41.21,1.38,1.38,0,0,1-.62.31,1.73,1.73,0,0,0-.67.3,3.55,3.55,0,0,1-1,.47,10.92,10.92,0,0,0-1.85.93,10.16,10.16,0,0,1-1.75.87,4.76,4.76,0,0,0-1,.47c-.28.17-.56.32-.83.46s-.76.35-1.44.62l-.31.21-.31.1-.41.31-.21-.1a6,6,0,0,0-.72.2,12.6,12.6,0,0,0-1.39.67L97.14,353l-.41.41a1.18,1.18,0,0,0-.31.21.6.6,0,0,1-.31.15,1.75,1.75,0,0,0-.51.26c-.21.14-.43.27-.67.41a1.74,1.74,0,0,1-.88.21,1.2,1.2,0,0,1-.77-.21q-.25-.21-.57-.51a3.83,3.83,0,0,1-.26-.62,2.35,2.35,0,0,0-.36-.67,4.09,4.09,0,0,0-.72-.83c-.27-.24-.62-.57-1-1a2.34,2.34,0,0,1-.72-1.18,3.62,3.62,0,0,1-.05-1.08,3.57,3.57,0,0,1,.41-1.24,8.78,8.78,0,0,0,.36-3.2q0-2.47.36-6.18t.57-4.95a4.88,4.88,0,0,0,.1-1.6c-.07-.24-.14-.38-.21-.41a.66.66,0,0,1-.2-.26v-.1a1.88,1.88,0,0,0,.51-.06,3.82,3.82,0,0,1,1.29.37,6.84,6.84,0,0,1,1.7.87c.42.31.83.64,1.24,1s.72.62.93.83l.41.31.72.51a9.65,9.65,0,0,0,.67.77,1.68,1.68,0,0,1,.36.88,1.12,1.12,0,0,1-.1.88,2.38,2.38,0,0,0-.26,1.18c0,.62-.07,1-.1,1.24a1.08,1.08,0,0,0,0,.51,2,2,0,0,1,0,.73c-.07.34-.17,1.89-.31,4.64a2.31,2.31,0,0,1,.41-.16c.14,0,1.44-.7,3.92-2v-3.25a7.18,7.18,0,0,0,0-1,1.6,1.6,0,0,1,0-.62c0-.24,0-1.23,0-3s-.11-3.43-.11-5,0-2.8,0-3.55,0-1.43,0-2a9.15,9.15,0,0,0-.1-1.86,3.38,3.38,0,0,1,0-1.5A3.61,3.61,0,0,0,102,320a5.35,5.35,0,0,1,0-1.29,3.62,3.62,0,0,0,0-1.08,2.2,2.2,0,0,0-.15-.73,3.3,3.3,0,0,1-.21-.51l-.72-.52-.36.16a3.24,3.24,0,0,0-.72.57,8.71,8.71,0,0,1-1.75,1.13,4.84,4.84,0,0,1-1.55.62,1.53,1.53,0,0,0-.67.15,2.56,2.56,0,0,1-1,.21,4,4,0,0,1-1.13-.05,1.31,1.31,0,0,1-.67-.31,1.72,1.72,0,0,0-.62-.36,4.54,4.54,0,0,1-1.19-.88,7.14,7.14,0,0,0-1.65-1.18,7.13,7.13,0,0,1-1.49-1,5.34,5.34,0,0,0-.93-.72l-.72-.36a5.49,5.49,0,0,1-.41-.57.8.8,0,0,1-.11-.46,1,1,0,0,0-.41-.67,1.51,1.51,0,0,1-.51-.67,1,1,0,0,1-.06-.51.89.89,0,0,0,0-.52c-.07-.21-.12-.34-.15-.41l-.16-.31.31-.31v-.26a.57.57,0,0,0-.1-.31l-.26-.36a4.7,4.7,0,0,1-.36-.62,13.2,13.2,0,0,1,1.39.62.85.85,0,0,0,.57.16.41.41,0,0,1,.36.05,1,1,0,0,0,.36.15,2,2,0,0,1,.46.21,1,1,0,0,0,.67.1,21.22,21.22,0,0,0,3.56-2.06A20,20,0,0,1,97,304.49a58.79,58.79,0,0,0,8.87-4l.2-.31.93-.46a1.27,1.27,0,0,1,.52-.15.6.6,0,0,0,.41-.21,4.27,4.27,0,0,1,1.44-.52,4.42,4.42,0,0,0,1.6-.61.65.65,0,0,1,.72-.16.61.61,0,0,0,.67-.1,3.16,3.16,0,0,1,.62-.41,1.07,1.07,0,0,1,.83,0,1.14,1.14,0,0,0,.82,0,.69.69,0,0,1,.57-.06c.17.07.43.19.77.36a1.84,1.84,0,0,0,.77.26.39.39,0,0,1,.36.16.31.31,0,0,0,.26.15.4.4,0,0,1,.26.1,1.39,1.39,0,0,0,.57.21,10.55,10.55,0,0,1,1.08.31,2.91,2.91,0,0,1,1,.52q.36.3.57.51a1.94,1.94,0,0,1,.51.52,2.34,2.34,0,0,1,.31.92,4.25,4.25,0,0,1-.05,1.45,3,3,0,0,1-.31,1c-.1.14-.26.38-.46.72l-.73.31-.31.31-1.75.82a3.09,3.09,0,0,0-.41.72,3.6,3.6,0,0,1-1.08.47,1,1,0,0,0-.57.26,1.78,1.78,0,0,1-.62.36,5.49,5.49,0,0,0-1,.51,10.43,10.43,0,0,1-1.6.78,14.26,14.26,0,0,0-1.49.67,2.85,2.85,0,0,1-.77.31.72.72,0,0,0-.47.25.44.44,0,0,1-.36.21.92.92,0,0,0-.46.15,3.6,3.6,0,0,1-.52.26l-.46.21c-.14.07-.38.2-.72.41l-.31.31a22.26,22.26,0,0,0-4.33,2.47,7.44,7.44,0,0,0,.93.42,6.54,6.54,0,0,0,1,.2,29.21,29.21,0,0,1,4.8,2.48c.07.2.12.36.15.46a1.17,1.17,0,0,1,0,.41.59.59,0,0,0,.16.42.29.29,0,0,1,0,.36.29.29,0,0,0,0,.36c.11.1.12.27,0,.51a5.18,5.18,0,0,0-.15.67c0,.21-.07.41-.1.62a3.26,3.26,0,0,0-.06.62v1.13l.31-.1a4.39,4.39,0,0,1,.62-.67.72.72,0,0,0,.26-.31,1.25,1.25,0,0,0,0-.36l-.31-.1.52-.16c.13,0,.2,0,.2,0s0,.05.11.05A1,1,0,0,1,112,321a1.1,1.1,0,0,1,.82-.31l.73-.52.41.31h.51a1.39,1.39,0,0,0,.57.21,2.15,2.15,0,0,0,1-.05,1.17,1.17,0,0,1,.77-.05,1.15,1.15,0,0,0,.52.1q4.23-9.48,6.39-14.07t3.4-7.58c.83-2,1.36-3.38,1.6-4.18a8.79,8.79,0,0,0,.41-1.85c0-.45,0-.72-.15-.83a6.93,6.93,0,0,1-.62-.56,4.14,4.14,0,0,0-1-.67,5.2,5.2,0,0,0-.72-.26c-.24-.07-.64-.21-1.19-.41A5,5,0,0,1,126,290a1.73,1.73,0,0,1,.72-.11A2.72,2.72,0,0,0,127.56,289.8Z"/>
        <path d="M185.13,288.81l.47.05,1.18.16,2,.26a8.94,8.94,0,0,1,2.48.72,9,9,0,0,0,1.91.67,1.38,1.38,0,0,1,.92.51,1.53,1.53,0,0,0,.83.57,1.8,1.8,0,0,1,.77.41c.17.17.43.47.77.88l.31.62.52.41c.14.27.26.5.36.67a5.09,5.09,0,0,0,.46.62.94.94,0,0,1,.26.77,1.91,1.91,0,0,0,.16.93,1.19,1.19,0,0,1,.05.88.94.94,0,0,1-.36.46c-.14.07-.19.22-.16.46a3,3,0,0,1-.36,1.34,7.83,7.83,0,0,1-.62,1.29l-.62.93-.61.21c-.07,0-.09,0-.06.1s0,.21-.15.41a6.78,6.78,0,0,1-.57.72c-.24.28-.46.55-.67.83l-.41.2v.31h.21a2.76,2.76,0,0,0-.52.73l-.41.1L193,307l-.41.2.2.11-.31.1.21.2-.21.21.11.31a20.12,20.12,0,0,0,3.71-2.06v-.21l.51-.2.31-.42a1.07,1.07,0,0,1,.36-.25.28.28,0,0,1,.31.1.83.83,0,0,0,.57.15l.31-.41-.1-.31h.2l.31-.31.62.21.31-.1.31.51c.07-.14.14-.2.21-.2h.41a1.32,1.32,0,0,1,.72.3,1.48,1.48,0,0,0,.51.31l.11.11,2,.41.41.31a11.6,11.6,0,0,1,1.24.51,2.75,2.75,0,0,0,.82,1.24,1.72,1.72,0,0,0,.21,1.65,1.65,1.65,0,0,1-.31.26c-.07,0-.11.15-.11.36a.81.81,0,0,1-.15.51,1.88,1.88,0,0,1-.26.31,1.11,1.11,0,0,0-.2.31l-.52.62-.31.31a3.88,3.88,0,0,0-1.65.93.3.3,0,0,1-.2-.1c-.07-.07-.23,0-.47.1a3.56,3.56,0,0,1-.67.31,2.78,2.78,0,0,0-.67.36,10,10,0,0,0-1.08,1l-.31-.41c-.07.2-.15.3-.26.3h-.31a.85.85,0,0,0-.36.11,2.83,2.83,0,0,1-.57.2,6.93,6.93,0,0,0-.72.26,1.54,1.54,0,0,0-.46.26.35.35,0,0,1-.26.1.69.69,0,0,0-.36.16,8,8,0,0,1-.77.46,7.68,7.68,0,0,1-1.39.57,17.66,17.66,0,0,0-2.58,1.18l.31.11a6.72,6.72,0,0,0,1.49.51,1.72,1.72,0,0,1,.93.47,1.79,1.79,0,0,0,.67.46,1.86,1.86,0,0,1,.57.31,11.89,11.89,0,0,0,1.08.72,1.86,1.86,0,0,0,.57.77.75.75,0,0,1,.31.31,2.21,2.21,0,0,0,.25.47,2.85,2.85,0,0,1,.47.2,6.3,6.3,0,0,0,2.06-.82,11.55,11.55,0,0,1,2.16-.93h.37l.61-.72.62-.1.31-.31.31.2.41-.2.11.1.2.31.72-.16a4.28,4.28,0,0,1,1.19.11,2.25,2.25,0,0,1,.93.26c0,.07.12.13.26.2l-.21.31.72.41v.21l.41.31.21.21a1.3,1.3,0,0,0,.93.3l-.41-.82a1,1,0,0,0,.41.21,1.57,1.57,0,0,0,.51.1,1.25,1.25,0,0,1,.36.05,1.45,1.45,0,0,0,.47.05.83.83,0,0,0,.46-.1c.1-.07.28-.05.52.05s.5.22.77.36.67.31,1.19.52a4,4,0,0,1,1.44,1,12.37,12.37,0,0,0,1,1,4.48,4.48,0,0,0,1,.57,6.27,6.27,0,0,0,.88,1,3.12,3.12,0,0,1,.61.77,4.81,4.81,0,0,1,.57,1.44,10.87,10.87,0,0,1,.26,1.55,5.77,5.77,0,0,1,0,1,1.88,1.88,0,0,0,0,.67,4.22,4.22,0,0,1,0,.88c0,.37-.05.92-.05,1.64s0,1.5.1,2.32a4.27,4.27,0,0,0,.21,1.34c2.81-.34,4.52-.56,5.1-.67s1.29-.25,2.11-.46a53.88,53.88,0,0,1,4.28-6c.45-.38.69-.67.72-.88a.71.71,0,0,1,.26-.46,1.46,1.46,0,0,0,.41-.62,5.82,5.82,0,0,1,.67-1.08l.93-1.24a2.33,2.33,0,0,0,.47-.77V325c-.28.14-.64.29-1.09.46a4.52,4.52,0,0,1-1.13.31,3.65,3.65,0,0,0-.88.21,6.41,6.41,0,0,1-.82.25l-.93.26-1,.31-.88.31a2.15,2.15,0,0,1-.72.16l-.2.2c-.69,0-1.19,0-1.5,0a1.45,1.45,0,0,1-.87-.15,13.38,13.38,0,0,1-1.19-.72,7.2,7.2,0,0,0-1.5-.78,3.1,3.1,0,0,1-1.18-.72,3.79,3.79,0,0,0-1-.72,6,6,0,0,1-1-.62L219,322.73h.88a1.32,1.32,0,0,0,.51-.1,10.2,10.2,0,0,1,1.19-.31,11.82,11.82,0,0,0,2-.67q1.08-.47,5.56-1.91a49.51,49.51,0,0,1,5.88-1.65,33.57,33.57,0,0,0,3.35-.72l.41-.72c.14,0,.35,0,.62,0a1.46,1.46,0,0,0,.57-.16,1,1,0,0,1,.41-.15.65.65,0,0,1,.46,0,1.15,1.15,0,0,0,.52.1H242a.57.57,0,0,1,.52.26,2.26,2.26,0,0,0,.56.57l.42.51h.25a6,6,0,0,1,1.14.46,6.59,6.59,0,0,1,1.39.83l1,.88a1.11,1.11,0,0,0,.26.46,2.32,2.32,0,0,1,.36.62,1.06,1.06,0,0,1,.1.77.66.66,0,0,0,0,.57c.11.17.07.43-.1.77a4.15,4.15,0,0,0-.36,1.19,3.7,3.7,0,0,1-.26,1,4.78,4.78,0,0,0-.26.62,2.94,2.94,0,0,1-.46.77,2.23,2.23,0,0,0-.46,1,4.84,4.84,0,0,1-.73,1.55,6,6,0,0,1-.87,1.18,1.3,1.3,0,0,0-.36.41c-.07.14-.24.45-.52.93l-.41.31v.1l-.21.11-.2.51-.42.41.11.11a3.16,3.16,0,0,0-.62.82l-.31.11a.51.51,0,0,0,0,.62l.93.3.31.42.92.41a2,2,0,0,0,.21.46,2.83,2.83,0,0,0,.57.52,1.23,1.23,0,0,1,.51.62.76.76,0,0,0,.16.36.33.33,0,0,1,.1.25.41.41,0,0,0,.16.31,1.55,1.55,0,0,1,.15.88A2.7,2.7,0,0,1,245,341c-.45.58-.84,1.15-1.19,1.7a1.92,1.92,0,0,1-.87.77,1.62,1.62,0,0,1-1.14.11,9.58,9.58,0,0,0-1.95-.21c-.93,0-2.17-.08-3.72-.16s-3-.08-4.22-.05-2.48.05-3.61.05a23.6,23.6,0,0,1-2.89-.15,6.05,6.05,0,0,1-2.21-.72,4.21,4.21,0,0,0-1.09-.52.17.17,0,0,1-.15,0,.89.89,0,0,0-.1.26,4.78,4.78,0,0,0,.15.57,10,10,0,0,1,.26,1.13,1.74,1.74,0,0,1-.1,1,1.24,1.24,0,0,0-.16.77c0,.24,0,.39-.05.46a.29.29,0,0,0-.1.21.26.26,0,0,0,.1.2l-.52.11a.67.67,0,0,0-.1.62l-.31.3-.31-.2-.51.31-.31.2a2.27,2.27,0,0,1-.72.11l-.11.41-.51-.21.1-.31h-.31l-.1-.1-.42.21a4.12,4.12,0,0,1-.82-1.24l-.41-.21-1-2-1-.73-.11-.41.31-.72-.41-.41-.1-.31.15-.16a.41.41,0,0,0,.1-.2,4.41,4.41,0,0,0-.36-1.39,23.88,23.88,0,0,1-.77-3.77q-.36-2.52-.67-5.67a23.78,23.78,0,0,0-.62-4.07,13.84,13.84,0,0,1-.51-2.47h-.42v1.13l-.31.21a1.14,1.14,0,0,1,.62.2,2.23,2.23,0,0,1-.36.31,2.59,2.59,0,0,1-.67.26,7,7,0,0,0-1.34.62,10.39,10.39,0,0,1-2.27.87,25.51,25.51,0,0,0-3,1.09c-1,.44-1.73.77-2.11,1l-1.39.72a2.24,2.24,0,0,1-.31.51c-.07.07-.09.23,0,.47a3.77,3.77,0,0,1-.26,1.34c-.21.65-.41,1.25-.62,1.8a4.31,4.31,0,0,0-.31,1.39,4,4,0,0,1-.31,1.39c-.2.56-1.23,3.68-3.09,9.39l-.41-.31c-.41,1-.83,1.89-1.24,2.78l-.31.1v.21a.42.42,0,0,1-.15.26,1.25,1.25,0,0,0-.26.62,6.57,6.57,0,0,1-1,1.7,11.71,11.71,0,0,1-1.55,1.85c-.44.42-1.11,1.07-2,2l-.72.62-.1.21v-.21l-.41.26a1.64,1.64,0,0,1-.37.1,2.32,2.32,0,0,0-.66.31,6.67,6.67,0,0,1-.88.46,1.91,1.91,0,0,0-.72.52.84.84,0,0,1-.67.31,1,1,0,0,0-.78.52A2.14,2.14,0,0,1,182,360a4.31,4.31,0,0,1-1.08.26h-.72l-.11-.21-.62-.21-.1-.31.31-.3-.31-.42a.88.88,0,0,1-.41.1l.31-.51-.31-.31.1-.52-.31-.3.11-.52h-.21a6,6,0,0,0,.1-.82,4.56,4.56,0,0,1,.11-.73,3.55,3.55,0,0,1,.3-.92.4.4,0,0,1-.1-.26,3.84,3.84,0,0,1,.47-1,3.73,3.73,0,0,0,.51-1.39c0-.38.09-.59.16-.62a1.27,1.27,0,0,0,.2-.16.86.86,0,0,0,0,.83l.31.41,1.7-1.7c.38-.38.86-.88,1.45-1.5a13.86,13.86,0,0,0,1.7-2.26c.55-.9,1.06-1.81,1.54-2.74a6.48,6.48,0,0,0,.78-2,5.54,5.54,0,0,1,.2-1.13,6.3,6.3,0,0,1,.31-.82,1.8,1.8,0,0,0,.16-.78,1.37,1.37,0,0,1,.25-.82,1.16,1.16,0,0,0,.26-.62V337a3.72,3.72,0,0,1-1.34.72l-.41.51-.52.11-.1.2c-.69.41-1.31.76-1.86,1l-.2.21L184,340l-.1.1-3,1.75-.21.21-.93.51-.41.42a2,2,0,0,0-.36.2,1.53,1.53,0,0,1-.31.16,2.2,2.2,0,0,0-.46.25,4,4,0,0,0-.47.36.59.59,0,0,1-.46.16l-.1.31q-.31.21-1.65.93a5,5,0,0,1-2,.72,1.45,1.45,0,0,0-.93.26,1.54,1.54,0,0,1-1,.25,1.79,1.79,0,0,1-1-.2.86.86,0,0,0-.62-.16,1.32,1.32,0,0,1-.77-.15,2.42,2.42,0,0,1-.77-.52l-.73-.72-.51-1-.62-.41c-.28-.55-.48-.93-.62-1.14a.92.92,0,0,1-.2-.46.85.85,0,0,0-.11-.36c-.07-.14-.15-.33-.26-.57a2.66,2.66,0,0,0-.36-.62,1.81,1.81,0,0,1-.31-.67.88.88,0,0,1,.06-.67,1,1,0,0,0,.15-.51,1.24,1.24,0,0,1,.16-.57c.1-.21.2-.43.3-.67a2.51,2.51,0,0,1,.21-.41.19.19,0,0,1,.16-.05,6.25,6.25,0,0,1,2.57-1.86l.52-.72.2.1a3.84,3.84,0,0,0,.73,2.58h.56a6.62,6.62,0,0,0,1.65-.77c.93-.52,2-1.14,3.25-1.86a23.24,23.24,0,0,1,2.89-1.49,5,5,0,0,0,1.29-.67,2.55,2.55,0,0,1,.67-.47c.27-.13.8-.36,1.59-.67a8.48,8.48,0,0,0,2.17-1.24,71.27,71.27,0,0,1,7.47-4l.42-.52c-.07-1.1-.11-1.87-.11-2.32a14.37,14.37,0,0,0-.1-1.6,2.18,2.18,0,0,0-.36-1.18,4.15,4.15,0,0,1-.57-.78l-.93-.61a1,1,0,0,1-.51.15,1.22,1.22,0,0,0-.78.52,1,1,0,0,1-1,.36,1.34,1.34,0,0,0-1.09.25,1.31,1.31,0,0,1-.77.36.56.56,0,0,0-.41.11,1.38,1.38,0,0,1-.31.21.4.4,0,0,0-.36-.06,3.49,3.49,0,0,0-1,.72,2.23,2.23,0,0,1-1.19.67.92.92,0,0,0-.67.26,1.45,1.45,0,0,1-.51.36,3.25,3.25,0,0,0-.57.31l2.58-2.06.82-1a2,2,0,0,1-1-.83,17.15,17.15,0,0,1-1.75-2.83c-.76-1.41-1.09-2.27-1-2.58a1.15,1.15,0,0,0,0-.82,2.66,2.66,0,0,1-.21-.62.94.94,0,0,1,.1-.57,4.57,4.57,0,0,1,.62-.82,4.3,4.3,0,0,0,.78-1.34,6.2,6.2,0,0,0,.36-1.39,7,7,0,0,1,.31-1.45,4.43,4.43,0,0,1,.56-1.29,3.18,3.18,0,0,0,.67-1.65,3.11,3.11,0,0,1,.31-.92,3,3,0,0,0,.31-.93c0-.28.12-.45.26-.52a.45.45,0,0,0,.26-.31c0-.13.1-.36.2-.67l.73-2.06a13.29,13.29,0,0,1,.82-2,2.35,2.35,0,0,0,.31-.67,1.12,1.12,0,0,1,.2-.46,1.06,1.06,0,0,0,.21-.52,2.9,2.9,0,0,1,.26-.72,3.92,3.92,0,0,0,.31-.82l.31-1.24-.72-.62L186,289.43Zm14.33,47.84a1.29,1.29,0,0,0,.57.1.79.79,0,0,1,.47.1.65.65,0,0,0,.3.16l.73.15-.31-.31h.41a2.24,2.24,0,0,0,.41-.05q.32,0,1.08.57a3.71,3.71,0,0,0,1.5.77A2.53,2.53,0,0,1,206,339a3.18,3.18,0,0,0,1.18.87,7.64,7.64,0,0,1,1.4.73l.61.66a2.2,2.2,0,0,1,.57.83,1.24,1.24,0,0,0,.26.51,1.34,1.34,0,0,1,.26.57,4.64,4.64,0,0,0,.2.77,2.56,2.56,0,0,1,.16.83,2.23,2.23,0,0,0,.15.77,13.46,13.46,0,0,1,.42,1.76,16.08,16.08,0,0,1,.15,3.6,9.35,9.35,0,0,1-.31,2.63c-.14.24-.26.47-.36.67s-.29.69-.57,1.45l-.62.2-.41.72-.46.47a1.93,1.93,0,0,1-.62.31,1.24,1.24,0,0,1-.77.05,1,1,0,0,0-.57-.05,4.73,4.73,0,0,1-.77.05l-.62-.62a1.66,1.66,0,0,1-.36-.67,2.05,2.05,0,0,0-.67-.88,1.81,1.81,0,0,1-.67-1,3,3,0,0,0-.47-1,11,11,0,0,1-.72-1.13l-.72-.51-.1-.42a1.38,1.38,0,0,1,.36-.41c.1-.07.13-.14.1-.2a1.43,1.43,0,0,1-.05-.52l-.21-.21q.21-.51.36-.93a7,7,0,0,0,0-2.16,28,28,0,0,0-.41-3.51,12.42,12.42,0,0,0-.87-3,7.39,7.39,0,0,1-.67-2,1.51,1.51,0,0,0-.36-.93,5.18,5.18,0,0,1-.57-.52Z"/>
        <path d="M274.52,314.06a.82.82,0,0,0,.62.21l.41-.21.31.21a4.86,4.86,0,0,0,.62.41.76.76,0,0,0,.36.1.45.45,0,0,1,.31.16l.25.25.21.21,1.86,1.75a6.35,6.35,0,0,0,.61.83,1.21,1.21,0,0,1,.26.77,3.14,3.14,0,0,1,0,1,4.83,4.83,0,0,1-.31.93,14.12,14.12,0,0,0-.57,1.8,12.53,12.53,0,0,1-.62,1.91,3.62,3.62,0,0,0-.3.88,6.46,6.46,0,0,1-.36,1,14.11,14.11,0,0,0-.68,2.27c-.24,1-.37,1.71-.41,2.06a3.55,3.55,0,0,1-.15.82,3.09,3.09,0,0,0-.11.93,2.09,2.09,0,0,1-.1.82c-.07.14-.09.25-.05.31a.69.69,0,0,1-.05.42,4.81,4.81,0,0,0-.16,1c0,.48-.05.79-.05.92a3.89,3.89,0,0,1-.05.52c0,.21-.09.65-.15,1.34s-.31,3.2-.73,7.53h.11q4.13-5.16,5.72-7.43t3.2-5.1q1.59-2.83,2.88-5.31a72.09,72.09,0,0,0,3.56-9.38l-.83,3.92.21.31a.82.82,0,0,0-.1.36c0,.1-.31,1-.93,2.78a15.52,15.52,0,0,0-.88,2.89.93.93,0,0,0,.26.46,15.35,15.35,0,0,1-.62,1.55,10.07,10.07,0,0,0-.51,1.29,15,15,0,0,0-.57,2.16,8.77,8.77,0,0,1-.57,2,3.39,3.39,0,0,0-.31,1.39,5.08,5.08,0,0,1-.67,2.06c-.44.9-.82,1.74-1.13,2.53a13.48,13.48,0,0,1-.93,2,5,5,0,0,0-.57,1.18,1.4,1.4,0,0,1-.36.67,1.84,1.84,0,0,0-.41.78,19.47,19.47,0,0,1-1.91,3,30.79,30.79,0,0,1-3.24,4,11.51,11.51,0,0,0-1.76,2,1.91,1.91,0,0,1-.41.62,5.21,5.21,0,0,0-.67.72c-.34.28-.6.5-.77.67a1.78,1.78,0,0,1-.78.41,1.17,1.17,0,0,1-.77.05c-.17-.06-.39-.17-.67-.3s-.36-.5-.46-.67a9.87,9.87,0,0,1-.57-1.4c-.27-.75-.45-1.23-.52-1.44l-.3-.21-.21-.51-.41-.21-.21-.31-.72-.51v-.72a2.13,2.13,0,0,1,.1-.57,3.08,3.08,0,0,1,.42-.83,6.07,6.07,0,0,0,.61-1.39,15.82,15.82,0,0,0,.31-4,84.85,84.85,0,0,1,.67-9,58.66,58.66,0,0,0,.57-6.08,4,4,0,0,1-.21-.52,6.34,6.34,0,0,1-1.23.83l-.21.31-.21-.11-.2.42a9.52,9.52,0,0,0-1.24.82v.21l-.51.31-.21.31-.41.1-.11.1-.2.11-.52.51-.2.1-.42.42a5,5,0,0,1-.72.31,1.82,1.82,0,0,0-.56.31c-.18.13-.4.29-.68.46a4.33,4.33,0,0,1-1,.46,2.16,2.16,0,0,1-1.13.11,1.85,1.85,0,0,0-.88,0,1.09,1.09,0,0,1-.67,0,2.78,2.78,0,0,1-.67-.36,6.59,6.59,0,0,0-.77-.47,2.37,2.37,0,0,1-.62-.41,3,3,0,0,0-.57-1,1.91,1.91,0,0,1-.41-.77,3.54,3.54,0,0,1-.15-1,1.27,1.27,0,0,0-.31-.83,2.7,2.7,0,0,1-.47-.77c-.1-.27-.29-.76-.56-1.44l-.21-.11a6.59,6.59,0,0,0-.36-.77.78.78,0,0,1,0-.67.69.69,0,0,0-.1-.72.85.85,0,0,1-.16-.78,5.51,5.51,0,0,1,.21-.72,1.2,1.2,0,0,0,.1-.46,3.46,3.46,0,0,1,.1-.62l.52-.41.41-.52.41-.2a3.19,3.19,0,0,0,.42-.26l.36-.26a2,2,0,0,1,.46-.21l.11-.51c.34.55.72,1.1,1.13,1.65H258a7.45,7.45,0,0,0,1.34-.57c.79-.37,2.25-1.22,4.38-2.52s3.78-2.25,4.95-2.84a24.86,24.86,0,0,1,2.37-1.08c.41-.14,1-.31,1.75-.52l.52-.72A6.34,6.34,0,0,0,274.52,314.06Zm-1.76-24.23h.88a8.43,8.43,0,0,1,1.08.11,7.53,7.53,0,0,1,1.34.3,5,5,0,0,0,1.14.26,4,4,0,0,1,1,.26,11.07,11.07,0,0,0,1.8.46,5.47,5.47,0,0,1,2,.73,5.33,5.33,0,0,0,1.29.67,2.91,2.91,0,0,1,.88.41l.77.62a.8.8,0,0,1,.15.2,3.09,3.09,0,0,0,.36.42,3,3,0,0,1,.52.67,2.14,2.14,0,0,1,.26.82,1.58,1.58,0,0,0,.41.88,1.7,1.7,0,0,1,.41,1c0,.41,0,.89,0,1.44a13,13,0,0,1-.1,1.65,4.57,4.57,0,0,1-.26,1.19,1.34,1.34,0,0,1-.41.56c-.17.14-.4.35-.67.62a8,8,0,0,1-.88.47,2,2,0,0,1-.77.15,2.79,2.79,0,0,1-.87-.15,2.13,2.13,0,0,0-.93-.11.76.76,0,0,1-.67-.15.61.61,0,0,0-.42-.21,1.6,1.6,0,0,1-.67-.26.72.72,0,0,0-.77-.05.61.61,0,0,1-.46.16l-.47-.16-.2-.36a3.29,3.29,0,0,0-.26-.31,5.49,5.49,0,0,1-.46-.56l-.62-.31-.31.1-.21-.21a1.16,1.16,0,0,0-.41.21.6.6,0,0,1-.31.15,9.08,9.08,0,0,0-.88.36,7.13,7.13,0,0,0-1.23.73,9.66,9.66,0,0,1-1.19.72c-.41.2-1.07.55-2,1l-.1-.1,1.85-1.55c.69-1,1.19-1.61,1.5-2a6.66,6.66,0,0,0,.82-1.13,4.19,4.19,0,0,0,.47-1.65,3.47,3.47,0,0,0-1.08-2.43,23.21,23.21,0,0,0-2-2.06,3.49,3.49,0,0,1-1-1.13,2.92,2.92,0,0,0-.57-.83c-.24-.24-.67-.7-1.29-1.39A6.35,6.35,0,0,0,272.76,289.83Zm18.56,50.41c.34,1,.62,1.95.83,2.74a7.4,7.4,0,0,0,.46,1.44,5,5,0,0,1,.36,1.08l.36.16a5,5,0,0,0,.83.1,13.28,13.28,0,0,0,1.8,0,24.62,24.62,0,0,0,3.14-.41,42.54,42.54,0,0,0,6.24-1.91,5.49,5.49,0,0,1-.57.41,1.85,1.85,0,0,1-.51.21,1.43,1.43,0,0,0-.62.36,3.5,3.5,0,0,1-.88.57c-.41.2-.8.41-1.18.62a15.5,15.5,0,0,0-1.7,1.13V347a9,9,0,0,1-1.34.72v.2l-.31.11a1.36,1.36,0,0,0-.26.15.58.58,0,0,0-.1.21,1.12,1.12,0,0,1-.26.36.69.69,0,0,0-.21.51.84.84,0,0,1-.36.62c-.24.21-.36.36-.36.47v.36l-.31.2-.31.62c-.07.14-.14.28-.2.42a.65.65,0,0,0-.05.46,1.4,1.4,0,0,1-.06.62,6.26,6.26,0,0,1-.31.82,1.71,1.71,0,0,1-.46.67,5,5,0,0,0-.67.72l-.62.16a.72.72,0,0,0-.36.2.9.9,0,0,1-.57.21,1.8,1.8,0,0,1-.77-.05,1.25,1.25,0,0,0-.62,0,.93.93,0,0,1-.41,0l-.46-.16a13.37,13.37,0,0,0-1-1.08,1.24,1.24,0,0,1-.42-.72,3.57,3.57,0,0,0-.36-.93,5.39,5.39,0,0,1-.41-.93,1.76,1.76,0,0,1-.1-.82.65.65,0,0,0-.16-.57,1,1,0,0,1-.26-.57.76.76,0,0,0-.36-.56,1.11,1.11,0,0,1-.41-.72,1.85,1.85,0,0,1,0-.88,1.9,1.9,0,0,1,.26-.57.54.54,0,0,0,.1-.46.54.54,0,0,1,.11-.46.8.8,0,0,0,.15-.47.85.85,0,0,0-.21-.52.73.73,0,0,1-.2-.46.41.41,0,0,1,.1-.31,2.52,2.52,0,0,0,.31-.51,7.11,7.11,0,0,1,1.75-.42,1.77,1.77,0,0,0,.41-.51c.07-.14.18-.36.31-.67a2.42,2.42,0,0,1,.47-.72,1.45,1.45,0,0,0,.36-.57,4.58,4.58,0,0,1,.51-.93Zm28.87-39.79a.34.34,0,0,0,.31.05c.06,0,.17,0,.31.21a.44.44,0,0,0,.46.2.54.54,0,0,1,.46.11,1.9,1.9,0,0,0,.57.26,5.64,5.64,0,0,0,.83.15,4.43,4.43,0,0,1,1.08.31,3.3,3.3,0,0,1,1.08.72,3.19,3.19,0,0,0,.93.67,7.08,7.08,0,0,0,1,.36,6.11,6.11,0,0,1,1.08.47,5.06,5.06,0,0,1,.82.51l.78.62a3.62,3.62,0,0,0,.67.82,2.59,2.59,0,0,1,.51.62,2.22,2.22,0,0,1,.31,1,10.29,10.29,0,0,1,.05,1.09,1.56,1.56,0,0,1-.15.77,1.43,1.43,0,0,0-.15.72,1.72,1.72,0,0,1-.31.93,1.46,1.46,0,0,0-.31.72.57.57,0,0,1-.16.41.9.9,0,0,0-.2.52,1.26,1.26,0,0,1-.21.56,1.61,1.61,0,0,0-.21.37,5.37,5.37,0,0,1-.25.56l-.31.31a1.57,1.57,0,0,0-.26.57,3.17,3.17,0,0,1-.47.87l-.61.93c-.14.21-.25.36-.31.47a3.46,3.46,0,0,1-.42.46l-.2.1v.21a1,1,0,0,0-.16.21c0,.07-.24.34-.61.82a6.48,6.48,0,0,1-.78.88.39.39,0,0,0-.2.31c0,.1-.09.22-.26.36a5.23,5.23,0,0,0-.72.82,5.4,5.4,0,0,1-1,1,2.85,2.85,0,0,0-.57.52,2.05,2.05,0,0,0-.15.41,5.64,5.64,0,0,0,.51.77.8.8,0,0,1,.21.47v.93a1.78,1.78,0,0,1-.21.82,3.2,3.2,0,0,1-.62.83,7.2,7.2,0,0,0-.56.61l-.57.73a6.64,6.64,0,0,0-.78.51,1.66,1.66,0,0,1-.87.26,10.38,10.38,0,0,0-1.34.2,5.28,5.28,0,0,1-1,.16,14.5,14.5,0,0,0-1.6.21c-.86.13-2.17.39-3.92.77a25.47,25.47,0,0,0-3.35.87,7.16,7.16,0,0,1-1.49.47q-.78.15-2.22.57l-.21.2a.65.65,0,0,1-.25-.05l-.47-.15a.64.64,0,0,0-.51,0l-.11.41-.2-.31-.31.21v.3l-.41-.3-.21-.31a4,4,0,0,0-.83.41c-.13,0-.22,0-.25-.1s-.19-.11-.47-.11a.8.8,0,0,1-.56-.15,3.17,3.17,0,0,0-.52-.36,5.64,5.64,0,0,0-.88-.41,10.84,10.84,0,0,1-.51-1,1.38,1.38,0,0,0-.31-.46,1.29,1.29,0,0,1-.31-.62c-.07-.27-.26-.89-.57-1.85s-.63-2.15-1-3.56-.67-3-1-4.74a58.73,58.73,0,0,1-.67-6.7c-.13-2.72-.32-4.23-.56-4.54a11,11,0,0,1-.78-1.18l-1-.83h.93l-.1-.21h.2l.11-.1-.41-.51a2.54,2.54,0,0,1,.61.2.68.68,0,0,0,.47.05.55.55,0,0,1,.46.11,1.52,1.52,0,0,0,.72.2,1.27,1.27,0,0,1,.62.16.41.41,0,0,0,.31.1.81.81,0,0,0,.46-.1,2,2,0,0,1,1,.05,3.51,3.51,0,0,1,1.5.67c.45.34,1.08.89,1.91,1.65l1.23-.26a9.48,9.48,0,0,0,2.27-1,38.09,38.09,0,0,1,3.92-1.86c1.58-.65,2.63-1,3.14-1.18a7.41,7.41,0,0,0,1.4-.52,16.71,16.71,0,0,1,2.06-.77,16.29,16.29,0,0,1,2.42-.62l1.24-.2a3.17,3.17,0,0,0,.67-.26,3.18,3.18,0,0,1,.82-1.24Zm-5.78,11.65a1,1,0,0,1-.56,0,3.71,3.71,0,0,0-1.39.42c-.76.3-1.24.51-1.45.61a2.64,2.64,0,0,1-.46.21c-.11,0-.33.09-.67.15l-.11.11-.72.15a1.14,1.14,0,0,0-.41.21,1.4,1.4,0,0,1-.67.2,1.17,1.17,0,0,0-.57.16A1.74,1.74,0,0,1,307,314a1.14,1.14,0,0,0-.31-.31,1.51,1.51,0,0,0-.82-.16,2.15,2.15,0,0,1-.83-.1l-.72-.72h-.41v.21a.73.73,0,0,0,.1.3,5,5,0,0,1,.26,1,8.89,8.89,0,0,1,.15,1.59q0,.78.06,1.5c0,.48,0,1.05,0,1.7s0,1.27,0,1.85-.06,1.6-.06,3H305a6.48,6.48,0,0,0,1.34-.36l1.24-.42a1.07,1.07,0,0,0,.36-.25c.27-.35.5-.66.67-.93s.74-1.15,1.7-2.63,1.8-2.84,2.53-4.07,1.13-2,1.23-2.22A9,9,0,0,0,314.41,312.1Zm11.45,28.25,1.39.41a1.6,1.6,0,0,0,.72.05.86.86,0,0,1,.67.21,2.87,2.87,0,0,0,.93.46,6.21,6.21,0,0,1,1.6,1c.65.52,1.11.9,1.39,1.14s.62.56,1,1a11,11,0,0,0,.77,1.14,4.42,4.42,0,0,1,.57,1.08,3.67,3.67,0,0,0,.51,1q.21.21.78.93a3.06,3.06,0,0,1,.67,1.49,3.21,3.21,0,0,1-.1,1.4,3.09,3.09,0,0,1-.37.82c-.1.14-.25.38-.46.72a8.31,8.31,0,0,1-.88.93,6.69,6.69,0,0,1-1.65.82,6.91,6.91,0,0,1-2.11.57,1.83,1.83,0,0,1-1.29-.31,1.9,1.9,0,0,0-.87-.41,7.43,7.43,0,0,0-.78-.05,1.94,1.94,0,0,1-.51-.05.91.91,0,0,0-.47,0c-.2,0-.61.12-1.23.25a1.66,1.66,0,0,0-.21-.31,1.21,1.21,0,0,0-.67-.05,6.08,6.08,0,0,0-1.08.21,6.45,6.45,0,0,1-1.08.21,4.57,4.57,0,0,0-1,.2,2.58,2.58,0,0,1-.77.16,1.52,1.52,0,0,0-.57.1,4.9,4.9,0,0,1-1,.21,2.46,2.46,0,0,0-1.18.46,1.43,1.43,0,0,1-.83.36,1.42,1.42,0,0,0-.72.21,5.56,5.56,0,0,0-.62.41,2.21,2.21,0,0,1-.77.36,10.52,10.52,0,0,0-1,.36l1-.72c.34-.34.62-.64.83-.88s.73-.82,1.59-1.75a17.44,17.44,0,0,0,1.91-2.37c.41-.65.69-1.12.83-1.39s.31-.66.51-1.14l.31-.2q2.79-3.81,3.4-4.85a4.37,4.37,0,0,0,.67-1.49,3.39,3.39,0,0,1,.11-.62A2.33,2.33,0,0,1,326,342l-.41-.72-1-.62a2,2,0,0,0,.41-.05.86.86,0,0,1,.51.05c.21.07.31.12.31.15s0,.05.11.05Z"/>
        <path d="M363.33,314.87c.07-.06.22-.06.47,0a8.59,8.59,0,0,0,1.08.21c.48.07.75.1.82.1l-.41-.31h.21a9.22,9.22,0,0,1,1.13.42,7.55,7.55,0,0,1,1.6.82c.38.28.84.65,1.39,1.13q.51.42.72.57a1.28,1.28,0,0,1,.36.67,3.4,3.4,0,0,1,.16,1,6.24,6.24,0,0,1-.21,1.39c-.14.59-.36,1.36-.67,2.32a23,23,0,0,1-1.13,2.84,20.19,20.19,0,0,1-1.29,2.32,19.7,19.7,0,0,0-1.14,2,5.89,5.89,0,0,0-.61,1.7,2.31,2.31,0,0,1-.42,1.08,5.21,5.21,0,0,0-.61,1.29,31.17,31.17,0,0,1-1.5,3.14,31.69,31.69,0,0,0-1.44,3,2,2,0,0,1-.47.88.31.31,0,0,0-.15.36.37.37,0,0,1-.1.36.84.84,0,0,0-.21.52,7.39,7.39,0,0,1-.83,1.7c-.51.89-.86,1.46-1,1.7l-.36.51-.36.52a2.35,2.35,0,0,0-.36.77l-.31.21a.18.18,0,0,0-.05.21c0,.07-.07.25-.31.56a20.35,20.35,0,0,0-1.18,1.91h-.21l-.41.82-.21.11v.2c-.34.56-.6,1-.77,1.24a1.85,1.85,0,0,1-.41.52.81.81,0,0,0-.26.26c-.07.1-.16.24-.26.41a1.87,1.87,0,0,1-.26.36h-.1c.07.07,0,.17-.05.31s-.3.34-.57.62l-.1.1v.1a5.89,5.89,0,0,1-.52.62c-.14.14-.51.62-1.13,1.44a66.68,66.68,0,0,1-6,5.88,4.31,4.31,0,0,1-1.19.83l-.77.36a1.49,1.49,0,0,0-.31.25l-3.92.72a44.28,44.28,0,0,1-5.46-1.95l1.24-.52.61-.31a8,8,0,0,1,.88-.46c.1,0,1.29-.72,3.56-2.06a17.3,17.3,0,0,0,3.71-2.53c.21-.34.51-.86.93-1.55a1.77,1.77,0,0,0,.82-.2v-.52l.21.21h.41a8.74,8.74,0,0,1,1.24-1.5,16.38,16.38,0,0,0,1.7-2.06c.79-1.06,1.65-2.25,2.58-3.55s1.85-2.7,2.78-4.18,1.75-2.9,2.47-4.28,1.43-2.73,2.12-4.07,1.2-2.37,1.54-3.09.72-1.45,1.14-2.17a42.64,42.64,0,0,0,1.8-3.87q1.18-2.78,1.86-4.69c.44-1.27.75-2.26.92-3a7.59,7.59,0,0,0,.26-1.76,4,4,0,0,0-.1-1,1.3,1.3,0,0,0-.31-.57,5.6,5.6,0,0,1-.52-.61A3.49,3.49,0,0,0,363.33,314.87Zm15.88-28.14c.07.07.14.09.2,0a1.64,1.64,0,0,1,.57,0c.31,0,.86.12,1.65.26a7.35,7.35,0,0,1,1.81.51,3.2,3.2,0,0,0,1.23.36,4.82,4.82,0,0,1,1.76.73,10.6,10.6,0,0,1,1.34.87,5.6,5.6,0,0,0,.61.52,10.82,10.82,0,0,0,.93,1,2.55,2.55,0,0,1,.57.67,3.67,3.67,0,0,1,.41,1.29,9.5,9.5,0,0,1,.16,1.59,3.06,3.06,0,0,1-.26,1.29,2.48,2.48,0,0,0-.26.78V297l.1.2a8.69,8.69,0,0,1,1.4-.36,1.44,1.44,0,0,0,.67-.2.39.39,0,0,1,.36-.11c.1,0,.22,0,.36-.2a.52.52,0,0,1,.51-.21.44.44,0,0,0,.47-.15.65.65,0,0,1,.36-.26.9.9,0,0,0,.41-.26l.41.21a1.91,1.91,0,0,1,.52-.26,1.14,1.14,0,0,0,.36-.15,1.19,1.19,0,0,1,.36-.16l.36-.1c.1,0,.29-.12.57-.26a.32.32,0,0,0,.31.21c.13,0,.41,0,.82,0a1.47,1.47,0,0,1,1,.51,1.71,1.71,0,0,0,1,.57,2.35,2.35,0,0,1,1.08.52,5.71,5.71,0,0,0,.73.51,1.11,1.11,0,0,1,.3.21l.42.41c.2.28.37.5.51.67a1.15,1.15,0,0,1,.11.88,2.65,2.65,0,0,0-.06.82.72.72,0,0,1-.05.47,4,4,0,0,1-.2.41l-.31.46a.21.21,0,0,0,.05.16s0,.1-.1.2l-.47.47a2.74,2.74,0,0,1-.57.46,1.82,1.82,0,0,1-.67.21l-.77.1a4.33,4.33,0,0,1-1,0,3.14,3.14,0,0,0-1.24.15,3.13,3.13,0,0,1-1.08.21,1.45,1.45,0,0,0-.77.16,1.21,1.21,0,0,1-.62.15,1.79,1.79,0,0,0-.83.26,1.86,1.86,0,0,1-.92.26h-1.19v.3a8.49,8.49,0,0,1-1.08.31,7.54,7.54,0,0,0-.88.26,5.93,5.93,0,0,1-.67.21.67.67,0,0,0-.36.15.31.31,0,0,1-.2.11H389l-.1.1-.31.1-.1-.1A10.72,10.72,0,0,1,387,306l.11.2a1.4,1.4,0,0,1-.52,0,.23.23,0,0,0-.2,0,.41.41,0,0,1-.21,0,.5.5,0,0,0-.26.11,1.7,1.7,0,0,1-.57.2,1.26,1.26,0,0,0-.51.21l-.31.31-.21-.21-.2.31v-.2l-.21.1-.21.2-.2-.2-.1.2-.42.11v.2h-.31a1.24,1.24,0,0,0-.31.06l-.51.1c-.21,0-.45.09-.72.15a1.48,1.48,0,0,0-.47.16.21.21,0,0,1-.15.05v.21l-1.44.41-.21.2-.83.31-.1.11a16.33,16.33,0,0,1-1.85.67,4.47,4.47,0,0,0-1.29.56,3.16,3.16,0,0,1-1,.47c-.25,0-.45.07-.62.1a1.87,1.87,0,0,0-.62.31,5.48,5.48,0,0,1-1.29.57,8.17,8.17,0,0,0-1.55.67,6.85,6.85,0,0,1-1.44.62,4.75,4.75,0,0,1-1.08.25.71.71,0,0,0-.41.11,2.4,2.4,0,0,1-.78.2,6.36,6.36,0,0,1-1,.11h-1.13a13.65,13.65,0,0,1-2.17-2.27l-.82-.83c-.07-.2-.14-.39-.21-.56a6.8,6.8,0,0,0-.82-1.14,7.64,7.64,0,0,1-1.14-1.85c-.27-.66-.38-1.07-.31-1.24a1.87,1.87,0,0,1,.42-.57c.2-.2.27-.37.2-.51a1.15,1.15,0,0,1-.1-.52l.21.31-.21-.62.41.41a17.43,17.43,0,0,0,2,1.24,3,3,0,0,0,2.06.31,33.59,33.59,0,0,0,4-1.24c2-.68,3.39-1.16,4.28-1.44s1.93-.65,3.1-1.13a6.91,6.91,0,0,1,.61-1.65,4.22,4.22,0,0,0,.47-1.24,5.9,5.9,0,0,1,.56-1.5,12.59,12.59,0,0,0,.88-3c.31-1.47.48-2.42.52-2.83s.08-.93.15-1.55l-.72-.72c-.34-.41-.64-.74-.88-1a8.25,8.25,0,0,0-1.23-.93,6,6,0,0,0-1.09-.61,2.66,2.66,0,0,1-.41-.16H374a2.05,2.05,0,0,0,.57-.15,8.77,8.77,0,0,1,2.27-.16h2A.82.82,0,0,0,379.21,286.73Zm16.39,91.86c-.48.89-1,1.75-1.44,2.57a2.36,2.36,0,0,0-.62.42l-.83,1.23-.1-.31-.31.31-.41.72-.21-.1a2.76,2.76,0,0,0,.31-.36,2.22,2.22,0,0,0,.11-.93,8.34,8.34,0,0,0-.11-1.39c-.07-.41-.14-1.07-.2-2a3.1,3.1,0,0,0-.06-1.23,17,17,0,0,1-.1-3c0-1.52.05-3.42.05-5.73s0-5.63.11-10,.1-6.85.1-7.47,0-1.31-.1-2.06c-.62.2-1.16.36-1.6.46a3.67,3.67,0,0,0-1,.36,1.9,1.9,0,0,1-.72.26,1.1,1.1,0,0,0-.57.21,2,2,0,0,1-.77.25,16.61,16.61,0,0,0-2,.62l-.1.1c-.27.07-.65.2-1.13.37a8.29,8.29,0,0,0-1.19.51,11.38,11.38,0,0,1-1.44.62,16.12,16.12,0,0,0-1.7.72,18.81,18.81,0,0,1-1.86.78,7.3,7.3,0,0,0-1.49.66,2.15,2.15,0,0,1-.78.37,1.9,1.9,0,0,0-.82.46,7.65,7.65,0,0,1-2,.93c-1.07.38-2.13.74-3.2,1.08a7,7,0,0,1-2.37.46,2,2,0,0,1-1-.25,7.59,7.59,0,0,0-.77-.52l-1-1.24-.52-.2-.2-.31-.62-.52a3.36,3.36,0,0,0-.21-.62,1.86,1.86,0,0,0-.57-.51,1.22,1.22,0,0,1-.56-.83,1.22,1.22,0,0,0-.36-.72.75.75,0,0,1-.31-.51.8.8,0,0,1,.05-.52,3.36,3.36,0,0,0,.2-.72l.93-.72a4,4,0,0,1,.72-1.24h.21l-.1.72.2.41c.62.35,1.07.61,1.34.78a3.15,3.15,0,0,0,.78.36,3.67,3.67,0,0,0,1.39-.1q1-.21,4.64-1.45c2.4-.82,4.95-1.63,7.63-2.42s5.41-1.61,8.19-2.47,4.26-1.33,4.44-1.4a2.46,2.46,0,0,0,.56-.31c-.07-1.3-.1-2.21-.1-2.73a3.09,3.09,0,0,0-.1-1,3.78,3.78,0,0,1-.21-.51,8.1,8.1,0,0,0-1.24.26,15.67,15.67,0,0,0-1.75.72,21.44,21.44,0,0,0-2.58,1.44,12.82,12.82,0,0,1-2.63,1.34,10.34,10.34,0,0,0-2.21,1.08,2.94,2.94,0,0,1-1.39.62,1.56,1.56,0,0,1-.67-.1,4,4,0,0,0-.52-.21,16.25,16.25,0,0,0-1.19-1.75,2,2,0,0,1-.46-.88,1.06,1.06,0,0,0-.41-.67.78.78,0,0,1-.36-.62,1.79,1.79,0,0,0-.57-.92,3.65,3.65,0,0,1-.77-1.14,5.23,5.23,0,0,1-.36-1.08,2.31,2.31,0,0,1,0-1,1.42,1.42,0,0,1,.2-.62.29.29,0,0,0,.11-.2,1.4,1.4,0,0,0-.11-.62.29.29,0,0,1,.05-.36,1.16,1.16,0,0,0,.26-.47.83.83,0,0,0-.05-.31.18.18,0,0,1,0-.2.78.78,0,0,1,.26-.26,1.06,1.06,0,0,0,.31-.36,2.34,2.34,0,0,1,.31-.47,3.38,3.38,0,0,0,.41-1.08,20.6,20.6,0,0,1,.67-2.06q.47-1.23,1.8-5.46-.21,0-1.23-.93a4.4,4.4,0,0,0-1.34-1,1.26,1.26,0,0,1-.62-.31c-.21-.17-.38-.31-.52-.41a3.79,3.79,0,0,0-.62-.36,2.33,2.33,0,0,1-.15-.36,2.87,2.87,0,0,0-.36-.57,6.59,6.59,0,0,0-.62-.72l-.62-.52c-.07-.2-.12-.34-.15-.41a1,1,0,0,0-.16-.21,1.52,1.52,0,0,0-.31-.2l.93.1.31-.21a6.29,6.29,0,0,1,1,.06,4.83,4.83,0,0,0,1.34-.16,26.88,26.88,0,0,0,4.12-1.65,37.57,37.57,0,0,0,3.4-1.65,3.74,3.74,0,0,1,.47-.31,10.51,10.51,0,0,1,.77-1.6,1.45,1.45,0,0,0,.26-.87,6.27,6.27,0,0,0-.15-1.24,1.6,1.6,0,0,0-.52-1,5.36,5.36,0,0,1-.88-.87l-.62-.42h.16a2.08,2.08,0,0,1,.41.16,4.85,4.85,0,0,0,1.14.26,5.34,5.34,0,0,1,1.39.36,4.28,4.28,0,0,0,1.23.31,3.69,3.69,0,0,1,1.4.46,7.06,7.06,0,0,1,1.23.82c.31.28.71.66,1.19,1.14.48-.21.88-.36,1.18-.47s.79-.22,1.45-.36a3.25,3.25,0,0,0,1.29-.46,1.08,1.08,0,0,1,.72-.26,1.46,1.46,0,0,0,.87-.36,1.53,1.53,0,0,1,.62-.36H397l.31-.41.42-.21.46.16a1.07,1.07,0,0,1,.41.36,1.29,1.29,0,0,0,.88.36,5.42,5.42,0,0,1,1.13.2,1.93,1.93,0,0,1,.62.26,1.18,1.18,0,0,0,.31.21l.31.31.31.1V311l.41.2-.1.31-.31.1v-.1l-.1.21.3.2v.21l.42.21.2.31-.41.41.52.1-.11.21.11.1-.31.21.31.31-.52.41a.67.67,0,0,1,.31.31l-.52.1-.1-.21-.2.31a1.3,1.3,0,0,1,.1.52l.2.1-.1.11h-.1l-.21.1-.2.1.1.31a1.23,1.23,0,0,0-.57.1.71.71,0,0,1-.41.11,1.68,1.68,0,0,0-.62.15,5,5,0,0,1-.82.26,4.27,4.27,0,0,0-.83.26,3.11,3.11,0,0,1-.62.2,3.27,3.27,0,0,0-.41.11,1.25,1.25,0,0,1-.36.05v.2h-.72v.21l-1,.46a2.68,2.68,0,0,1-.67.26l-.31.21a1.85,1.85,0,0,0-1.24.82c-.34.42-.65.83-.93,1.24L392,321l-.93,1.54h.52c.14,0,.22,0,.26.11s.15.13.36.2a.17.17,0,0,0,.15-.05.82.82,0,0,1,.31-.1,1.46,1.46,0,0,1,.72.1c.31.1.55.17.73.21a5.9,5.9,0,0,1,.61.15,2,2,0,0,1,.83.62,3.77,3.77,0,0,0,.82.72c.24.14.48.29.73.47l1.18.87a4.09,4.09,0,0,0,.67.72,1.43,1.43,0,0,1,.41.62,2,2,0,0,1,.16.72v.93a1.93,1.93,0,0,1,.56.21l.57.36a2.17,2.17,0,0,0,.83.31,1.76,1.76,0,0,1,.67.2c.17.11.46.26.87.47a3.23,3.23,0,0,1,.42.31l.36.41a.82.82,0,0,1,.2.67,1.24,1.24,0,0,0,.05.62.77.77,0,0,1,0,.56,4.72,4.72,0,0,1-.77,1.14,2,2,0,0,0-.62,1.24c0,.27,0,.44-.1.51a2.37,2.37,0,0,0-.46.52,1,1,0,0,1-.26-.05,1.38,1.38,0,0,0-.67.1l-1.55.46a1.36,1.36,0,0,1-.15.26,2.27,2.27,0,0,0,0,.82,9.48,9.48,0,0,1,.05,1.71c0,.61-.05,1-.05,1.13a.86.86,0,0,0,.1.41,6,6,0,0,1,.83-.15l2.32-.36a11.13,11.13,0,0,0,2.42-.57,2,2,0,0,1,.72-.26h.52l.51-.51,1.24-.11.41-.62a2.24,2.24,0,0,0,1.44.32l.11.1.1-.1v-.32l.1.32a2.18,2.18,0,0,0,.93.2l.41.41a8.82,8.82,0,0,0,1.6.67,1.46,1.46,0,0,1,.72.36,2.7,2.7,0,0,0,.67.52,2.86,2.86,0,0,0,.36.57.84.84,0,0,1,.16.61,2.33,2.33,0,0,1-.16.88,2,2,0,0,1-.56.78,1.43,1.43,0,0,0-.47.56,1.61,1.61,0,0,1-.1.31,3.09,3.09,0,0,0-.15.31,5.62,5.62,0,0,1-.73.31,5.12,5.12,0,0,0-1.44-.21l-.1.21a4.66,4.66,0,0,1-.88-.26,4,4,0,0,0-1.49-.1c-.76,0-1.76.14-3,.31a15.6,15.6,0,0,0-2.89.62,9.17,9.17,0,0,1-1.44.41c-.28,0-.59.09-.93.15a1.05,1.05,0,0,0-.62.26.48.48,0,0,1-.41.16c-.07,1-.12,1.66-.16,2.11a15.55,15.55,0,0,0,.05,2.06,18.75,18.75,0,0,1-.05,3.15,22.82,22.82,0,0,0-.05,3.4,4.74,4.74,0,0,1-.15,2.11,1.06,1.06,0,0,0-.16.83,1.09,1.09,0,0,1,0,.67.64.64,0,0,0,0,.51,1.06,1.06,0,0,1,0,.67,9.07,9.07,0,0,0-.15,1.45c0,.65-.11,1.82-.21,3.5a36.35,36.35,0,0,1-.41,4,3.85,3.85,0,0,1-.47,1.6.41.41,0,0,0-.2.31,4.5,4.5,0,0,1-.26.87,8.61,8.61,0,0,1-.57,1.29,2.53,2.53,0,0,0-.31.72.34.34,0,0,1-.1.26,2.4,2.4,0,0,0-.31.52v.1a7.19,7.19,0,0,1-.31.82C395.94,378,395.81,378.24,395.6,378.59Zm-5.67-54.44-.1.1a1.94,1.94,0,0,1-.21.47l-.57.82q-.46.68-.51.78c0,.07-.07.14-.1.2a1,1,0,0,1-.16.21,3.73,3.73,0,0,0-.31.41,2.4,2.4,0,0,0-.31.67,2.28,2.28,0,0,1-.31.67,2.76,2.76,0,0,0-.31.62,2,2,0,0,1-.36.62,1.9,1.9,0,0,0-.36.67,1.3,1.3,0,0,1-.31.57.55.55,0,0,0-.2.41.59.59,0,0,1-.21.41,1,1,0,0,0-.26.52,1.16,1.16,0,0,1-.2.51,2.76,2.76,0,0,0-.26.41h.31c.13,0,1.2-.29,3.19-.87s3.1-.91,3.3-1c0-1.38,0-2.32-.05-2.84a15.12,15.12,0,0,1,0-1.65,1.29,1.29,0,0,0-.46-1.23,1.68,1.68,0,0,1-.62-.62,3.75,3.75,0,0,0-.52-.78Z"/>
      </g>
      <g>
        <path d="M0,272.83V250.28H9.56a6.34,6.34,0,0,1,2.88.65,7.38,7.38,0,0,1,2.27,1.71,8,8,0,0,1,1.49,2.42,7.23,7.23,0,0,1,.54,2.71,8,8,0,0,1-.5,2.78,7.84,7.84,0,0,1-1.43,2.4,7.19,7.19,0,0,1-2.23,1.69,6.48,6.48,0,0,1-2.86.63H4.38v7.56Zm4.38-11.4H9.47a2.52,2.52,0,0,0,2-1,4.05,4.05,0,0,0,.81-2.67,4.4,4.4,0,0,0-.26-1.54,3.76,3.76,0,0,0-.67-1.16,2.67,2.67,0,0,0-1-.71,2.87,2.87,0,0,0-1.13-.24H4.38Z"/>
        <path d="M27.83,273a10.16,10.16,0,0,1-4.49-1,11,11,0,0,1-3.47-2.57,11.9,11.9,0,0,1-3-7.9,11.38,11.38,0,0,1,.84-4.32A11.88,11.88,0,0,1,20,253.58a11,11,0,0,1,3.51-2.53,10.52,10.52,0,0,1,4.42-.93,9.84,9.84,0,0,1,4.46,1,11.07,11.07,0,0,1,3.45,2.62,12.18,12.18,0,0,1,2.22,3.68,11.64,11.64,0,0,1,.8,4.2,11.39,11.39,0,0,1-.83,4.3,11.59,11.59,0,0,1-2.29,3.63,11.21,11.21,0,0,1-3.49,2.51A10.52,10.52,0,0,1,27.83,273Zm-6.54-11.44a9,9,0,0,0,.44,2.83A7.7,7.7,0,0,0,23,266.8a6.35,6.35,0,0,0,2.06,1.68,6,6,0,0,0,2.78.64,5.92,5.92,0,0,0,2.81-.65,6.46,6.46,0,0,0,2.07-1.74A7.62,7.62,0,0,0,34,264.3a8.88,8.88,0,0,0,.43-2.75,8.68,8.68,0,0,0-.46-2.82,7.93,7.93,0,0,0-1.3-2.42,6.26,6.26,0,0,0-2.07-1.67,6,6,0,0,0-2.75-.61,5.87,5.87,0,0,0-2.82.65A6.17,6.17,0,0,0,23,256.39a7.62,7.62,0,0,0-1.25,2.42A8.86,8.86,0,0,0,21.29,261.55Z"/>
        <path d="M40.64,272.83V250.28H45V269h11.5v3.84Z"/>
        <path d="M57.6,272.83V250.28H62v22.55Z"/>
        <path d="M82,254.12H74.76v18.71H70.41V254.12H63.19v-3.84H82Z"/>
        <path d="M83.18,272.83V250.28h4.38v22.55Z"/>
        <path d="M89.31,261.4a11.68,11.68,0,0,1,.75-4.09,10.95,10.95,0,0,1,5.67-6.18,10.85,10.85,0,0,1,4.7-1,10.15,10.15,0,0,1,5.38,1.37,8.68,8.68,0,0,1,3.39,3.55l-3.37,2.32a5.91,5.91,0,0,0-1.08-1.6,5.08,5.08,0,0,0-1.37-1,5.91,5.91,0,0,0-1.52-.56,7,7,0,0,0-1.56-.17,5.93,5.93,0,0,0-2.87.66,6.36,6.36,0,0,0-2,1.73,7.76,7.76,0,0,0-1.22,2.42,9,9,0,0,0,.06,5.56,7.77,7.77,0,0,0,1.35,2.43,6.84,6.84,0,0,0,2.1,1.68,5.68,5.68,0,0,0,2.69.64A7.47,7.47,0,0,0,102,269a6.08,6.08,0,0,0,1.58-.61,6.2,6.2,0,0,0,1.38-1.06,5.07,5.07,0,0,0,1-1.57l3.59,2.06A6.79,6.79,0,0,1,108,270a10,10,0,0,1-2.26,1.64,11.57,11.57,0,0,1-2.69,1,11.34,11.34,0,0,1-2.79.35,9.61,9.61,0,0,1-4.42-1,11.52,11.52,0,0,1-3.44-2.65,12.29,12.29,0,0,1-2.26-3.72A11.61,11.61,0,0,1,89.31,261.4Z"/>
        <path d="M117,250.28h3.88l8.58,22.55h-4.52l-2.09-5.62H115l-2.07,5.62h-4.51Zm5,13.85-3.11-8.87-3.24,8.87Z"/>
        <path d="M130.33,272.83V250.28h4.38V269h11.5v3.84Z"/>
        <path d="M152.47,272.83V250.31h4.38V261l9.47-10.73h4.83l-8.64,10,9.18,12.55h-4.92l-7-9.75-2.9,3v6.73Z"/>
        <path d="M176.52,258.38v14.45h-4.38V250.28h3.4l11.75,14.8V250.31h4.39v22.52h-3.56Z"/>
        <path d="M204.42,273a10.2,10.2,0,0,1-4.5-1,10.94,10.94,0,0,1-3.46-2.57,12,12,0,0,1-3-7.9,11.2,11.2,0,0,1,.85-4.32,12,12,0,0,1,2.31-3.65,11.19,11.19,0,0,1,3.52-2.53,10.44,10.44,0,0,1,4.41-.93,9.91,9.91,0,0,1,4.47,1,11,11,0,0,1,3.44,2.62,12,12,0,0,1,2.23,3.68,11.62,11.62,0,0,1,.79,4.2,11.38,11.38,0,0,1-.82,4.3,12,12,0,0,1-2.29,3.63,11.25,11.25,0,0,1-3.5,2.51A10.47,10.47,0,0,1,204.42,273Zm-6.55-11.44a9,9,0,0,0,.45,2.83,7.48,7.48,0,0,0,1.28,2.42,6.29,6.29,0,0,0,2.07,1.68,6.38,6.38,0,0,0,5.59,0,6.57,6.57,0,0,0,2.07-1.74,7.83,7.83,0,0,0,1.27-2.43,9.17,9.17,0,0,0,.42-2.75,8.68,8.68,0,0,0-.46-2.82,7.72,7.72,0,0,0-1.3-2.42,6.32,6.32,0,0,0-2.06-1.67,6.07,6.07,0,0,0-2.75-.61,5.94,5.94,0,0,0-2.83.65,6.13,6.13,0,0,0-2.06,1.71,7.64,7.64,0,0,0-1.26,2.42A8.86,8.86,0,0,0,197.87,261.55Z"/>
        <path d="M224.18,250.34h4l2.55,7.47,2.54-7.47h4.06l-3.84,10.26,2.86,7.21,6.39-17.53h4.76l-9.18,22.55h-3.69l-3.9-9.46-3.91,9.46h-3.69L214,250.28h4.71l6.41,17.53,2.8-7.21Z"/>
        <path d="M248.26,272.83V250.28h4.39V269h11.5v3.84Z"/>
        <path d="M280.89,269v3.84H265.23V250.28H280.6v3.84h-11v5.43h9.5v3.56h-9.5V269Z"/>
        <path d="M282.73,272.83V250.28h8.2a12.17,12.17,0,0,1,4.85.89,9.69,9.69,0,0,1,5.57,6,13.39,13.39,0,0,1,.7,4.37,13.2,13.2,0,0,1-.78,4.66,9.9,9.9,0,0,1-2.24,3.56,10.06,10.06,0,0,1-3.51,2.28,12.35,12.35,0,0,1-4.59.81Zm14.9-11.31a9.46,9.46,0,0,0-.44-3,6.7,6.7,0,0,0-1.3-2.35,5.75,5.75,0,0,0-2.12-1.53,7.09,7.09,0,0,0-2.84-.54h-3.81V269h3.81a6.92,6.92,0,0,0,2.88-.57,5.88,5.88,0,0,0,2.09-1.58,7,7,0,0,0,1.29-2.36A9.42,9.42,0,0,0,297.63,261.52Z"/>
        <path d="M319.56,270.29a8.63,8.63,0,0,1-6.29,2.7,9.84,9.84,0,0,1-4.18-.89,10.61,10.61,0,0,1-3.4-2.44A11.57,11.57,0,0,1,303.4,266a12.24,12.24,0,0,1-.84-4.56A11.27,11.27,0,0,1,309.2,251a11.43,11.43,0,0,1,9.8.43,8.68,8.68,0,0,1,3.42,3.59l-3.28,2.42a6.1,6.1,0,0,0-2.39-2.58,6.65,6.65,0,0,0-3.36-.89,5.65,5.65,0,0,0-2.62.61,6.11,6.11,0,0,0-2,1.65,7.67,7.67,0,0,0-1.3,2.41,8.93,8.93,0,0,0-.46,2.89,8.59,8.59,0,0,0,.5,3,7.54,7.54,0,0,0,1.4,2.39,6.52,6.52,0,0,0,2.11,1.61,6.1,6.1,0,0,0,2.66.59,7.69,7.69,0,0,0,5.91-3.09v-1.58H315v-3.21h8.17v11.59h-3.62Z"/>
        <path d="M341,269v3.84H325.34V250.28h15.38v3.84h-11v5.43h9.5v3.56h-9.5V269Z"/>
        <path d="M367.05,267a5.31,5.31,0,0,1-.57,2.51,5.24,5.24,0,0,1-1.57,1.81,7.23,7.23,0,0,1-2.32,1.11,9.89,9.89,0,0,1-2.81.38h-10.9V250.28H361a4.52,4.52,0,0,1,2.13.5,5.23,5.23,0,0,1,1.62,1.32,6.17,6.17,0,0,1,1,1.84,6.34,6.34,0,0,1,.36,2.09,6.11,6.11,0,0,1-.82,3.09,5.08,5.08,0,0,1-2.42,2.15,5.81,5.81,0,0,1,3.07,2.05A5.92,5.92,0,0,1,367.05,267Zm-13.78-13v5.68h5.84A2.6,2.6,0,0,0,361,259a2.81,2.81,0,0,0,.78-2.1,2.91,2.91,0,0,0-.71-2.06,2.33,2.33,0,0,0-1.77-.76Zm9.37,12.16a3.26,3.26,0,0,0-.21-1.16,3.21,3.21,0,0,0-.55-1,2.63,2.63,0,0,0-.83-.66,2.31,2.31,0,0,0-1.05-.23h-6.73v5.94h6.51a2.85,2.85,0,0,0,1.13-.23,2.46,2.46,0,0,0,.9-.62,2.84,2.84,0,0,0,.61-.93A3.14,3.14,0,0,0,362.64,266.19Z"/>
        <path d="M374.84,250.28h3.87l8.58,22.55h-4.51l-2.1-5.62h-7.87l-2.07,5.62h-4.51Zm5.05,13.85-3.11-8.87-3.24,8.87Z"/>
        <path d="M401.27,256.19a5.86,5.86,0,0,0-.81-.61,11,11,0,0,0-1.43-.75,12.94,12.94,0,0,0-1.82-.61,8,8,0,0,0-2-.26,4.48,4.48,0,0,0-2.7.67,2.21,2.21,0,0,0-.89,1.87,1.92,1.92,0,0,0,.34,1.16,2.74,2.74,0,0,0,1,.81,7.7,7.7,0,0,0,1.6.64c.65.19,1.39.39,2.24.6,1.1.3,2.1.62,3,1a8.09,8.09,0,0,1,2.29,1.28,5.11,5.11,0,0,1,1.45,1.82,6.06,6.06,0,0,1,.51,2.62,6.48,6.48,0,0,1-.69,3.1,5.69,5.69,0,0,1-1.84,2.08,7.87,7.87,0,0,1-2.67,1.16,13.09,13.09,0,0,1-3.16.37,16.9,16.9,0,0,1-5-.77,15.08,15.08,0,0,1-4.45-2.16l1.94-3.78a6.12,6.12,0,0,0,1,.75,15.94,15.94,0,0,0,1.77.92,13.17,13.17,0,0,0,2.25.78,10.28,10.28,0,0,0,2.54.32c2.42,0,3.62-.77,3.62-2.32a1.87,1.87,0,0,0-.41-1.24,3.44,3.44,0,0,0-1.17-.89,11.64,11.64,0,0,0-1.85-.7l-2.41-.7a19.41,19.41,0,0,1-2.81-1,7.27,7.27,0,0,1-2-1.24,4.47,4.47,0,0,1-1.19-1.65,5.61,5.61,0,0,1-.4-2.24,6.94,6.94,0,0,1,.64-3,6.1,6.1,0,0,1,1.76-2.22,7.94,7.94,0,0,1,2.62-1.35,10.78,10.78,0,0,1,3.21-.46,12.68,12.68,0,0,1,4.39.74,16.27,16.27,0,0,1,3.49,1.77Z"/>
        <path d="M421.38,269v3.84H405.72V250.28H421.1v3.84h-11v5.43h9.5v3.56h-9.5V269Z"/>
      </g>
      <g>
        <path d="M274.55,14.91c-2.2.8-4.33,1.4-6.39,2.2-9.78,3.86-19.57,3.39-29.35,0A66.23,66.23,0,0,1,215.38,2.93c-1.06-1-2.13-1.87-3.33-2.93-1.93,1.66-3.72,3.33-5.65,4.86-9.72,8-20.5,13.38-33.15,14.77a35.64,35.64,0,0,1-15.64-1.73c-2.93-1-5.79-2-9.05-3.12-3,6.39-6.19,12.57-8.85,19a137.66,137.66,0,0,0-9,33.42,1.46,1.46,0,0,0,.8,1.73c2.33,1.33,4.59,2.59,6.79,4.12a21.56,21.56,0,0,1,4.06,3.66,5.45,5.45,0,0,1,.8,6.33A17.77,17.77,0,0,1,137,90.12c-2.46,1.73-5,3.19-7.58,4.72a1.85,1.85,0,0,0-1.07,1.93c.8,38.14,16.11,69.49,44.59,94.51a138.54,138.54,0,0,0,37.74,24,3.26,3.26,0,0,0,2.73,0c19.3-8.32,35.68-20.7,49.65-36.34a123,123,0,0,0,29.29-58.44,138.6,138.6,0,0,0,2.39-24,2.27,2.27,0,0,0-1-1.59c-2.66-1.8-5.45-3.26-8-5.2a21.9,21.9,0,0,1-4.73-5.19c-2.39-3.46-2.06-6.25,1-9.11a35.68,35.68,0,0,1,4.73-3.6A43.6,43.6,0,0,1,291.66,69a1.59,1.59,0,0,0,.86-1.86,144.19,144.19,0,0,0-14.38-45.53C276.88,19.43,275.75,17.24,274.55,14.91Zm14.71,87.25a117.46,117.46,0,0,1-10.72,43.73c-8.05,17.31-19.7,31.75-34.27,43.93a130.45,130.45,0,0,1-30.75,19.57,3.14,3.14,0,0,1-2.86,0A132.52,132.52,0,0,1,184.77,194c-16.44-12.38-29.76-27.43-38.94-46a117,117,0,0,1-12-47.53,2.67,2.67,0,0,1,1.66-2.92,29.54,29.54,0,0,0,11.32-10.05c3.79-6,3.06-11.72-2.27-16.44a43,43,0,0,0-6.45-4.53,2.48,2.48,0,0,1-1.4-3,135.07,135.07,0,0,1,13.65-40.07c1.19-2.26.59-2.13,3.06-1.2a44.68,44.68,0,0,0,25.55,2A69.37,69.37,0,0,0,210.79,8.12c1-.87,1.6-.8,2.46.07A68.39,68.39,0,0,0,232.69,20.5c8.12,3.46,16.57,5.39,25.42,4.53a46.15,46.15,0,0,0,12.58-3.13c1-.4,1.4-.14,1.86.73a136.63,136.63,0,0,1,13.91,41.26,2,2,0,0,1-1.13,2.4,55.46,55.46,0,0,0-6.79,4.86c-5.19,4.72-5.79,10.38-2.06,16.37a25,25,0,0,0,9.58,9C288.86,98,290.19,99.64,289.26,102.16Z"/>
        <path d="M212.05,13.38c-17.5,12.84-36.2,20.5-58.63,13.84-2,4.79-4.26,9.59-5.93,14.51-2.06,6.32-3.59,12.78-5.39,19.17-.33,1.2.14,1.73,1.07,2.4A48.53,48.53,0,0,1,150,69.22c4.73,5.46,5.39,11.65,2.27,18.17-2.67,5.52-7.06,9.58-12.25,12.78a1.88,1.88,0,0,0-1.07,2.06c1.8,30.28,14.38,55.58,36.08,76.47a135.88,135.88,0,0,0,35.41,24.7,3.35,3.35,0,0,0,3.26,0c26.55-13.51,47.39-32.82,60.36-59.9a109.35,109.35,0,0,0,10.12-38.61c.27-2.79-.27-4.46-2.79-6a26.67,26.67,0,0,1-9.32-9.72c-4.46-7.45-3.6-15.24,2.59-21.37a53.72,53.72,0,0,1,6-4.79,1.31,1.31,0,0,0,.67-1.53,133.41,133.41,0,0,0-11-33.34c-.33-.67-.67-.93-1.46-.67-14,4.53-27.36,2.13-40.34-4A95.78,95.78,0,0,1,220,18.77C217.24,17.11,214.72,15.17,212.05,13.38ZM243.67,64a48.18,48.18,0,0,0-2.53-16.7c-.67-1.74-.27-2.93,1.06-3.53s2.67.06,3.2,1.79A95.34,95.34,0,0,1,247.66,55c.47,2.86.53,5.79.8,8.79h4.19c.07-.2.14-.27.14-.4,0-.47.06-.93.06-1.47a54.67,54.67,0,0,1,2.86-16.7,2.31,2.31,0,0,1,2.93-1.67c1.33.47,1.8,1.6,1.47,3.2-.8,3.13-1.6,6.26-2.13,9.38-.4,2.47-.4,5.06-.6,7.72h3.93a2.27,2.27,0,1,1,0,4.53H253v9.92h7.92c1.79,0,2.86.86,2.86,2.33s-1.07,2.26-2.8,2.26c-2.19,0-4.32.07-6.52,0-1.2-.07-1.73.27-1.66,1.6.13,2.33,0,4.72,0,7V94a3.22,3.22,0,0,0,.46.2c2.53,0,5,0,7.52.07,1.8,0,2.93.87,2.93,2.26s-1.06,2.33-2.86,2.33c-2.2,0-4.33.07-6.52,0-1.33-.06-1.6.4-1.6,1.67.07,8.52,0,17,0,25.55v1.47a2.3,2.3,0,0,1-2.4,2.2,2.33,2.33,0,0,1-2.19-2.27,8.42,8.42,0,0,1,0-1.33V98.9h-8.26c-1.66,0-2.72-1-2.66-2.39s1.07-2.2,2.66-2.27h8.32c0-3.39-.06-6.58,0-9.71.07-1.27-.33-1.67-1.59-1.67-2.33.07-4.73.07-7.06,0a2.21,2.21,0,0,1-2.26-2.33,2.35,2.35,0,0,1,2.33-2.26,16.49,16.49,0,0,1,1.86,0h6.66V68.42c-.54,0-1.07-.07-1.6-.07h-6.39c-1.86,0-2.93-.86-2.93-2.26s1.07-2.26,2.86-2.33A20.62,20.62,0,0,0,243.67,64Zm-53.38.67c-.13,0-.33.06-.47.06-.26,4.13-.66,8.19-.8,12.32a164.35,164.35,0,0,0,6.13,49.25c.53,1.86,0,3.13-1.4,3.53s-2.53-.4-3-2.2c-6.46-23.7-8.46-47.66-4.06-72,.59-3.39,1.53-6.72,2.46-10.11.53-2,2.73-2.66,3.86-1.13a3.65,3.65,0,0,1,.4,2.66c-.67,3.33-1.53,6.52-2.27,9.85a2.32,2.32,0,0,0,.27,1.8,23,23,0,0,1,4.86,8.12c3.46,8.91,4.72,18.3,5.72,27.75a2.27,2.27,0,0,1-2,2.8,2.37,2.37,0,0,1-2.6-2.33c-.27-1.93-.4-3.86-.66-5.73-.94-7-2.13-13.91-4.66-20.5A38.73,38.73,0,0,0,190.29,64.63Zm-17.84.26a3.12,3.12,0,0,1-.53-.2c-1.13,2.93-2.4,5.79-3.33,8.79a109.7,109.7,0,0,0-3.79,21.3c-.14,1.66-1.13,2.66-2.53,2.59a2.31,2.31,0,0,1-2.13-2.73c.8-7.72,1.8-15.37,4.06-22.83,1.46-4.79,3.26-9.45,6.92-13.17a1.67,1.67,0,0,0,.27-1.27q-1.09-5.29-2.2-10.58c-.33-1.53.27-2.73,1.6-3.06s2.33.33,2.86,1.79a12.47,12.47,0,0,1,.4,1.54,133.55,133.55,0,0,1,3.73,27.15,188.79,188.79,0,0,1-3.73,45.39c-.67,2.8-1.33,5.59-2,8.46a2.29,2.29,0,0,1-4.52-.27,5.47,5.47,0,0,1,.26-1.73A181.78,181.78,0,0,0,172.45,64.89Zm54.65-3.46c.13.07-.14,0,0,0-.8,6.86-1.2,13.71-2.07,20.5a104.46,104.46,0,0,0-.46,27.36c.79,5.85,1.66,11.71,2.46,17.57.2,1.59-.47,2.73-1.87,2.93a2.28,2.28,0,0,1-2.66-2.2c-1-6.72-2.06-13.45-2.79-20.17-1.13-10.45-.14-20.83,1.46-31.21a77.82,77.82,0,0,0,.73-23.3c-.26-2.06-.86-4.12-1.33-6.19-.4-1.53.14-2.73,1.47-3.13s2.33.27,2.93,1.67c.13.4.26.8.39,1.26A56.81,56.81,0,0,1,227.1,61.43Zm-29.89,92.65c-2.93-3.93-2.93-7.72-.07-10.45s8.19-2.93,11.32-.47a6.73,6.73,0,0,1,2.59,4.53,7.37,7.37,0,0,1-2.19,6.39,7.42,7.42,0,0,1,2.73,8.45c-.93,3.26-3.4,4.79-6.59,5.33a12.64,12.64,0,0,1-3.2.06c-3.52-.2-6.45-2.19-7.38-5.12A7.82,7.82,0,0,1,197.21,154.08Zm43.46-3.66h2.2c3.33.06,6.26,1,7.79,4.19a9.28,9.28,0,0,1-.87,9.85c-2.86,4-9.52,4.73-13.78,1.6a2.31,2.31,0,0,1-.93-1.8,3.24,3.24,0,0,1,1.67-1.73,2.5,2.5,0,0,1,1.86.47,7.32,7.32,0,0,0,5,.86c2.46-.46,3.86-2.53,3.73-5.39-.13-2.39-1.47-3.79-4.06-3.93a16.89,16.89,0,0,0-4,.4c-2.53.47-3.53-.46-3.07-2.92.54-2.8,1.07-5.6,1.47-8.39A2,2,0,0,1,240,141.7h8.65c1.66,0,2.2.47,2.26,1.8a2,2,0,0,1-2.06,2.39,28.55,28.55,0,0,1-3.46.07c-4.13,0-4.13,0-4.73,4.06Zm-16.5,7.45c-.6,0-.87-.06-1.2-.06-3.73-.14-6.52-2.13-7.46-5.46a8.22,8.22,0,0,1,3.13-9.32,9.2,9.2,0,0,1,10.78.33,8.74,8.74,0,0,1,2,10.59c-2.53,4.52-5.59,8.78-8.52,13-.6.93-3.06,1.2-3.86.47-1.26-1.13-.2-2,.4-2.87C221,162.4,222.5,160.2,224.17,157.87ZM182.5,163.8V148.16c-1.13.93-2,1.79-3,2.52a1.81,1.81,0,0,1-2.67-.46c-.73-.93-.86-1.8.14-2.66,2-1.73,4-3.46,5.92-5.26.93-.87,2.06-1.2,3-.53a3.1,3.1,0,0,1,.93,2.33c.06,5.52.06,11,.06,16.57,0,3,0,3,3,3.06,1.53.07,2.06.53,2.06,1.93s-.46,2-2,2c-3.6.06-7.19,0-10.85,0a1.7,1.7,0,0,1-1.93-1.93c0-1.4.6-2,2.06-2C180.31,163.8,181.37,163.8,182.5,163.8Zm34.88-44.73.06.27c-.59.73-1,1.79-1.73,2.13a3.05,3.05,0,0,1-2.46-.47c-.53-.33-.73-1.33-.8-2.06a172.69,172.69,0,0,1-1.13-29.29q.1-2.9.4-5.79a2.15,2.15,0,0,1,2.46-1.93,2.29,2.29,0,0,1,2.07,2.4v.86c-.07,7.12-.34,14.25-.2,21.37C216.05,110.75,217.05,114.88,217.38,119.07Zm10.31-25.16V84.39a2.07,2.07,0,0,1,1.67-2.26,2.93,2.93,0,0,1,2.33.67,3.51,3.51,0,0,1,.6,2.26,180.63,180.63,0,0,0,1.06,26.82c.27,2.2.67,4.39.93,6.59a2.25,2.25,0,0,1-1.79,2.8,2.29,2.29,0,0,1-2.67-2c-.06-.4-.2-.87-.26-1.27A123.42,123.42,0,0,1,227.69,93.91Zm7.86-32.41c-.07,1.66-.2,3.59-.27,5.59-.06.6-.13,1.26-.2,1.86-.2,1.87-1.13,2.8-2.53,2.66s-2.13-1.26-2-3.06c.6-7.45.86-14.84-1.87-22a2.13,2.13,0,0,1,1.33-2.8,2.11,2.11,0,0,1,2.8,1.07,9.57,9.57,0,0,1,.8,1.86C235.15,51.38,235.48,56.24,235.55,61.5Zm-20.9.46c-.13-5.45-.27-10.45-2-15.3a2.26,2.26,0,0,1,4.2-1.67,9,9,0,0,1,.73,2.2c1.93,7.39,1.73,14.91,1.13,22.43a2.21,2.21,0,0,1-2.46,2.06,2.38,2.38,0,0,1-2.07-2.79C214.38,66.42,214.52,64,214.65,62Z"/>
        <path d="M203.07,156.28c-2.73,0-4.39,1.33-4.53,3.59-.2,2.66,1.53,4.26,4.59,4.26s4.8-1.67,4.66-4.26C207.59,157.54,205.86,156.21,203.07,156.28Z"/>
        <path d="M203,145.36c-2.33,0-3.79,1.4-3.79,3.46s1.53,3.46,3.92,3.46,3.8-1.26,3.8-3.53S205.46,145.29,203,145.36Z"/>
        <path d="M219.37,149.62c0,2.66,1.54,4.26,4.2,4.26a4.23,4.23,0,0,0,4.46-4.13,4.15,4.15,0,0,0-4.26-4.46A4.22,4.22,0,0,0,219.37,149.62Z"/>
      </g>
    </g>
  </g>
</svg>
