<svg xmlns="http://www.w3.org/2000/svg" viewBox="0 0 534 141.61">
  <title>资源 3</title>
  <g id="图层_2" data-name="图层 2">
    <g id="图层_1-2" data-name="图层 1">
      <g>
        <path d="M123.93,100.15a2.26,2.26,0,0,0,.21.56,2.24,2.24,0,0,1,.21.93,5,5,0,0,0,.41,1.55,17.38,17.38,0,0,1,.72,3.55c.21,1.65.31,2.67.31,3.05a4,4,0,0,0,.1,1,2.3,2.3,0,0,1,0,1,7.28,7.28,0,0,0,0,1.55,13.49,13.49,0,0,1,0,1.8,9.08,9.08,0,0,0,0,1.29,7.25,7.25,0,0,1,0,.93,2.4,2.4,0,0,1-.2.93,5.67,5.67,0,0,1-.31.62,2.76,2.76,0,0,1-.31.36,2.85,2.85,0,0,0-.47.2c-.1.07-.29.23-.56.47a2.13,2.13,0,0,1-1.08.46,7.5,7.5,0,0,1-1,.11,2,2,0,0,1-.56-.06,1.77,1.77,0,0,1-.42-.15,3.72,3.72,0,0,0-.77-.88.55.55,0,0,1-.26-.51.7.7,0,0,0-.25-.57.55.55,0,0,1-.21-.57,2.35,2.35,0,0,0-.21-1,4,4,0,0,1-.25-1.44c0-.52-.11-.84-.31-1s-.31-.27-.31-.41a.42.42,0,0,0-.11-.31.46.46,0,0,1-.1-.31l.31-.1.1-.31c-.07-.35-.12-.6-.15-.78a2.13,2.13,0,0,1,0-.72.94.94,0,0,1,.31-.67,2.41,2.41,0,0,0,.51-.62,14,14,0,0,0,.83-1.85,25.31,25.31,0,0,1,1.6-3.25c.68-1.2,1.2-2.1,1.54-2.68a4.22,4.22,0,0,0,.57-1.24C123.81,100.78,123.87,100.49,123.93,100.15Zm44.34-54.33h1.08a1,1,0,0,1,.62.2.75.75,0,0,0,.46.21.54.54,0,0,1,.41.26,6.21,6.21,0,0,0,.83.77,1.38,1.38,0,0,0,.36.41q.15.11.15.21a1.78,1.78,0,0,0,.11.41,4.42,4.42,0,0,1,.51.21,2.1,2.1,0,0,1,.47.36.78.78,0,0,0,.56.25.63.63,0,0,1,.52.31,1,1,0,0,0,.56.42,2,2,0,0,1,.52.2l.57.41.1.42a14,14,0,0,0,1.44,1.44,5.73,5.73,0,0,0,.78,1.29.53.53,0,0,1,.1.62,1.68,1.68,0,0,0-.15.62,1.73,1.73,0,0,1-.11.56c-.07.21-.15.59-.26,1.14a3.85,3.85,0,0,1-.36,1.18,1.18,1.18,0,0,0-.15.78,3.85,3.85,0,0,1-.26,1.39,4.08,4.08,0,0,0-.26,1.49,2.57,2.57,0,0,1-.2,1.19,5,5,0,0,1-.47,1,1.06,1.06,0,0,0-.2.62.59.59,0,0,1-.11.41.34.34,0,0,0-.1.26.47.47,0,0,1-.15.31,2.32,2.32,0,0,0-.31,1,1.77,1.77,0,0,1-.52,1.13,1.13,1.13,0,0,0-.36,1c0,.48,0,.74-.1.77a1,1,0,0,0-.21.16,12.61,12.61,0,0,1-.46,1.75L173.06,73c-.1.35-.19.62-.26.83s-.14.37-.2.51a3.52,3.52,0,0,0-.21.57c-.07.24-.24.81-.52,1.7a21.05,21.05,0,0,1-.82,2.27l-.21.1.11.1-.52,1L169.5,82l-.1.1a1,1,0,0,0-.21.47.69.69,0,0,1-.25.41,1,1,0,0,0-.31.52.76.76,0,0,1-.16.36l-.31.31-.2.1v.21c0,.07-.09.2-.26.41a8.5,8.5,0,0,0-.83,1.6,11.07,11.07,0,0,1-.87,1.7,6,6,0,0,0-.62,1l2.16-1.08a18.35,18.35,0,0,1,2.37-1,2.19,2.19,0,0,1,1.14-.15,1.26,1.26,0,0,0,.82-.1,9.78,9.78,0,0,1,1.91-.42c.93-.13,1.53-.24,1.8-.3l-.3-.31a3.08,3.08,0,0,1-1,.05,1.57,1.57,0,0,0-.78,0v-.1q1-.21,1.65-.36c.41-.11.93-.21,1.55-.31a7.82,7.82,0,0,1,2-.06c.72.07,1.36.16,1.91.26a6.21,6.21,0,0,0,1.59.11,7.25,7.25,0,0,1,2.07.25,8.83,8.83,0,0,1,1.85.62,5,5,0,0,0,1.24.47,3.88,3.88,0,0,1,1.44.72c.52.37,1,.75,1.45,1.13a26,26,0,0,1,1.9,1.91c.28.41.47.69.57.82s.21.3.31.47a4.13,4.13,0,0,0,.41.56,4,4,0,0,1,.52,1,3.35,3.35,0,0,1,.15,1.55,2,2,0,0,1-.36,1.08,1.21,1.21,0,0,0-.31.47,2,2,0,0,0-.05.26V97l-.1.41c-.42.35-.71.61-.88.78a1,1,0,0,1-.51.3,1.78,1.78,0,0,0-.57.26l-.21.21a3.29,3.29,0,0,1-.67.15,4.74,4.74,0,0,1-1.08,0,3.71,3.71,0,0,1-1.19-.25,1.94,1.94,0,0,0-.77-.21.81.81,0,0,1-.46-.1.54.54,0,0,0-.26-.11h-.21L186.2,98c-.48-.27-.86-.5-1.13-.67a1.84,1.84,0,0,0-1-.26,4.67,4.67,0,0,1-1-.1,1.25,1.25,0,0,1-.62-.26.76.76,0,0,0-.41-.2l-.57-.11a.62.62,0,0,0-.51.11,1.16,1.16,0,0,1-.47.2l-1,.26a3.57,3.57,0,0,0-1.24.57c-.31.24-.56.31-.77.2a1,1,0,0,0-.62-.1,2.27,2.27,0,0,0-.62.21l-.62.31-.41.2a.64.64,0,0,1-.31,0,7.24,7.24,0,0,0,1.19-1.29,29.25,29.25,0,0,0,2-2.68,19.43,19.43,0,0,0,1.49-2.57,5.21,5.21,0,0,0,.57-1.5,3,3,0,0,1,.1-.72l-.72-.72-1.34-.62-.31-.41a10.49,10.49,0,0,1-1-.41,3,3,0,0,0-1.18-.26,12.88,12.88,0,0,0-1.76,0,10.34,10.34,0,0,0-2.16.36,16.78,16.78,0,0,0-2.48.87c-.86.38-1.53.71-2,1l-1.44.83a6.68,6.68,0,0,0-1.18.82,12.51,12.51,0,0,1-1.4,1l-.82.93-1.14.93-.61.93.2.31a8.89,8.89,0,0,0,.88.62,4.55,4.55,0,0,1,.72.51,5.33,5.33,0,0,0,.62.47,2.28,2.28,0,0,1,.46.36l.72.72,2.68,2.68a4.11,4.11,0,0,1,.68.62.5.5,0,0,0,.51.15c.24,0,.5.14.77.52a2.18,2.18,0,0,0,.57.62,2.33,2.33,0,0,1,.36.15l.21.31h.2l.11.1.62.31v.1a3.16,3.16,0,0,0,.51.31l.21.31a.77.77,0,0,0,.31.11,1.23,1.23,0,0,1,.46.31,7.22,7.22,0,0,0,.77.56c.28.18.66.4,1.14.67l.1.21.21.1.1.11.21.2.2.31a.54.54,0,0,1,.21,0,2.76,2.76,0,0,1,.36.26c.17.14.43.38.77.72l.31.31h.31c.07,0,.21.1.41.31a1.66,1.66,0,0,0,.57.41,1.44,1.44,0,0,1,.46.31,2.22,2.22,0,0,0,.67.41,6.2,6.2,0,0,1,.93.52,2.76,2.76,0,0,0,.88.41l.1.11h.26s.07,0,.1.1a.36.36,0,0,0,.26.15l.52.16.2.2.83.42a.66.66,0,0,0,.31.72l.61.31-.2.72.15.15a.66.66,0,0,1,.11.21,1.28,1.28,0,0,0,.1.26,1.32,1.32,0,0,0,.26.31l.41.1-.93.52-.31,1.44.31.31a.25.25,0,0,0,0,.41,1.26,1.26,0,0,0-.41,1.13l-.41.52-.31.1-.21.21-.51.21-.21.1-.93.36-1.8.67a6.84,6.84,0,0,1-2,.51,1.49,1.49,0,0,0-.72.11.86.86,0,0,1-.47.1,1.63,1.63,0,0,0-.67.16,2,2,0,0,1-.77.15,6.13,6.13,0,0,0-1.29.21,6.74,6.74,0,0,1-1.34.2,13.81,13.81,0,0,0-1.65.16,4.86,4.86,0,0,1-1.54.05.93.93,0,0,0-.62,0,1.24,1.24,0,0,1-.72,0,3.73,3.73,0,0,0-1.14-.05,14.5,14.5,0,0,1-2.37-.16c-1.13-.14-2.29-.29-3.45-.46a19.29,19.29,0,0,1-3.66-.93c-1.28-.45-2.2-.81-2.79-1.08s-1-.47-1.23-.57a2.44,2.44,0,0,1-.78-.57,19.73,19.73,0,0,0-3-1.8,29.77,29.77,0,0,1-3.91-2.42,25.41,25.41,0,0,1-2.38-2.06c-2.4-2.68-4.07-4.63-5-5.83a17.49,17.49,0,0,1-2.26-3.87q-.88-2.05-3.46-7.21A23.76,23.76,0,0,1,134.76,97l1.65,2,1.44,1.24,1.86,1.95,1,.93,2.47,2.48,1.6,1.44a20.82,20.82,0,0,0,3.15,1.91,41.63,41.63,0,0,0,5,2.32,30.88,30.88,0,0,0,4.58,1.39c1.45.31,2.75.55,3.92.72a24,24,0,0,0,3.45.26,22,22,0,0,0,3.36-.26c1.09-.17,1.88-.31,2.37-.41s1.13-.26,2-.47a6.94,6.94,0,0,1-.16-.72,7.13,7.13,0,0,0-.62-1.39,31.6,31.6,0,0,0-1.7-2.78c-.76-1.14-2.08-2.92-4-5.36s-3.13-4-3.71-4.59a19.35,19.35,0,0,1-1.8-2.27l-.42-.1-.41.51-.72.62a.29.29,0,0,0,.1.21c.07.07.07.15,0,.26a1,1,0,0,0-.15.36,2.78,2.78,0,0,0,0,.67,2.62,2.62,0,0,0,.67,1.34,7.3,7.3,0,0,1,.82,1.23.93.93,0,0,1,.1.57,1.73,1.73,0,0,0,.06.67.83.83,0,0,1-.06.67,1.73,1.73,0,0,0-.25.62l-.83.62-.2.31a11.07,11.07,0,0,0-1.09.51,2.17,2.17,0,0,1-.92.26,2.78,2.78,0,0,1-.83,0,4.05,4.05,0,0,1-.57-.15l-.31-.21a.76.76,0,0,0-.36-.1.62.62,0,0,1-.36-.16l-.82-.57-1.65-3.09-.31-.2-.62-.73-1.24-1.13a11.44,11.44,0,0,0-1-1.34,1.07,1.07,0,0,1-.31-.77,1.69,1.69,0,0,1,.47-1,2,2,0,0,0,.51-1,2.1,2.1,0,0,1,.16-.62,3.33,3.33,0,0,1,.41-.62l.72-.62L152.8,90c0,.07,0,.11.1.11h.31a1.28,1.28,0,0,1,.47.1l.56.21a3,3,0,0,1,.52.2,5.69,5.69,0,0,1,.62.41,5.87,5.87,0,0,1,1.34,1.76h.36a9,9,0,0,0,1.44-.62c.86-.41,1.7-.78,2.53-1.08a19.54,19.54,0,0,0,1.85-.78q.63-.3,1.65-.72l.31-.41-.41-.21a2.87,2.87,0,0,0-.36.21,1.76,1.76,0,0,1-.72.15,2.43,2.43,0,0,0-1.29.72,4.63,4.63,0,0,1-1,.78,4.23,4.23,0,0,1-.67.2l.41-.2-.2-.21a5.62,5.62,0,0,1-.73.31,1.52,1.52,0,0,1-.72,0,1,1,0,0,1-.51-.15.37.37,0,0,0-.36-.05.69.69,0,0,1-.36,0l-.31-.16-.31-.41H157a2.1,2.1,0,0,1-.57-.26,4.8,4.8,0,0,1-.72-.46.78.78,0,0,0-.46-.21.62.62,0,0,1-.31,0,4.42,4.42,0,0,0-.52-.16,1.53,1.53,0,0,1-.1-.46.56.56,0,0,0-.11-.31,1.3,1.3,0,0,1-.15-.46c0-.21-.09-.55-.15-1a10.2,10.2,0,0,1-1.6.36,2.54,2.54,0,0,0-.88.2,3.37,3.37,0,0,1-.72.26c-.28.07-.89.28-1.86.62a29.74,29.74,0,0,0-3.66,1.7,16.17,16.17,0,0,1-3.5,1.5,5.79,5.79,0,0,1-1.6.25,1.63,1.63,0,0,0-.82.16l-.83.31-.62.2a1.09,1.09,0,0,1-.67,0l-.87-.2a5.16,5.16,0,0,1-1.24-.47,8.48,8.48,0,0,1-1.39-.87,5.66,5.66,0,0,0-1.34-.78,6.06,6.06,0,0,1-1.14-.56q-.47-.32-1.29-.93l-.72-.83-.51-.2-.21-.21c.14-.07.64-.27,1.5-.62s1.76-.75,2.73-1.23V85.2c0-.07-.09-.17-.26-.31a5,5,0,0,1-.67-.72l.15-.16a.48.48,0,0,0,.11-.15,2.84,2.84,0,0,0-.26-1c-.21-.59-.82-2.6-1.86-6s-1.9-6.67-2.62-9.69-1.24-5.07-1.55-6.14a12.27,12.27,0,0,1-.52-2.58,1.78,1.78,0,0,0-.67-1.44c-.41-.31-.62-.5-.62-.57v-.2c.69.27,1.21.5,1.55.67a17.54,17.54,0,0,1,1.55.93c.68.44,1.32.84,1.91,1.18a3,3,0,0,0,1.33.52,1.45,1.45,0,0,1,1,.51,4.11,4.11,0,0,0,1.19.83,6,6,0,0,1,1.34.87c.45.38,1,.81,1.6,1.29l.36.52a6.88,6.88,0,0,1,.46.77,2,2,0,0,1,.31.83,1,1,0,0,0,.11.46,3.22,3.22,0,0,1,.15.82,7.51,7.51,0,0,0,.26,1.4,5.3,5.3,0,0,1,.2,1.18c0,.28,0,.72.11,1.34a4.1,4.1,0,0,0,.51.31,1.45,1.45,0,0,0,.62.1,3.54,3.54,0,0,0,1.24-.36,6.33,6.33,0,0,0,1.18-.62,3.62,3.62,0,0,1,.78-.41,9.38,9.38,0,0,0,1.08-.51q.67-.36,2.22-1.29c.2-1.45.36-2.46.46-3a17.31,17.31,0,0,0,.21-1.86,4.35,4.35,0,0,0-.06-1.29c-.06-.2-.13-.44-.2-.72H144.3a6,6,0,0,1-1-.1,4,4,0,0,1-1.55-.78c-.62-.44-2.23-1.35-4.85-2.73l-.82-.82L134,54.37l.41.11q-.1-.21.21-.42l-.21-.31a.85.85,0,0,0,.36.11c.1,0,.55-.07,1.34-.21a24.94,24.94,0,0,0,3.61-1.08q2.42-.89,6.08-2t8.1-2.17c2.95-.68,5.3-1.15,7.06-1.39a17.82,17.82,0,0,1,4-.21,8.65,8.65,0,0,0,1.6.11,2.66,2.66,0,0,0,.41-.16l.51-.62ZM138,74.27q.3,1.23.36,1.65a5.89,5.89,0,0,0,.15.82c.07.28.12.54.16.78a3.45,3.45,0,0,0,.15.67,1.87,1.87,0,0,1,.1.62,1.13,1.13,0,0,0,.11.51,1.15,1.15,0,0,1,.1.46,1.76,1.76,0,0,0,.1.57,4.38,4.38,0,0,1,.16.67c0,.24.07.45.1.62a2.63,2.63,0,0,1,.05.41c0,.11.07.19.21.26A36.31,36.31,0,0,0,144,80.76a22.55,22.55,0,0,1,.1-2.62,2.1,2.1,0,0,0,0-1.09,2.16,2.16,0,0,1-.15-.92,4.54,4.54,0,0,1-.78-.21,1.48,1.48,0,0,0-.57-.1,5.22,5.22,0,0,1-1-.16,5,5,0,0,1-1.24-.46c-.38-.21-.67-.38-.88-.52l-.51-.31a3.48,3.48,0,0,0-.62-.2ZM166.2,55a.4.4,0,0,1-.25-.05s-.19,0-.47.1a3.66,3.66,0,0,1-1,.21,2.18,2.18,0,0,0-1,.31,1.61,1.61,0,0,1-.87.26,1.81,1.81,0,0,0-.78.15,2.56,2.56,0,0,1-.82.21,2.3,2.3,0,0,0-1,.31,2.52,2.52,0,0,1-1,.3,3,3,0,0,0-1,.26,1.72,1.72,0,0,1-.77.21,1.43,1.43,0,0,0-.73.21,1.51,1.51,0,0,1-.72.2,1.12,1.12,0,0,0-.62.16.92.92,0,0,1-.46.15,2.28,2.28,0,0,0-.72.21l-.1.2.61.52a5.22,5.22,0,0,1,.78,1.29,8,8,0,0,0,.36.92c.13.31.24.57.31.78a2.39,2.39,0,0,0,.31.62h1.23a3.09,3.09,0,0,1,.67,0,1.24,1.24,0,0,0,.47,0,2.42,2.42,0,0,1,.62,0,1.15,1.15,0,0,1,.77.31c.24.2.63.51,1.18.92l.11.11.2.2a2.94,2.94,0,0,0,.62.52.37.37,0,0,1,.21.36.75.75,0,0,0,.15.46,1.69,1.69,0,0,1,.26.52,2,2,0,0,1,0,.93,4,4,0,0,1-.36,1.13,3,3,0,0,1-.41.67c-.11.1-.3.26-.57.46-.62.49-1.08.83-1.39,1a2.43,2.43,0,0,1-.72.37,1,1,0,0,0-.52.31,1.09,1.09,0,0,1-.56.31,2,2,0,0,0-.62.2,2.89,2.89,0,0,1-.57.21,7.71,7.71,0,0,0-.88.26c-.14.2-.25.37-.36.51a4.53,4.53,0,0,0-.41,1.08,12.78,12.78,0,0,0-.36,1.55,3,3,0,0,1-.31,1,2,2,0,0,0-.21.41v.16a1.7,1.7,0,0,0,1.24-.31c.34.27.64.5.88.67a1.52,1.52,0,0,0,1,.2,5.18,5.18,0,0,1,1,0l.36.06h.26a20.22,20.22,0,0,1,1.34-2.68,11.5,11.5,0,0,0,1-2.38q.56-1.74,1.65-5.31c.72-2.37,1.39-4.7,2-7a23.34,23.34,0,0,0,.87-3.86A3,3,0,0,1,166.2,55Z"/>
        <path d="M240.17,47.88a26.39,26.39,0,0,0,2.74.2c.58,0,1.09,0,1.54.06a3.72,3.72,0,0,1,1.34.36c.45.2,1,.46,1.5.77a13.69,13.69,0,0,1,1.39.88,7.79,7.79,0,0,0,.77.51,5.27,5.27,0,0,0,.83,1,2,2,0,0,1,.51.72,7.59,7.59,0,0,1,.36,1,3,3,0,0,1,.11,1.14,2.39,2.39,0,0,1-.36,1.08,3.41,3.41,0,0,0-.47,1.34,4.36,4.36,0,0,1-.67,1.65,2.47,2.47,0,0,0-.51,1.18,1.68,1.68,0,0,1-.37.93,3.26,3.26,0,0,0-.46.88,10,10,0,0,1-.67,1.44c-.38.72-.88,1.75-1.49,3.09a13.42,13.42,0,0,0-1,2.43,1,1,0,0,1-.26.61c-.14.14-.21.25-.21.31v.21a6.32,6.32,0,0,1,1.14-.46A24.44,24.44,0,0,0,249,67.41a27.81,27.81,0,0,1,3.87-2.11,4.87,4.87,0,0,0,1.44-.72,6.36,6.36,0,0,1,1.65-.83,7.8,7.8,0,0,0,2-1.08,2,2,0,0,1,.77-.51,1.56,1.56,0,0,0,.36-.11l.31-.15.1-.21h.21l.21-.41h.46a1.64,1.64,0,0,0,.47-.1,1.62,1.62,0,0,1,.51-.11l.21.31a.33.33,0,0,0,.25.11.81.81,0,0,1,.42.2.4.4,0,0,0,.46.1.35.35,0,0,1,.41.11.42.42,0,0,0,.42.15,2.94,2.94,0,0,1,.61,0,.76.76,0,0,1,.57.16,2.56,2.56,0,0,0,.41.31,5.41,5.41,0,0,0,.88.36,4.38,4.38,0,0,0,.62.67.92.92,0,0,1,.31.41,1.72,1.72,0,0,0,.26.46,1.39,1.39,0,0,1,.1.83,2.29,2.29,0,0,1-.57,1.23c-.34.42-.51.67-.51.78v.36a6.48,6.48,0,0,1-.93.62l-2.22,1a37.79,37.79,0,0,0-3.56,1.75,19.71,19.71,0,0,0-2.06,1.24,1.38,1.38,0,0,1-.56.31.9.9,0,0,0-.47.25,24.15,24.15,0,0,1-2.37,1.45,16,16,0,0,1-2.78,1.39,2.38,2.38,0,0,0-.93.41,1,1,0,0,1-.57.26.5.5,0,0,0-.41.2,2.7,2.7,0,0,1-1.08.52,4.42,4.42,0,0,1-1.91.21,4.19,4.19,0,0,1-1.91-.73,7.65,7.65,0,0,0-1.34-.77,3.39,3.39,0,0,1-.82-.46c-.14.2-.28.27-.41.2l.1.11-.31.72h-.21l-.2.2.2.11a1,1,0,0,0-.31.72l-.51.31.1.2-.51.42a6,6,0,0,0-.42.77,1.24,1.24,0,0,1-.25.41,1,1,0,0,0-.21.26,3.09,3.09,0,0,0-.15.31l-.31.2.2.11-.41.1a1.57,1.57,0,0,0-.1.47c0,.1-.16.32-.47.67a3.58,3.58,0,0,0-.62.87,1,1,0,0,1-.31.47.44.44,0,0,0-.2.25,5.06,5.06,0,0,1-.26.57,1.67,1.67,0,0,0,.52.1,7.29,7.29,0,0,1,1.23.36A13.32,13.32,0,0,1,241,85.35c.92.59,2.69,1.94,5.31,4.07a1.11,1.11,0,0,1,.2-.31,20.78,20.78,0,0,0,.78-2.68c.44-1.71.8-3.16,1.08-4.33a12.87,12.87,0,0,0,.41-2.62V78.24c0-.24,0-.4-.15-.47a2.11,2.11,0,0,1-.37-.3l.52.1-.31-.31h-.31l-.1-.1a4.37,4.37,0,0,0,.87.1,2.41,2.41,0,0,1,1.14.57c.51.37,1.1.86,1.75,1.44s1,.89,1.08.93a.54.54,0,0,0,.21,0c.27.41.5.72.67.93a2.85,2.85,0,0,1,.46.82,2.62,2.62,0,0,1,.21,1,5.88,5.88,0,0,0,.26,1.39,5.65,5.65,0,0,1-.36,2.89,17.76,17.76,0,0,0-.78,3.45,4.5,4.5,0,0,1-.56,2.06,2.45,2.45,0,0,0-.47.88q0,.31-.15.93l1.75,1.75a1.58,1.58,0,0,0,.41.31,16.09,16.09,0,0,1,1.7,1.6c1,1,2.15,2,3.46,3.14s2.4,2,3.3,2.68a10.09,10.09,0,0,0,2.57,1.5c.83.31,1.84.63,3.05,1s2.88.91,5.05,1.7,3.45,1.29,3.86,1.49l1.45.73a1,1,0,0,0,.05.41.48.48,0,0,0,.2.2,2.09,2.09,0,0,1,.42.47l.72,1a2.15,2.15,0,0,1,.41,1.39c0,.48-.07.83-.1,1a1.62,1.62,0,0,0,0,.62.49.49,0,0,1-.11.46.47.47,0,0,0-.15.31.38.38,0,0,1-.1.26,2.77,2.77,0,0,0-.31.41l-.93.31-.1.21a1.18,1.18,0,0,1-.42-.16.47.47,0,0,0-.51,0,1.69,1.69,0,0,1-.52.26,1.52,1.52,0,0,1-.72,0,5.2,5.2,0,0,0-1.13,0,5,5,0,0,1-1.81-.15,12.52,12.52,0,0,0-2.21-.31c-.76,0-1.31,0-1.65,0a4.4,4.4,0,0,1-1-.1,5.54,5.54,0,0,0-1.19-.11,8.51,8.51,0,0,1-1.13,0c-.28,0-.5,0-.67,0a1,1,0,0,1-.47-.1.54.54,0,0,0-.41,0,.77.77,0,0,1-.46-.06,1,1,0,0,0-.52,0,.5.5,0,0,1-.41,0,.54.54,0,0,0-.41,0,1.69,1.69,0,0,1-.83-.16,4.79,4.79,0,0,0-1.23-.25,6.6,6.6,0,0,1-1.86-.57,15.09,15.09,0,0,1-2.42-1.34,17.44,17.44,0,0,1-2.06-1.55,31,31,0,0,1-2.27-2.26c-.69-.83-1.26-1.48-1.7-2a58.26,58.26,0,0,1-3.56-5.16l-.31.21c-.82,1.1-1.65,2.09-2.47,3h-.21a18.33,18.33,0,0,1-1.65,1.65l-.31.31-.82.72c-.76.55-1.33.94-1.7,1.18a6.43,6.43,0,0,1-1.29.62,2.76,2.76,0,0,0-1,.52,1.23,1.23,0,0,1-.72.31,8.08,8.08,0,0,0-1.6.46l-.21-.1c-.27.07-1.06.2-2.37.41a8,8,0,0,1-2.06.21.25.25,0,0,0-.26-.06.55.55,0,0,1-.36,0,2.42,2.42,0,0,0-.67,0,2.34,2.34,0,0,1-.88,0,4.88,4.88,0,0,0-1.49,0,11.38,11.38,0,0,0-1.55.31l-1,.36a.15.15,0,0,1-.15-.1c0-.07-.16-.08-.36,0a1.16,1.16,0,0,0-.52.21,1.19,1.19,0,0,1-.56.2.58.58,0,0,1-.52-.1.52.52,0,0,0-.52,0,7.33,7.33,0,0,1-1.08.2l-.2-.1-.21-.41-1-.21.1-.1.1-.21-.51-.41a3.07,3.07,0,0,0,.77.1c.24,0,1.15-.1,2.73-.31a15.38,15.38,0,0,0,3.77-.87,28.14,28.14,0,0,0,4-2.27c1.75-1.13,2.94-1.91,3.55-2.32s1.12-.77,1.5-1.08.94-.84,1.7-1.6A92.14,92.14,0,0,0,243,96.54c-.07-.14-.09-.23-.05-.26a11.26,11.26,0,0,0-1.29-1.49q-1.35-1.46-4.54-5.16c-1-.89-1.74-1.51-2.11-1.86a5.07,5.07,0,0,0-1-.72,5.79,5.79,0,0,1-1.14-.82l-.2.31a2.18,2.18,0,0,1-.72-.11l-.42.31a.43.43,0,0,1-.31-.1.4.4,0,0,0-.3-.1,1.42,1.42,0,0,0-.68.36,1.43,1.43,0,0,1-.87.36,1.3,1.3,0,0,0-.67.15,2.34,2.34,0,0,1-.67.26,2.12,2.12,0,0,1-.83,0,1.89,1.89,0,0,0-.92.16,7.37,7.37,0,0,1-1.91.31q-1.4.11-1.65-.21c-.17-.21-.28-.29-.31-.26s-.12,0-.26,0v2.74a6.75,6.75,0,0,1-.1,1.29c-.07.34-.1.53-.1.56s0,.09-.11.16,0,.22.11.25a4,4,0,0,1,0,1.34,5.52,5.52,0,0,1-.21,1.45,2,2,0,0,0-.21.46.25.25,0,0,0,.05.16.18.18,0,0,1,.06.15v.41l1.34-.1.36-.57a.89.89,0,0,0,.15-.36l.41-.2.21-.52.93.1v-.3a3.87,3.87,0,0,1,1.24.2l.1-.2h.51a2,2,0,0,1,.52,0,1,1,0,0,1,.36.15A.24.24,0,0,0,228,95a.55.55,0,0,0,.2-.15,1.65,1.65,0,0,0,.31.26,2.91,2.91,0,0,0,.73,0c.41,0,.84,0,1.28,0a1.75,1.75,0,0,1,.88.21l.52.36.51.72v.15a1.8,1.8,0,0,0,.21.41,3.33,3.33,0,0,1,.31,1,1.74,1.74,0,0,1-.11,1,6.21,6.21,0,0,0-.41,1.34,2.34,2.34,0,0,0-.67.51.48.48,0,0,1-.41.21,1,1,0,0,0-.46.1,1.69,1.69,0,0,1-.52.15,2.85,2.85,0,0,1-.52.06h-.41a.61.61,0,0,0-.41.2,1.34,1.34,0,0,1-.62.31,1.73,1.73,0,0,0-.67.31,3.6,3.6,0,0,1-1,.46,12.68,12.68,0,0,0-1.85.93,10,10,0,0,1-1.76.88,5.26,5.26,0,0,0-1,.46,8.58,8.58,0,0,1-.82.47c-.28.13-.76.34-1.45.62l-.31.2-.3.1-.42.31-.2-.1c-.28.07-.52.14-.73.21a13.58,13.58,0,0,0-1.39.67l-6.75,3.55-.41.42a1.52,1.52,0,0,0-.31.2.69.69,0,0,1-.31.16,1.83,1.83,0,0,0-.52.25c-.2.14-.43.28-.67.42a1.7,1.7,0,0,1-.87.2,1.23,1.23,0,0,1-.78-.2,6.28,6.28,0,0,1-.56-.52,2.86,2.86,0,0,1-.26-.62,2.83,2.83,0,0,0-.36-.67,4.37,4.37,0,0,0-.72-.82c-.28-.24-.62-.57-1-1a2.32,2.32,0,0,1-.73-1.19,4.42,4.42,0,0,1,0-1.08,3.76,3.76,0,0,1,.42-1.24,8.72,8.72,0,0,0,.36-3.19q0-2.47.36-6.19c.24-2.47.43-4.12.56-5a4.64,4.64,0,0,0,.11-1.59q-.11-.36-.21-.42a.55.55,0,0,1-.21-.25V88.7a2,2,0,0,0,.52,0,4,4,0,0,1,1.29.36,7.18,7.18,0,0,1,1.7.88c.41.31.82.63,1.24,1s.72.62.93.82l.41.31.72.52a9.42,9.42,0,0,0,.67.77,1.61,1.61,0,0,1,.36.88,1.14,1.14,0,0,1-.1.87,2.34,2.34,0,0,0-.26,1.19c0,.62-.07,1-.1,1.24a1.09,1.09,0,0,0,0,.51,2,2,0,0,1-.06.72c-.06.35-.17,1.89-.3,4.64a1.56,1.56,0,0,1,.41-.15c.13,0,1.44-.71,3.92-2V97.93a5.52,5.52,0,0,0-.06-1,2.13,2.13,0,0,1,0-.62c0-.24,0-1.24-.05-3s-.1-3.44-.1-5.05,0-2.8-.05-3.56a16.79,16.79,0,0,1,0-2,8.46,8.46,0,0,0-.11-1.85,3.7,3.7,0,0,1,0-1.5,3.41,3.41,0,0,0,.11-1.24,4.79,4.79,0,0,1,.05-1.28,4,4,0,0,0,0-1.09,2.49,2.49,0,0,0-.15-.72,4.42,4.42,0,0,1-.21-.51l-.72-.52a2.33,2.33,0,0,1-.36.15,3.44,3.44,0,0,0-.72.57,8.79,8.79,0,0,1-1.76,1.14,4.7,4.7,0,0,1-1.54.61,1.5,1.5,0,0,0-.67.16,3.08,3.08,0,0,1-1,.21,4,4,0,0,1-1.14-.06,1.27,1.27,0,0,1-.67-.31,2,2,0,0,0-.62-.36A4.22,4.22,0,0,1,204,75.2,8,8,0,0,0,202.39,74a7.19,7.19,0,0,1-1.5-1,4.78,4.78,0,0,0-.92-.72l-.72-.36-.42-.57a.83.83,0,0,1-.1-.46,1,1,0,0,0-.41-.67,1.69,1.69,0,0,1-.52-.67.89.89,0,0,1-.05-.52.94.94,0,0,0-.05-.51,2.92,2.92,0,0,0-.16-.42l-.15-.31.31-.3v-.26a.6.6,0,0,0-.1-.31c-.07-.11-.16-.22-.26-.36a3.52,3.52,0,0,1-.36-.62,12.13,12.13,0,0,1,1.39.62.78.78,0,0,0,.57.15.5.5,0,0,1,.36,0,1.19,1.19,0,0,0,.36.16,1.73,1.73,0,0,1,.46.2,1,1,0,0,0,.67.11,22.1,22.1,0,0,0,3.56-2.06,19.7,19.7,0,0,1,5.31-2.58,59.48,59.48,0,0,0,8.86-4l.21-.31.93-.46a1.09,1.09,0,0,1,.51-.16.63.63,0,0,0,.42-.2A4.08,4.08,0,0,1,222,57a4.47,4.47,0,0,0,1.6-.62.63.63,0,0,1,.72-.15.6.6,0,0,0,.67-.11,2.89,2.89,0,0,1,.62-.41,1.14,1.14,0,0,1,.82,0,1.17,1.17,0,0,0,.83,0,.66.66,0,0,1,.56,0l.78.36a2,2,0,0,0,.77.26.41.41,0,0,1,.36.15.3.3,0,0,0,.26.16.35.35,0,0,1,.26.1,1.26,1.26,0,0,0,.56.21c.31.07.67.17,1.09.31a3,3,0,0,1,1,.51c.24.21.42.38.56.52a1.94,1.94,0,0,1,.52.51,2.64,2.64,0,0,1,.31.93,4.47,4.47,0,0,1-.05,1.44,3.21,3.21,0,0,1-.31,1,8.16,8.16,0,0,0-.47.73l-.72.31-.31.3-1.75.83a2.26,2.26,0,0,0-.41.72,3.38,3.38,0,0,1-1.09.46,1,1,0,0,0-.56.26,1.72,1.72,0,0,1-.62.36,6,6,0,0,0-1,.52,9.66,9.66,0,0,1-1.6.77,15.52,15.52,0,0,0-1.49.67,2.5,2.5,0,0,1-.78.31.71.71,0,0,0-.46.26.44.44,0,0,1-.36.21,1,1,0,0,0-.47.15,4.09,4.09,0,0,1-.51.26l-.47.2-.72.42-.31.3a22.59,22.59,0,0,0-4.33,2.48,6.84,6.84,0,0,0,.93.41,6.46,6.46,0,0,0,1,.21,28.4,28.4,0,0,1,4.79,2.47l.16.47a1.47,1.47,0,0,1,.05.41.53.53,0,0,0,.16.41.3.3,0,0,1,.05.36.29.29,0,0,0,0,.36.52.52,0,0,1,.05.52,4.84,4.84,0,0,0-.15.67c0,.2-.07.41-.11.62a4.18,4.18,0,0,0-.05.61v1.14l.31-.1a3.56,3.56,0,0,1,.62-.67.78.78,0,0,0,.26-.31,1.3,1.3,0,0,0,.05-.36l-.31-.11.51-.15q.21,0,.21,0s0,0,.1,0a1,1,0,0,1,.42-.52,1.12,1.12,0,0,1,.82-.3l.72-.52.41.31h.52a1.39,1.39,0,0,0,.57.21,2,2,0,0,0,1-.06,1.33,1.33,0,0,1,.77,0,1.14,1.14,0,0,0,.52.11q4.22-9.5,6.39-14.08c1.44-3.05,2.58-5.58,3.4-7.57s1.36-3.39,1.6-4.18a9,9,0,0,0,.41-1.86c0-.44,0-.72-.15-.82a5.12,5.12,0,0,1-.62-.57,4.87,4.87,0,0,0-1-.67,5.13,5.13,0,0,0-.72-.25c-.24-.07-.64-.21-1.19-.42.21-.13.38-.24.52-.31a1.89,1.89,0,0,1,.72-.1A2.61,2.61,0,0,0,240.17,47.88Z"/>
        <path d="M297.75,46.89l.46,0,1.19.15,2,.26a9.24,9.24,0,0,1,2.47.72,8.61,8.61,0,0,0,1.91.67,1.4,1.4,0,0,1,.93.52,1.66,1.66,0,0,0,.82.57,1.78,1.78,0,0,1,.78.41c.17.17.43.46.77.87l.31.62.52.42c.13.27.25.49.36.67a4.21,4.21,0,0,0,.46.61,1,1,0,0,1,.26.78,1.81,1.81,0,0,0,.15.93,1.07,1.07,0,0,1,.05.87.87.87,0,0,1-.36.47c-.13.06-.19.22-.15.46a3.31,3.31,0,0,1-.36,1.34,10,10,0,0,1-.62,1.29l-.62.93-.62.2c-.07,0-.08,0-.05.11s0,.2-.15.41a8,8,0,0,1-.57.72c-.24.27-.46.55-.67.82l-.41.21v.31h.2a2.84,2.84,0,0,0-.51.72l-.41.1-.31.93-.42.21.21.1-.31.1.21.21-.21.21.1.31a19,19,0,0,0,3.71-2.07v-.2l.52-.21.31-.41a1.12,1.12,0,0,1,.36-.26.31.31,0,0,1,.31.1.76.76,0,0,0,.57.16l.31-.41-.11-.31h.21l.31-.31.62.2.31-.1.31.52c.06-.14.13-.21.2-.21h.41a1.27,1.27,0,0,1,.73.31,1.39,1.39,0,0,0,.51.31l.1.1,2,.41.42.31a9.23,9.23,0,0,1,1.23.52,2.82,2.82,0,0,0,.83,1.24,1.74,1.74,0,0,0,.2,1.65,1.27,1.27,0,0,1-.31.25c-.06,0-.1.16-.1.36a.86.86,0,0,1-.15.52,3.73,3.73,0,0,1-.26.31,1.18,1.18,0,0,0-.21.31l-.51.62-.31.31a3.77,3.77,0,0,0-1.65.92.29.29,0,0,1-.21-.1c-.07-.07-.22,0-.46.1a3.25,3.25,0,0,1-.67.31,2.61,2.61,0,0,0-.67.36,11.21,11.21,0,0,0-1.08,1l-.31-.41c-.07.21-.16.31-.26.31H312a1,1,0,0,0-.36.1,3.52,3.52,0,0,1-.57.21,6.93,6.93,0,0,0-.72.26,1.42,1.42,0,0,0-.46.26.35.35,0,0,1-.26.1.63.63,0,0,0-.36.15,6.92,6.92,0,0,1-.78.47,7.84,7.84,0,0,1-1.39.56A18,18,0,0,0,304.56,76l.3.1a6.9,6.9,0,0,0,1.5.52,1.71,1.71,0,0,1,.93.46,1.83,1.83,0,0,0,.67.47,1.82,1.82,0,0,1,.56.31c.17.13.54.37,1.09.72a1.86,1.86,0,0,0,.56.77.65.65,0,0,1,.31.31,2.37,2.37,0,0,0,.26.46,1.83,1.83,0,0,1,.46.21,6.6,6.6,0,0,0,2.07-.82,11.55,11.55,0,0,1,2.16-.93h.36l.62-.72.62-.11.31-.31.31.21.41-.21.1.11.21.31.72-.16a4.59,4.59,0,0,1,1.19.1c.58.11.89.19.92.26a.59.59,0,0,0,.26.21l-.2.31L322,79v.21l.41.31.21.2a1.22,1.22,0,0,0,.92.31l-.41-.82a1.18,1.18,0,0,0,.41.2,1.73,1.73,0,0,0,.52.11,1,1,0,0,1,.36,0,1.72,1.72,0,0,0,.46,0,.94.94,0,0,0,.47-.1c.1-.07.27-.06.51,0s.5.22.78.36.67.31,1.18.51a4.09,4.09,0,0,1,1.45,1,9.63,9.63,0,0,0,1,1,4,4,0,0,0,1,.57,7,7,0,0,0,.87,1,3.54,3.54,0,0,1,.62.77,4.87,4.87,0,0,1,.57,1.45,10.75,10.75,0,0,1,.26,1.54,5.88,5.88,0,0,1,0,1,1.88,1.88,0,0,0,0,.67,4.13,4.13,0,0,1,0,.87q-.06.57-.06,1.65c0,.72,0,1.5.11,2.32a4.54,4.54,0,0,0,.2,1.34c2.82-.34,4.52-.57,5.11-.67s1.29-.26,2.11-.46a52.79,52.79,0,0,1,4.28-6,2,2,0,0,0,.72-.88.65.65,0,0,1,.26-.46,1.77,1.77,0,0,0,.41-.62,6.2,6.2,0,0,1,.67-1.09l.93-1.23a2.13,2.13,0,0,0,.46-.78v-.36a10.31,10.31,0,0,1-1.08.47,5.14,5.14,0,0,1-1.13.31,3.53,3.53,0,0,0-.88.2,6.61,6.61,0,0,1-.83.26l-.92.26c-.35.1-.67.2-1,.31s-.61.2-.88.31a2.11,2.11,0,0,1-.72.15l-.21.21a13.67,13.67,0,0,0-1.49,0,1.5,1.5,0,0,1-.88-.16,9.85,9.85,0,0,1-1.18-.72,7.13,7.13,0,0,0-1.5-.77,3.1,3.1,0,0,1-1.18-.72,3.79,3.79,0,0,0-1-.72,5.58,5.58,0,0,1-1-.62l-1.39-1.08h.87a1.39,1.39,0,0,0,.52-.11c.17-.06.56-.17,1.18-.31a10.75,10.75,0,0,0,2-.67c.73-.31,2.58-.94,5.57-1.9a47.54,47.54,0,0,1,5.88-1.65,31.82,31.82,0,0,0,3.35-.73l.41-.72a4.38,4.38,0,0,0,.62,0,1.42,1.42,0,0,0,.57-.15,1.21,1.21,0,0,1,.41-.16.79.79,0,0,1,.46,0,1.14,1.14,0,0,0,.52.11h.67a.54.54,0,0,1,.51.25,2,2,0,0,0,.57.57l.41.52h.26a5.32,5.32,0,0,1,1.13.46,7,7,0,0,1,1.4.82c.27.25.61.54,1,.88a1.15,1.15,0,0,0,.25.47,2.11,2.11,0,0,1,.37.61,1.13,1.13,0,0,1,.1.78.64.64,0,0,0,.05.56.85.85,0,0,1-.1.78,3.55,3.55,0,0,0-.36,1.18,3.59,3.59,0,0,1-.26,1,4.57,4.57,0,0,0-.26.62,2.66,2.66,0,0,1-.46.77,2.29,2.29,0,0,0-.47,1,5,5,0,0,1-.72,1.54,5.8,5.8,0,0,1-.88,1.19,1.32,1.32,0,0,0-.36.41q-.1.21-.51.93l-.41.31v.1l-.21.1-.21.52-.41.41.1.1a3.31,3.31,0,0,0-.61.83l-.31.1a.51.51,0,0,0,0,.62l.92.31.31.41.93.41a1.94,1.94,0,0,0,.21.47,3.48,3.48,0,0,0,.56.51,1.37,1.37,0,0,1,.52.62.68.68,0,0,0,.15.36.36.36,0,0,1,.11.26.45.45,0,0,0,.15.31c.11.1.16.4.16.88a2.74,2.74,0,0,1-.67,1.59c-.45.59-.85,1.16-1.19,1.71a1.89,1.89,0,0,1-.88.77,1.59,1.59,0,0,1-1.13.1,9.9,9.9,0,0,0-2-.2l-3.71-.16c-1.55-.07-3-.08-4.23,0s-2.47,0-3.6,0a23.49,23.49,0,0,1-2.89-.15,6.38,6.38,0,0,1-2.22-.73,4.12,4.12,0,0,0-1.08-.51.2.2,0,0,1-.15,0,1.09,1.09,0,0,0-.11.26,4.92,4.92,0,0,0,.16.57,8.24,8.24,0,0,1,.25,1.13,1.63,1.63,0,0,1-.1,1,1.24,1.24,0,0,0-.15.77.67.67,0,0,1-.05.47.25.25,0,0,0,0,.41l-.52.1a.68.68,0,0,0-.1.62l-.31.31-.31-.21-.52.31-.31.21a2.2,2.2,0,0,1-.72.1l-.1.42-.52-.21.11-.31H331l-.11-.1-.41.2a3.79,3.79,0,0,1-.82-1.23l-.42-.21-1-2-1-.72-.1-.41.31-.72-.41-.42-.11-.31.16-.15a.58.58,0,0,0,.1-.21,5.36,5.36,0,0,0-.36-1.39,22.62,22.62,0,0,1-.77-3.76c-.24-1.68-.47-3.57-.67-5.67a24.48,24.48,0,0,0-.62-4.07,13.87,13.87,0,0,1-.52-2.48h-.41v1.14l-.31.2a1.1,1.1,0,0,1,.62.21,2.76,2.76,0,0,1-.36.31,3.27,3.27,0,0,1-.67.26,6.57,6.57,0,0,0-1.34.61,10.55,10.55,0,0,1-2.27.88,26.59,26.59,0,0,0-3,1.08c-1,.45-1.74.78-2.11,1s-.84.45-1.39.72a2.92,2.92,0,0,1-.31.52c-.07.07-.09.22-.06.46a3.62,3.62,0,0,1-.25,1.34c-.21.66-.42,1.26-.62,1.81a4,4,0,0,0-.31,1.39,4,4,0,0,1-.31,1.39q-.32.82-3.09,9.38l-.42-.31c-.41,1-.82,1.89-1.23,2.79l-.31.1v.21c0,.07-.05.15-.16.25a1.31,1.31,0,0,0-.25.62,6.41,6.41,0,0,1-1,1.7,12,12,0,0,1-1.55,1.86c-.45.41-1.12,1.06-2,2l-.72.62-.1.2v-.2a3.23,3.23,0,0,1-.42.25,1.56,1.56,0,0,1-.36.11,2.2,2.2,0,0,0-.67.31,8,8,0,0,1-.87.46,2,2,0,0,0-.73.52.84.84,0,0,1-.67.31,1,1,0,0,0-.77.51,2.18,2.18,0,0,1-1.13.77,3.86,3.86,0,0,1-1.09.26h-.72l-.1-.2-.62-.21-.1-.31.31-.31-.31-.41a.91.91,0,0,1-.41.1l.3-.51-.3-.31.1-.52-.31-.31.1-.51h-.2a8.35,8.35,0,0,0,.1-.83,4.14,4.14,0,0,1,.1-.72,3.77,3.77,0,0,1,.31-.93.34.34,0,0,1-.1-.26,3.8,3.8,0,0,1,.46-1,3.81,3.81,0,0,0,.52-1.4c0-.37.08-.58.15-.62A.69.69,0,0,0,293,109a.84.84,0,0,0,0,.82l.31.42,1.7-1.7q.57-.57,1.44-1.5a13.41,13.41,0,0,0,1.7-2.27c.55-.89,1.07-1.8,1.55-2.73a6.31,6.31,0,0,0,.77-2,6.14,6.14,0,0,1,.21-1.13A5.29,5.29,0,0,1,301,98a1.73,1.73,0,0,0,.15-.77,1.43,1.43,0,0,1,.26-.83,1.14,1.14,0,0,0,.26-.61V95a3.44,3.44,0,0,1-1.34.72l-.41.52-.52.1-.1.21c-.69.41-1.31.76-1.86,1l-.2.21-.62.2-.11.11-3,1.75-.2.2-.93.52L292,101a2.87,2.87,0,0,0-.36.21,1.25,1.25,0,0,1-.31.15,2.38,2.38,0,0,0-.47.26,3.71,3.71,0,0,0-.46.36.64.64,0,0,1-.46.16l-.11.31c-.2.13-.75.44-1.65.92a4.86,4.86,0,0,1-2,.72,1.4,1.4,0,0,0-.92.26,1.55,1.55,0,0,1-1,.26,1.76,1.76,0,0,1-1-.21.9.9,0,0,0-.62-.15,1.33,1.33,0,0,1-.77-.16,2.4,2.4,0,0,1-.78-.51q-.3-.32-.72-.72l-.51-1-.62-.42c-.28-.54-.48-.92-.62-1.13a1,1,0,0,1-.21-.46.76.76,0,0,0-.1-.36c-.07-.14-.16-.33-.26-.57a2.47,2.47,0,0,0-.36-.62,1.67,1.67,0,0,1-.31-.67.88.88,0,0,1,.05-.67.93.93,0,0,0,.16-.52,1.27,1.27,0,0,1,.15-.56c.11-.21.21-.43.31-.67a1.84,1.84,0,0,1,.21-.42.21.21,0,0,1,.15,0,6.42,6.42,0,0,1,2.58-1.85l.51-.72.21.1a3.8,3.8,0,0,0,.72,2.58h.57a6.61,6.61,0,0,0,1.65-.78c.93-.51,2-1.13,3.25-1.85a25.18,25.18,0,0,1,2.88-1.5,4.38,4.38,0,0,0,1.29-.67,2.71,2.71,0,0,1,.67-.46c.28-.14.81-.36,1.6-.67a8.48,8.48,0,0,0,2.17-1.24,70.36,70.36,0,0,1,7.47-4l.41-.51c-.07-1.1-.1-1.87-.1-2.32s0-1-.1-1.6a2.13,2.13,0,0,0-.37-1.19,4,4,0,0,1-.56-.77l-.93-.62a1,1,0,0,1-.52.16,1.17,1.17,0,0,0-.77.51,1,1,0,0,1-1,.36A1.33,1.33,0,0,0,299,78a1.4,1.4,0,0,1-.77.36.67.67,0,0,0-.42.1,1.18,1.18,0,0,1-.31.21c-.06-.07-.19-.08-.36,0a3.33,3.33,0,0,0-1,.72A2.18,2.18,0,0,1,295,80a.9.9,0,0,0-.67.26,1.63,1.63,0,0,1-.52.36,3.3,3.3,0,0,0-.57.31l2.58-2.06.83-1a2,2,0,0,1-1-.83,17.94,17.94,0,0,1-1.76-2.83c-.75-1.41-1.08-2.27-1-2.58a1.08,1.08,0,0,0,0-.83,3,3,0,0,1-.2-.61.85.85,0,0,1,.1-.57,4.13,4.13,0,0,1,.62-.83,4,4,0,0,0,.77-1.34A5.18,5.18,0,0,0,294.5,66a8.42,8.42,0,0,1,.31-1.44,4.15,4.15,0,0,1,.57-1.29,3,3,0,0,0,.46-.83,3.41,3.41,0,0,0,.21-.82,3,3,0,0,1,.31-.93,3.07,3.07,0,0,0,.31-.93.6.6,0,0,1,.26-.51.46.46,0,0,0,.25-.31c0-.14.11-.36.21-.67s.34-1,.72-2.06a12.07,12.07,0,0,1,.83-2,2.48,2.48,0,0,0,.31-.67,1.16,1.16,0,0,1,.2-.47,1.12,1.12,0,0,0,.21-.51,2.35,2.35,0,0,1,.26-.72,4.66,4.66,0,0,0,.31-.83c.06-.27.17-.68.3-1.24l-.72-.61-1.23-1.65Zm14.33,47.83a1.28,1.28,0,0,0,.57.11.69.69,0,0,1,.46.1.6.6,0,0,0,.31.15l.72.16-.31-.31h.42l.41-.05c.2,0,.57.15,1.08.56a3.68,3.68,0,0,0,1.5.78,2.61,2.61,0,0,1,1.34.82,3.14,3.14,0,0,0,1.18.88,8.13,8.13,0,0,1,1.39.72c.07.07.28.29.62.67a2.49,2.49,0,0,1,.57.83,1.13,1.13,0,0,0,.26.51,1.22,1.22,0,0,1,.25.57,7.25,7.25,0,0,0,.21.77,2.76,2.76,0,0,1,.15.83,2.31,2.31,0,0,0,.16.77,13.73,13.73,0,0,1,.41,1.75,16.74,16.74,0,0,1,.16,3.61,9.86,9.86,0,0,1-.31,2.63c-.14.24-.26.46-.36.67a14.83,14.83,0,0,0-.57,1.44l-.62.21-.41.72-.47.46a1.46,1.46,0,0,1-.61.31,1.2,1.2,0,0,1-.78,0,1.22,1.22,0,0,0-.56,0,3.92,3.92,0,0,1-.78,0l-.62-.61a2,2,0,0,1-.36-.67,1.91,1.91,0,0,0-.67-.88,1.91,1.91,0,0,1-.67-1,2.77,2.77,0,0,0-.46-1,9.49,9.49,0,0,1-.72-1.13l-.72-.52-.11-.41a1.55,1.55,0,0,1,.36-.41c.11-.07.14-.14.11-.21a1.37,1.37,0,0,1-.05-.51l-.21-.21q.21-.51.36-.93a7.41,7.41,0,0,0,.05-2.16,30,30,0,0,0-.41-3.51,12.49,12.49,0,0,0-.88-3,7.65,7.65,0,0,1-.67-2,1.51,1.51,0,0,0-.36-.93,5.89,5.89,0,0,1-.57-.51Z"/>
        <path d="M387.13,72.14a.89.89,0,0,0,.62.2l.41-.2.31.2a3.7,3.7,0,0,0,.62.41.85.85,0,0,0,.36.11.43.43,0,0,1,.31.15c.11.1.19.19.26.26l.21.21,1.85,1.75a5.86,5.86,0,0,0,.62.82,1.31,1.31,0,0,1,.26.78,3.83,3.83,0,0,1,0,1,5.24,5.24,0,0,1-.31.92,14.43,14.43,0,0,0-.57,1.81,14.28,14.28,0,0,1-.62,1.91,4.46,4.46,0,0,0-.31.87,4.7,4.7,0,0,1-.36,1,15.87,15.87,0,0,0-.67,2.27,19.29,19.29,0,0,0-.41,2.06,4.21,4.21,0,0,1-.16.83,3.42,3.42,0,0,0-.1.93,2.12,2.12,0,0,1-.1.82c-.07.14-.09.24-.05.31a.74.74,0,0,1-.05.41,4.33,4.33,0,0,0-.16,1c0,.49-.05.79-.05.93a3.89,3.89,0,0,1-.05.52c0,.2-.09.65-.16,1.34s-.31,3.19-.72,7.52h.1q4.13-5.15,5.73-7.42a59.8,59.8,0,0,0,3.19-5.1q1.6-2.84,2.89-5.31a74.26,74.26,0,0,0,3.56-9.38l-.83,3.91.21.31a.85.85,0,0,0-.11.36c0,.11-.31,1-.92,2.79a14.67,14.67,0,0,0-.88,2.88.85.85,0,0,0,.26.47,16.4,16.4,0,0,1-.62,1.54,13.29,13.29,0,0,0-.52,1.29,17.24,17.24,0,0,0-.56,2.17,9.53,9.53,0,0,1-.57,2,3.2,3.2,0,0,0-.31,1.39,5.08,5.08,0,0,1-.67,2.06c-.45.89-.82,1.74-1.13,2.53a12.83,12.83,0,0,1-.93,2,5.19,5.19,0,0,0-.57,1.19,1.4,1.4,0,0,1-.36.67,1.8,1.8,0,0,0-.41.77,19.84,19.84,0,0,1-1.91,3,29.5,29.5,0,0,1-3.25,4,11,11,0,0,0-1.75,2,1.72,1.72,0,0,1-.41.61,4.93,4.93,0,0,0-.67.73,8.15,8.15,0,0,0-.78.67,1.8,1.8,0,0,1-.77.41,1.24,1.24,0,0,1-.77,0c-.17-.07-.4-.17-.67-.31s-.36-.5-.47-.67a10.82,10.82,0,0,1-.56-1.39c-.28-.76-.45-1.24-.52-1.44l-.31-.21-.2-.52-.42-.2-.2-.31-.72-.52v-.72a2.19,2.19,0,0,1,.1-.57,3.28,3.28,0,0,1,.41-.82,6,6,0,0,0,.62-1.39,15.82,15.82,0,0,0,.31-4,84.85,84.85,0,0,1,.67-9c.45-3.92.63-6,.57-6.08a4,4,0,0,1-.21-.52,5.66,5.66,0,0,1-1.24.82l-.2.31-.21-.1-.21.41a9.35,9.35,0,0,0-1.23.83v.2l-.52.31-.2.31-.42.11-.1.1-.21.1-.51.52-.21.1-.41.41a4.85,4.85,0,0,1-.72.31,1.76,1.76,0,0,0-.57.31,5.73,5.73,0,0,1-.67.47,5,5,0,0,1-1,.46,2.14,2.14,0,0,1-1.13.1,2.16,2.16,0,0,0-.88,0,1.09,1.09,0,0,1-.67,0,2.33,2.33,0,0,1-.67-.36,6.53,6.53,0,0,0-.77-.46,2.65,2.65,0,0,1-.62-.41,3.43,3.43,0,0,0-.57-1,1.84,1.84,0,0,1-.41-.78,3.52,3.52,0,0,1-.16-1,1.2,1.2,0,0,0-.31-.82,2.67,2.67,0,0,1-.46-.77c-.1-.28-.29-.76-.57-1.45l-.2-.1a6.59,6.59,0,0,0-.36-.77.72.72,0,0,1,0-.67.71.71,0,0,0-.11-.73.85.85,0,0,1-.15-.77,4.7,4.7,0,0,1,.21-.72,1.47,1.47,0,0,0,.1-.46,2.65,2.65,0,0,1,.1-.62l.52-.42.41-.51.41-.21a2.5,2.5,0,0,0,.41-.25l.36-.26a2.13,2.13,0,0,1,.47-.21l.1-.52c.35.56.72,1.11,1.14,1.66h.36a7.45,7.45,0,0,0,1.34-.57q1.19-.57,4.38-2.53c2.13-1.3,3.78-2.25,4.95-2.83a22.3,22.3,0,0,1,2.37-1.09c.41-.13,1-.3,1.75-.51l.52-.72A7,7,0,0,0,387.13,72.14Zm-1.75-24.23h.88a8,8,0,0,1,1.08.1,7.52,7.52,0,0,1,1.34.31,5.48,5.48,0,0,0,1.13.26,3.47,3.47,0,0,1,1,.26,12.85,12.85,0,0,0,1.81.46,5.3,5.3,0,0,1,2,.72,4.7,4.7,0,0,0,1.29.67,3.23,3.23,0,0,1,.87.41l.78.62a.91.91,0,0,1,.15.21,1.84,1.84,0,0,0,.36.41,3.27,3.27,0,0,1,.52.67,2.18,2.18,0,0,1,.25.83,1.61,1.61,0,0,0,.42.87,1.79,1.79,0,0,1,.41,1c0,.42,0,.9,0,1.45a13,13,0,0,1-.1,1.65,4.92,4.92,0,0,1-.26,1.18,1.45,1.45,0,0,1-.41.57,7.83,7.83,0,0,0-.67.62,8.63,8.63,0,0,1-.88.46,2,2,0,0,1-.77.16,2.88,2.88,0,0,1-.88-.16,2.12,2.12,0,0,0-.93-.1.8.8,0,0,1-.67-.16.59.59,0,0,0-.41-.2,1.7,1.7,0,0,1-.67-.26.7.7,0,0,0-.77-.05c-.21.14-.36.19-.47.15l-.46-.15a2.87,2.87,0,0,0-.21-.36,1.79,1.79,0,0,0-.25-.31,5.65,5.65,0,0,1-.47-.57l-.62-.31-.31.1-.2-.2a1.17,1.17,0,0,0-.41.2.65.65,0,0,1-.31.16,5.65,5.65,0,0,0-.88.36,7.89,7.89,0,0,0-1.24.72,7.61,7.61,0,0,1-1.18.72c-.41.21-1.07.55-2,1l-.1-.1,1.85-1.55q1-1.44,1.5-1.95a7.17,7.17,0,0,0,.82-1.14,3.94,3.94,0,0,0,.46-1.65,3.47,3.47,0,0,0-1.08-2.42,19.56,19.56,0,0,0-2-2.06,3.9,3.9,0,0,1-1-1.14,2.55,2.55,0,0,0-.56-.82c-.24-.24-.67-.7-1.29-1.39A6.44,6.44,0,0,0,385.38,47.91Zm18.56,50.41c.34,1,.62,1.94.82,2.73a7.33,7.33,0,0,0,.47,1.45,5,5,0,0,1,.36,1.08,1.73,1.73,0,0,0,.36.15,4.43,4.43,0,0,0,.82.11,17.91,17.91,0,0,0,1.81,0,25.23,25.23,0,0,0,3.14-.42,42.19,42.19,0,0,0,6.24-1.9l-.57.41a1.85,1.85,0,0,1-.51.21,1.38,1.38,0,0,0-.62.36,3.63,3.63,0,0,1-.88.56l-1.18.62a18.88,18.88,0,0,0-1.71,1.14v.2a7.46,7.46,0,0,1-1.34.72V106l-.31.1a1,1,0,0,0-.25.16.5.5,0,0,0-.11.2.9.9,0,0,1-.25.36.7.7,0,0,0-.21.52.85.85,0,0,1-.36.62c-.24.21-.36.36-.36.46v.36l-.31.21-.31.62-.21.41a.71.71,0,0,0-.05.46,1.24,1.24,0,0,1-.05.62,5.85,5.85,0,0,1-.31.83,1.82,1.82,0,0,1-.46.67,5,5,0,0,0-.67.72l-.62.15a.82.82,0,0,0-.36.21,1.1,1.1,0,0,1-.57.21,2.18,2.18,0,0,1-.77,0,1.4,1.4,0,0,0-.62-.06.7.7,0,0,1-.41,0l-.47-.15a10.52,10.52,0,0,0-1-1.08,1.32,1.32,0,0,1-.41-.73,3.65,3.65,0,0,0-.36-.92,5.39,5.39,0,0,1-.41-.93,1.8,1.8,0,0,1-.11-.83.6.6,0,0,0-.15-.56,1,1,0,0,1-.26-.57.78.78,0,0,0-.36-.57,1,1,0,0,1-.41-.72,1.82,1.82,0,0,1,0-.87,1.68,1.68,0,0,1,.26-.57.59.59,0,0,0,.1-.47.54.54,0,0,1,.1-.46.78.78,0,0,0,.16-.46.83.83,0,0,0-.21-.52.75.75,0,0,1-.21-.46.42.42,0,0,1,.11-.31,2.92,2.92,0,0,0,.31-.52,7.58,7.58,0,0,1,1.75-.41,2.15,2.15,0,0,0,.41-.52c.07-.13.17-.36.31-.67a2.71,2.71,0,0,1,.46-.72,1.52,1.52,0,0,0,.37-.56,4.12,4.12,0,0,1,.51-.93ZM432.8,58.53a.38.38,0,0,0,.31,0c.07,0,.17,0,.31.2a.45.45,0,0,0,.47.21.58.58,0,0,1,.46.1,1.68,1.68,0,0,0,.57.26,5.42,5.42,0,0,0,.82.16,3.6,3.6,0,0,1,1.08.31,3.24,3.24,0,0,1,1.09.72,3.29,3.29,0,0,0,.92.67,7.59,7.59,0,0,0,1,.36,5.8,5.8,0,0,1,1.09.46,6.39,6.39,0,0,1,.82.52l.77.62a4.21,4.21,0,0,0,.67.82,2.39,2.39,0,0,1,.52.62,2.27,2.27,0,0,1,.31,1c0,.38.05.74.05,1.08a1.54,1.54,0,0,1-.15.77,1.39,1.39,0,0,0-.16.73,1.61,1.61,0,0,1-.31.92,1.54,1.54,0,0,0-.31.73.56.56,0,0,1-.15.41.93.93,0,0,0-.21.51,1.24,1.24,0,0,1-.2.57,1.17,1.17,0,0,0-.21.36,6.05,6.05,0,0,1-.26.57l-.31.31a1.43,1.43,0,0,0-.25.56,3.05,3.05,0,0,1-.47.88l-.62.93-.31.46a3.14,3.14,0,0,1-.41.47l-.21.1v.21a.87.87,0,0,0-.15.2c0,.07-.24.35-.62.83a5.74,5.74,0,0,1-.77.87c-.14.11-.21.21-.21.31s-.08.23-.26.36a5,5,0,0,0-.72.83,5.7,5.7,0,0,1-1,1,3.11,3.11,0,0,0-.56.51,2.92,2.92,0,0,0-.16.42,7.59,7.59,0,0,0,.52.77.82.82,0,0,1,.2.46v.93a1.94,1.94,0,0,1-.2.83,3.41,3.41,0,0,1-.62.82,6,6,0,0,0-.57.62q-.15.21-.57.72a7.59,7.59,0,0,0-.77.52,1.58,1.58,0,0,1-.87.25,12.26,12.26,0,0,0-1.34.21,6.29,6.29,0,0,1-1,.16c-.2,0-.74.07-1.59.2s-2.17.4-3.92.78a23.89,23.89,0,0,0-3.35.87,7.69,7.69,0,0,1-1.5.47c-.51.1-1.25.29-2.21.56l-.21.21a1.05,1.05,0,0,1-.26-.05l-.46-.16a.66.66,0,0,0-.52,0l-.1.41-.21-.3-.31.2v.31l-.41-.31-.2-.31a5.34,5.34,0,0,0-.83.41c-.14,0-.22,0-.26-.1s-.19-.1-.46-.1a.78.78,0,0,1-.57-.16,2.64,2.64,0,0,0-.51-.36,9.43,9.43,0,0,0-.88-.41,8.83,8.83,0,0,1-.51-1,1.55,1.55,0,0,0-.31-.46,1.25,1.25,0,0,1-.31-.62q-.1-.41-.57-1.86c-.31-1-.64-2.14-1-3.55s-.67-3-1-4.75a56.3,56.3,0,0,1-.67-6.7q-.21-4.06-.57-4.53a9.91,9.91,0,0,1-.77-1.19l-1-.82h.93l-.11-.21h.21l.1-.1-.41-.52a3.12,3.12,0,0,1,.62.21.71.71,0,0,0,.46,0,.6.6,0,0,1,.47.1,1.46,1.46,0,0,0,.72.21,1.35,1.35,0,0,1,.62.15.42.42,0,0,0,.31.11.82.82,0,0,0,.46-.11,2.09,2.09,0,0,1,1,0,3.63,3.63,0,0,1,1.5.67c.44.35,1.08.9,1.9,1.65.35-.06.76-.15,1.24-.25a9.91,9.91,0,0,0,2.27-1,33.52,33.52,0,0,1,3.92-1.86c1.58-.65,2.62-1.05,3.14-1.19a6.48,6.48,0,0,0,1.39-.51,15.75,15.75,0,0,1,2.06-.77,16.37,16.37,0,0,1,2.43-.62c.65-.11,1.06-.17,1.23-.21a2.56,2.56,0,0,0,.67-.26,3.3,3.3,0,0,1,.83-1.23ZM427,70.18a1.15,1.15,0,0,1-.57,0,3.7,3.7,0,0,0-1.39.41c-.76.31-1.24.52-1.44.62l-.47.21-.67.15-.1.1-.72.16a1,1,0,0,0-.41.2,1.29,1.29,0,0,1-.67.21,1.34,1.34,0,0,0-.57.15,1.26,1.26,0,0,1-.41-.36,1.5,1.5,0,0,0-.31-.31,1.55,1.55,0,0,0-.83-.15,2.12,2.12,0,0,1-.82-.1l-.72-.72h-.41V71a.76.76,0,0,0,.1.31,5.62,5.62,0,0,1,.26,1,8.91,8.91,0,0,1,.15,1.6c0,.52,0,1,.05,1.49s.05,1,.05,1.71,0,1.27-.05,1.85-.05,1.6-.05,3h.57a6.48,6.48,0,0,0,1.34-.36l1.23-.41a.93.93,0,0,0,.37-.26c.27-.34.49-.65.67-.93s.73-1.15,1.7-2.63,1.8-2.83,2.52-4.07,1.14-2,1.24-2.21S426.89,70.59,427,70.18Zm11.44,28.24,1.4.42a1.76,1.76,0,0,0,.72,0,.82.82,0,0,1,.67.2,2.66,2.66,0,0,0,.93.47,5.77,5.77,0,0,1,1.59,1c.66.51,1.12.89,1.4,1.13s.61.57,1,1a12.23,12.23,0,0,0,.77,1.14,4.23,4.23,0,0,1,.57,1.08,3.28,3.28,0,0,0,.51,1,10.73,10.73,0,0,1,.77.92,3.12,3.12,0,0,1,.57,2.89,3.69,3.69,0,0,1-.36.83,8.11,8.11,0,0,0-.46.72,9.35,9.35,0,0,1-.88.93,7.07,7.07,0,0,1-1.65.82,7.21,7.21,0,0,1-2.11.57,1.89,1.89,0,0,1-1.29-.31,1.79,1.79,0,0,0-.88-.41,5.3,5.3,0,0,0-.77-.06,1.69,1.69,0,0,1-.52,0,1.15,1.15,0,0,0-.46,0c-.21,0-.62.12-1.24.26a1.19,1.19,0,0,0-.2-.31c-.07-.07-.3-.08-.67-.05a5.53,5.53,0,0,0-1.09.21,5.3,5.3,0,0,1-1.08.2,5.07,5.07,0,0,0-1,.21,2.64,2.64,0,0,1-.77.15,1.48,1.48,0,0,0-.57.11,5.11,5.11,0,0,1-1,.2,2.47,2.47,0,0,0-1.18.47,1.43,1.43,0,0,1-.83.36,1.51,1.51,0,0,0-.72.2,4.75,4.75,0,0,0-.62.42,2.65,2.65,0,0,1-.77.36,9.67,9.67,0,0,0-1,.36l1-.72c.34-.35.62-.64.82-.88s.74-.83,1.6-1.75a17.44,17.44,0,0,0,1.91-2.37c.41-.66.68-1.12.82-1.4s.31-.65.52-1.13l.31-.21c1.85-2.54,3-4.15,3.4-4.84a4.7,4.7,0,0,0,.67-1.5,3.91,3.91,0,0,1,.1-.62c0-.1.09-.22.16-.36l-.42-.72-1-.62a1.51,1.51,0,0,0,.42,0,1.06,1.06,0,0,1,.51,0c.21.07.31.12.31.16s0,0,.1,0Z"/>
        <path d="M476,73c.07-.07.22-.07.46,0a8.45,8.45,0,0,0,1.09.21c.48.07.75.1.82.1l-.41-.31h.2a9.14,9.14,0,0,1,1.14.41,7.77,7.77,0,0,1,1.6.83c.37.27.84.65,1.39,1.13.34.28.58.46.72.57a1.28,1.28,0,0,1,.36.67,3.67,3.67,0,0,1,.15,1,6.2,6.2,0,0,1-.2,1.39c-.14.58-.36,1.36-.67,2.32a22.15,22.15,0,0,1-1.14,2.84,19.62,19.62,0,0,1-1.28,2.32,16.31,16.31,0,0,0-1.14,2,6.41,6.41,0,0,0-.62,1.7A2.39,2.39,0,0,1,478,91.2a4.84,4.84,0,0,0-.62,1.29,28.33,28.33,0,0,1-1.49,3.14,31.49,31.49,0,0,0-1.45,3,2.15,2.15,0,0,1-.46.88.31.31,0,0,0-.15.36.36.36,0,0,1-.11.36.87.87,0,0,0-.2.51,7.19,7.19,0,0,1-.83,1.7c-.51.9-.86,1.46-1,1.71l-.36.51-.36.52a2.35,2.35,0,0,0-.36.77l-.31.21c-.07.07-.09.13,0,.2s-.07.26-.31.57a18.53,18.53,0,0,0-1.19,1.91h-.2l-.42.82-.2.1V110l-.78,1.24a1.74,1.74,0,0,1-.41.51,1.07,1.07,0,0,0-.26.26l-.25.41a1.67,1.67,0,0,1-.26.36h-.1c.06.07,0,.18-.06.31a5.76,5.76,0,0,1-.56.62l-.11.1v.11a5.83,5.83,0,0,1-.51.62q-.21.21-1.14,1.44a69,69,0,0,1-6,5.88,4.28,4.28,0,0,1-1.19.82l-.77.36a1.38,1.38,0,0,0-.31.26l-3.92.72a42.82,42.82,0,0,1-5.46-2l1.23-.51.62-.31a7.91,7.91,0,0,1,.88-.47c.1,0,1.29-.72,3.55-2.06a17.69,17.69,0,0,0,3.72-2.52c.2-.35.51-.86.92-1.55a1.82,1.82,0,0,0,.83-.21v-.51l.2.2h.42a9.57,9.57,0,0,1,1.23-1.49,16.26,16.26,0,0,0,1.7-2.06c.79-1.07,1.65-2.25,2.58-3.56s1.86-2.7,2.79-4.17,1.75-2.91,2.47-4.28,1.43-2.73,2.11-4.08,1.21-2.37,1.55-3.09.72-1.44,1.13-2.16a39.4,39.4,0,0,0,1.81-3.87c.79-1.85,1.41-3.42,1.85-4.69a30.78,30.78,0,0,0,.93-3,8,8,0,0,0,.26-1.75,4.38,4.38,0,0,0-.1-1,1.41,1.41,0,0,0-.31-.57,5.89,5.89,0,0,1-.52-.62A3.56,3.56,0,0,0,476,73Zm15.88-28.14a.17.17,0,0,0,.2,0,1.24,1.24,0,0,1,.57,0c.31,0,.86.12,1.65.25a6.68,6.68,0,0,1,1.8.52,3.24,3.24,0,0,0,1.24.36,4.91,4.91,0,0,1,1.75.72,9.47,9.47,0,0,1,1.34.88,5.83,5.83,0,0,0,.62.51,7.77,7.77,0,0,0,.93,1,3.51,3.51,0,0,1,.57.67,4.06,4.06,0,0,1,.41,1.29,9.63,9.63,0,0,1,.15,1.6,3,3,0,0,1-.26,1.29,2.42,2.42,0,0,0-.25.77v.41l.1.21A7.68,7.68,0,0,1,504,55a1.29,1.29,0,0,0,.67-.21.42.42,0,0,1,.36-.1c.11,0,.22,0,.36-.21a.51.51,0,0,1,.52-.2.44.44,0,0,0,.46-.16.7.7,0,0,1,.36-.25,1,1,0,0,0,.42-.26l.41.2a1.8,1.8,0,0,1,.51-.25,1.38,1.38,0,0,0,.37-.16,1,1,0,0,1,.36-.15l.36-.11a5.37,5.37,0,0,0,.56-.25.34.34,0,0,0,.31.2l.83.05a1.54,1.54,0,0,1,1,.52,1.68,1.68,0,0,0,1,.57,2.49,2.49,0,0,1,1.08.51,4.67,4.67,0,0,0,.72.52,1.52,1.52,0,0,1,.31.2l.41.42c.21.27.38.5.52.67a1.09,1.09,0,0,1,.1.87,2.6,2.6,0,0,0,0,.83.76.76,0,0,1,0,.46,2.2,2.2,0,0,1-.21.41l-.31.47a.18.18,0,0,0,.06.15s0,.11-.11.21l-.46.46a3.5,3.5,0,0,1-.57.47,1.66,1.66,0,0,1-.67.2l-.77.11a5.78,5.78,0,0,1-1,0,2.81,2.81,0,0,0-1.24.15,3.13,3.13,0,0,1-1.08.21,1.61,1.61,0,0,0-.78.15,1.18,1.18,0,0,1-.61.16,1.73,1.73,0,0,0-.83.25,1.82,1.82,0,0,1-.93.26h-1.18v.31c-.42.14-.78.24-1.08.31a5.65,5.65,0,0,0-.88.26,4.5,4.5,0,0,1-.67.2.76.76,0,0,0-.36.16.29.29,0,0,1-.21.1h-.41l-.1.1-.31.11-.11-.11a9.26,9.26,0,0,1-1.44.31l.1.21a1.64,1.64,0,0,1-.51-.05.2.2,0,0,0-.21,0,.53.53,0,0,1-.2.05.57.57,0,0,0-.26.1,2.16,2.16,0,0,1-.57.21,1.2,1.2,0,0,0-.51.21l-.31.3-.21-.2-.21.31V65l-.2.1-.21.21-.2-.21-.11.21-.41.1v.21h-.31a1.73,1.73,0,0,0-.31.05,4.19,4.19,0,0,1-.51.1l-.73.16a1.86,1.86,0,0,0-.46.15.2.2,0,0,1-.15.06v.2l-1.45.41-.2.21-.83.31-.1.1a13.12,13.12,0,0,1-1.86.67,5.1,5.1,0,0,0-1.29.57,3,3,0,0,1-1,.46l-.62.11a1.66,1.66,0,0,0-.61.31,5.33,5.33,0,0,1-1.29.56,8.54,8.54,0,0,0-1.55.67,6.85,6.85,0,0,1-1.44.62,4.91,4.91,0,0,1-1.09.26.73.73,0,0,0-.41.1,2.42,2.42,0,0,1-.77.21,6.3,6.3,0,0,1-1,.1h-1.14a13.23,13.23,0,0,1-2.16-2.27l-.83-.82a5.36,5.36,0,0,0-.2-.57,6.79,6.79,0,0,0-.83-1.13,7.35,7.35,0,0,1-1.13-1.86c-.28-.65-.38-1.06-.31-1.23a1.75,1.75,0,0,1,.41-.57c.21-.21.28-.38.21-.52a1.1,1.1,0,0,1-.1-.51l.2.31-.2-.62.41.41a18.57,18.57,0,0,0,2,1.24,3.07,3.07,0,0,0,2.06.31A34.76,34.76,0,0,0,480,63c2-.69,3.39-1.17,4.28-1.44s1.92-.66,3.09-1.14a7.2,7.2,0,0,1,.62-1.65,3.8,3.8,0,0,0,.46-1.23A6.35,6.35,0,0,1,489,56a12.59,12.59,0,0,0,.88-3c.31-1.48.48-2.42.51-2.83s.09-.93.16-1.55l-.72-.72c-.35-.41-.64-.74-.88-1a7.94,7.94,0,0,0-1.24-.93,6.09,6.09,0,0,0-1.08-.62,1.7,1.7,0,0,1-.41-.15h.36a1.92,1.92,0,0,0,.57-.16,9.47,9.47,0,0,1,2.26-.15h2A1,1,0,0,0,491.83,44.81Zm16.39,91.85c-.48.89-1,1.75-1.45,2.58a2.29,2.29,0,0,0-.61.41l-.83,1.24-.1-.31-.31.31-.41.72-.21-.1a2.76,2.76,0,0,0,.31-.36,2.37,2.37,0,0,0,.1-.93,8.32,8.32,0,0,0-.1-1.39c-.07-.42-.14-1.07-.21-2a3.13,3.13,0,0,0,0-1.24,16,16,0,0,1-.1-3c0-1.51.05-3.42.05-5.72s0-5.64.1-10,.11-6.86.11-7.48,0-1.3-.11-2.06c-.62.21-1.15.36-1.6.47a3.79,3.79,0,0,0-1,.36,2.09,2.09,0,0,1-.72.26,1.15,1.15,0,0,0-.56.2,2.09,2.09,0,0,1-.78.26,16.1,16.1,0,0,0-2,.62l-.1.1q-.42.1-1.14.36a8,8,0,0,0-1.18.52,11.38,11.38,0,0,1-1.44.62,16.37,16.37,0,0,0-1.71.72,17.45,17.45,0,0,1-1.85.77,7.63,7.63,0,0,0-1.5.67,2.35,2.35,0,0,1-.77.36,1.93,1.93,0,0,0-.82.47,7.41,7.41,0,0,1-2,.92c-1.07.38-2.14.74-3.2,1.09a7.34,7.34,0,0,1-2.37.46,1.9,1.9,0,0,1-1-.26,7.09,7.09,0,0,0-.78-.51l-1-1.24-.51-.21-.21-.31-.62-.51a4.56,4.56,0,0,0-.2-.62,1.74,1.74,0,0,0-.57-.52,1.25,1.25,0,0,1-.57-.82,1.22,1.22,0,0,0-.36-.72.86.86,0,0,1-.31-.52.93.93,0,0,1,.05-.51,3.24,3.24,0,0,0,.21-.72l.93-.73a3.94,3.94,0,0,1,.72-1.23h.21l-.11.72.21.41,1.34.77a2.51,2.51,0,0,0,.77.36,3.46,3.46,0,0,0,1.39-.1,47.58,47.58,0,0,0,4.64-1.44c2.41-.83,5-1.63,7.63-2.42s5.42-1.62,8.2-2.48,4.26-1.32,4.43-1.39a3.3,3.3,0,0,0,.57-.31c-.07-1.3-.1-2.22-.1-2.73a2.69,2.69,0,0,0-.11-1,3,3,0,0,1-.2-.52,8.85,8.85,0,0,0-1.24.26,16.09,16.09,0,0,0-1.75.72,19,19,0,0,0-2.58,1.45,12.82,12.82,0,0,1-2.63,1.34,10.43,10.43,0,0,0-2.22,1.08,3,3,0,0,1-1.39.62,1.56,1.56,0,0,1-.67-.11l-.51-.2a15.24,15.24,0,0,0-1.19-1.75,2,2,0,0,1-.46-.88,1.06,1.06,0,0,0-.41-.67.84.84,0,0,1-.37-.62,1.75,1.75,0,0,0-.56-.93,3.38,3.38,0,0,1-.78-1.13,6.8,6.8,0,0,1-.36-1.08,2.31,2.31,0,0,1,0-1,1.46,1.46,0,0,1,.21-.62.29.29,0,0,0,.1-.21,1.45,1.45,0,0,0-.1-.62.29.29,0,0,1,0-.36,1.16,1.16,0,0,0,.26-.46.8.8,0,0,0-.05-.31.2.2,0,0,1,0-.21,1,1,0,0,1,.25-.25,1.15,1.15,0,0,0,.31-.36,2.51,2.51,0,0,1,.31-.47,3.11,3.11,0,0,0,.42-1.08,17.65,17.65,0,0,1,.67-2.06c.3-.83.91-2.65,1.8-5.47-.14,0-.55-.31-1.24-.93a4.36,4.36,0,0,0-1.34-1,1.45,1.45,0,0,1-.62-.31l-.51-.42a5.48,5.48,0,0,0-.62-.36,1.73,1.73,0,0,1-.15-.36,2.91,2.91,0,0,0-.37-.56,6.72,6.72,0,0,0-.61-.73l-.62-.51a3.51,3.51,0,0,0-.16-.42.8.8,0,0,0-.15-.2,1.18,1.18,0,0,0-.31-.21l.93.11.31-.21a8.31,8.31,0,0,1,1,.05,4.34,4.34,0,0,0,1.34-.15,27.3,27.3,0,0,0,4.12-1.65c2.09-1,3.23-1.51,3.4-1.65a2.51,2.51,0,0,1,.47-.31,9.59,9.59,0,0,1,.77-1.6,1.48,1.48,0,0,0,.26-.88,6.29,6.29,0,0,0-.16-1.23,1.54,1.54,0,0,0-.51-1,4.79,4.79,0,0,1-.88-.88l-.62-.41h.16a2.46,2.46,0,0,1,.41.15,4.4,4.4,0,0,0,1.13.26,5.54,5.54,0,0,1,1.39.36,4.1,4.1,0,0,0,1.24.31,3.68,3.68,0,0,1,1.39.47,6.33,6.33,0,0,1,1.24.82c.31.28.7.65,1.19,1.13.48-.2.87-.36,1.18-.46s.79-.22,1.44-.36a3.28,3.28,0,0,0,1.29-.46,1.12,1.12,0,0,1,.72-.26,1.46,1.46,0,0,0,.88-.36,1.53,1.53,0,0,1,.62-.36h.36l.31-.42.41-.2.47.15a1.29,1.29,0,0,1,.41.36,1.18,1.18,0,0,0,.87.36,6.25,6.25,0,0,1,1.14.21,1.81,1.81,0,0,1,.62.26,1,1,0,0,0,.31.2l.31.31.31.11V69l.41.21-.11.31-.3.1v-.1l-.11.2L515,70v.21l.41.2.21.31-.41.41.51.11-.1.2.1.11-.31.2.31.31-.51.41a.77.77,0,0,1,.31.31l-.52.11-.1-.21-.21.31a1.14,1.14,0,0,1,.11.52l.2.1-.1.1h-.1l-.21.1-.21.11.11.31a1.09,1.09,0,0,0-.57.1.71.71,0,0,1-.41.1,1.5,1.5,0,0,0-.62.16,5.09,5.09,0,0,1-.83.26,4.18,4.18,0,0,0-.82.25,3.23,3.23,0,0,1-.62.21l-.41.1a1,1,0,0,1-.36,0v.21h-.72v.21l-1,.46a3.47,3.47,0,0,1-.67.26l-.31.2a1.82,1.82,0,0,0-1.24.83,11.45,11.45,0,0,0-.93,1.24l-.41.2-.93,1.55h.52c.13,0,.22,0,.25.1a.69.69,0,0,0,.36.21.25.25,0,0,0,.16,0,.71.71,0,0,1,.31-.11,1.49,1.49,0,0,1,.72.11,6.07,6.07,0,0,0,.72.2l.62.16a2,2,0,0,1,.83.62,3.77,3.77,0,0,0,.82.72c.24.14.48.29.72.46l1.19.88a5,5,0,0,0,.67.72,1.38,1.38,0,0,1,.41.62,2.11,2.11,0,0,1,.15.72v.93a2.32,2.32,0,0,1,.57.2l.57.36a1.85,1.85,0,0,0,.82.31,1.82,1.82,0,0,1,.67.21c.17.1.47.26.88.46a2.93,2.93,0,0,1,.41.31q.11.11.36.42a.84.84,0,0,1,.21.67,1.1,1.1,0,0,0,0,.61.8.8,0,0,1,0,.57,5.06,5.06,0,0,1-.77,1.14c-.45.55-.66,1-.62,1.23s0,.45-.1.52a2.46,2.46,0,0,0-.47.51.73.73,0,0,1-.26,0,1.54,1.54,0,0,0-.67.1l-1.54.47a1.09,1.09,0,0,1-.16.26,3,3,0,0,0,0,.82,9.32,9.32,0,0,1,.06,1.7q-.06.93-.06,1.14a.9.9,0,0,0,.11.41,7.91,7.91,0,0,1,.82-.16c.28,0,1.05-.15,2.32-.36a10.57,10.57,0,0,0,2.42-.56,1.91,1.91,0,0,1,.73-.26H519l.52-.52,1.23-.1.42-.62a2.18,2.18,0,0,0,1.44.31l.1.1.11-.1v-.31l.1.31a2,2,0,0,0,.93.21l.41.41a9.62,9.62,0,0,0,1.6.67,1.35,1.35,0,0,1,.72.36,2.36,2.36,0,0,0,.67.52,2.46,2.46,0,0,0,.36.56.92.92,0,0,1,.16.62,2.59,2.59,0,0,1-.16.88,1.91,1.91,0,0,1-.57.77,1.39,1.39,0,0,0-.46.57,2.88,2.88,0,0,1-.1.31l-.16.31a5,5,0,0,1-.72.31,5.12,5.12,0,0,0-1.44-.21l-.11.21a4.78,4.78,0,0,1-.87-.26,4,4,0,0,0-1.5-.11c-.75,0-1.75.14-3,.31a16.32,16.32,0,0,0-2.88.62,8,8,0,0,1-1.45.41c-.27,0-.58.09-.92.16s-.56.15-.62.26a.48.48,0,0,1-.42.15c-.06,1-.12,1.67-.15,2.12a14,14,0,0,0,.05,2.06,19.75,19.75,0,0,1-.05,3.14,22.86,22.86,0,0,0,0,3.4,4.74,4.74,0,0,1-.16,2.12,1.07,1.07,0,0,0-.15.82,1.09,1.09,0,0,1,0,.67.66.66,0,0,0,0,.52,1.06,1.06,0,0,1,0,.67,10.09,10.09,0,0,0-.16,1.44c0,.66-.1,1.82-.2,3.51a39.37,39.37,0,0,1-.41,4,3.87,3.87,0,0,1-.47,1.59.41.41,0,0,0-.2.31,4.31,4.31,0,0,1-.26.88,8.61,8.61,0,0,1-.57,1.29,2.16,2.16,0,0,0-.31.72.35.35,0,0,1-.1.26,2.24,2.24,0,0,0-.31.51v.11a8.06,8.06,0,0,1-.31.82C508.56,136.08,508.42,136.32,508.22,136.66Zm-5.67-54.43-.11.1a2.19,2.19,0,0,1-.2.47l-.57.82c-.31.45-.48.71-.51.77l-.11.21a.69.69,0,0,1-.15.21,2.93,2.93,0,0,0-.31.41,2.28,2.28,0,0,0-.31.67,2.4,2.4,0,0,1-.31.67,2.4,2.4,0,0,0-.31.62,2.11,2.11,0,0,1-.36.62,1.82,1.82,0,0,0-.36.67,1.26,1.26,0,0,1-.31.56.6.6,0,0,0-.21.41.63.63,0,0,1-.2.42.9.9,0,0,0-.26.51,1.16,1.16,0,0,1-.21.52,2.25,2.25,0,0,0-.25.41h.3c.14,0,1.21-.29,3.2-.88s3.09-.91,3.3-1c0-1.37,0-2.31-.05-2.83a11.35,11.35,0,0,1,0-1.65,1.32,1.32,0,0,0-.47-1.24,1.56,1.56,0,0,1-.61-.62,4.24,4.24,0,0,0-.52-.77Z"/>
      </g>
      <g>
        <path d="M112.62,30.91V8.35h9.56a6.47,6.47,0,0,1,2.88.65,7.7,7.7,0,0,1,2.27,1.72,8.18,8.18,0,0,1,1.49,2.41,7.28,7.28,0,0,1,.54,2.72,7.82,7.82,0,0,1-.51,2.78,7.65,7.65,0,0,1-1.43,2.4,6.87,6.87,0,0,1-2.22,1.68,6.35,6.35,0,0,1-2.86.64H117v7.56ZM117,19.5h5.08a2.49,2.49,0,0,0,2-1,4.09,4.09,0,0,0,.81-2.67,4.4,4.4,0,0,0-.25-1.54,3.65,3.65,0,0,0-.67-1.16,2.62,2.62,0,0,0-1-.72,3,3,0,0,0-1.13-.23H117Z"/>
        <path d="M140.45,31.07a10.24,10.24,0,0,1-4.5-1,11.09,11.09,0,0,1-3.46-2.57,11.87,11.87,0,0,1-2.24-3.67,11.7,11.7,0,0,1-.79-4.23,11.38,11.38,0,0,1,.84-4.32,11.76,11.76,0,0,1,2.32-3.65,11,11,0,0,1,3.51-2.53,10.48,10.48,0,0,1,4.41-.94,10,10,0,0,1,4.47,1,11.19,11.19,0,0,1,3.44,2.62,11.94,11.94,0,0,1,2.23,3.69,11.61,11.61,0,0,1,.79,4.19,11.43,11.43,0,0,1-.82,4.31,11.73,11.73,0,0,1-2.29,3.62,10.94,10.94,0,0,1-3.5,2.51A10.3,10.3,0,0,1,140.45,31.07ZM133.9,19.63a9,9,0,0,0,.45,2.83,7.43,7.43,0,0,0,1.28,2.41,6.55,6.55,0,0,0,2.07,1.69,6,6,0,0,0,2.78.63,5.8,5.8,0,0,0,2.81-.65,6.31,6.31,0,0,0,2.07-1.73,7.83,7.83,0,0,0,1.27-2.43,9.23,9.23,0,0,0,.43-2.75,9,9,0,0,0-.46-2.83,7.9,7.9,0,0,0-1.31-2.41,6.2,6.2,0,0,0-2.06-1.67,6.45,6.45,0,0,0-5.58,0,6.38,6.38,0,0,0-2.06,1.72,7.8,7.8,0,0,0-1.26,2.41A9.23,9.23,0,0,0,133.9,19.63Z"/>
        <path d="M153.25,30.91V8.35h4.39V27.06h11.5v3.85Z"/>
        <path d="M170.22,30.91V8.35h4.38V30.91Z"/>
        <path d="M194.59,12.2h-7.21V30.91H183V12.2h-7.21V8.35h18.78Z"/>
        <path d="M195.79,30.91V8.35h4.39V30.91Z"/>
        <path d="M201.93,19.47a11.62,11.62,0,0,1,.74-4.08,11,11,0,0,1,5.67-6.18,10.78,10.78,0,0,1,4.71-1,10.24,10.24,0,0,1,5.38,1.36,8.68,8.68,0,0,1,3.38,3.56l-3.36,2.32a6,6,0,0,0-1.08-1.61,5.72,5.72,0,0,0-1.37-1,6.17,6.17,0,0,0-1.52-.55,7.05,7.05,0,0,0-1.56-.18,5.89,5.89,0,0,0-2.88.67,6.3,6.3,0,0,0-2,1.73,7.5,7.5,0,0,0-1.22,2.41,9,9,0,0,0-.42,2.69,8.64,8.64,0,0,0,.48,2.87,7.55,7.55,0,0,0,1.35,2.43,6.64,6.64,0,0,0,2.1,1.69,5.75,5.75,0,0,0,2.68.63,6.89,6.89,0,0,0,1.59-.19,5.54,5.54,0,0,0,1.57-.6,6.33,6.33,0,0,0,1.39-1.06,4.92,4.92,0,0,0,1-1.58l3.59,2.07a6.75,6.75,0,0,1-1.54,2.24,10.11,10.11,0,0,1-2.25,1.63,11.32,11.32,0,0,1-2.69,1,11.84,11.84,0,0,1-2.79.35,9.59,9.59,0,0,1-4.42-1A11.4,11.4,0,0,1,205,27.43a12.34,12.34,0,0,1-2.25-3.72A11.57,11.57,0,0,1,201.93,19.47Z"/>
        <path d="M229.6,8.35h3.87l8.58,22.56h-4.51l-2.1-5.62h-7.88l-2.06,5.62H221Zm5.05,13.85-3.11-8.86L228.3,22.2Z"/>
        <path d="M242.94,30.91V8.35h4.39V27.06h11.5v3.85Z"/>
        <path d="M265.09,30.91V8.38h4.38V19.09l9.47-10.74h4.83l-8.64,10,9.18,12.55h-4.93l-7-9.75-2.89,3v6.74Z"/>
        <path d="M289.14,16.45V30.91h-4.39V8.35h3.4l11.76,14.81V8.38h4.38V30.91h-3.56Z"/>
        <path d="M317,31.07a10.16,10.16,0,0,1-4.49-1,11.13,11.13,0,0,1-3.47-2.57,11.87,11.87,0,0,1-2.24-3.67,11.7,11.7,0,0,1-.79-4.23,11.38,11.38,0,0,1,.84-4.32,12,12,0,0,1,2.32-3.65,11.26,11.26,0,0,1,3.51-2.53,10.52,10.52,0,0,1,4.42-.94,10,10,0,0,1,4.46,1A11.11,11.11,0,0,1,325,11.81a12.11,12.11,0,0,1,2.22,3.69,11.62,11.62,0,0,1,.8,4.19,11.67,11.67,0,0,1-3.12,7.93,10.89,10.89,0,0,1-3.49,2.51A10.37,10.37,0,0,1,317,31.07Zm-6.54-11.44a9.3,9.3,0,0,0,.44,2.83,7.65,7.65,0,0,0,1.29,2.41,6.51,6.51,0,0,0,2.06,1.69,6,6,0,0,0,2.78.63,5.87,5.87,0,0,0,2.82-.65,6.37,6.37,0,0,0,2.06-1.73,7.62,7.62,0,0,0,1.27-2.43,8.92,8.92,0,0,0,.43-2.75,8.74,8.74,0,0,0-.46-2.83,7.87,7.87,0,0,0-1.3-2.41,6.13,6.13,0,0,0-2.07-1.67,6.43,6.43,0,0,0-5.57,0,6.32,6.32,0,0,0-2.07,1.72,7.57,7.57,0,0,0-1.25,2.41A8.92,8.92,0,0,0,310.49,19.63Z"/>
        <path d="M336.8,8.42h4l2.54,7.46,2.54-7.46H350l-3.84,10.26L349,25.89l6.38-17.54h4.77L351,30.91h-3.69l-3.91-9.47-3.91,9.47h-3.68L326.66,8.35h4.7l6.42,17.54,2.8-7.21Z"/>
        <path d="M360.88,30.91V8.35h4.38V27.06h11.5v3.85Z"/>
        <path d="M393.51,27.06v3.85H377.84V8.35h15.38V12.2h-11v5.43h9.5v3.56h-9.5v5.87Z"/>
        <path d="M395.35,30.91V8.35h8.2a12.26,12.26,0,0,1,4.84.89,9.84,9.84,0,0,1,3.48,2.42,10,10,0,0,1,2.1,3.57,13.61,13.61,0,0,1,.7,4.37,13.15,13.15,0,0,1-.78,4.65,10,10,0,0,1-2.24,3.56,10.12,10.12,0,0,1-3.51,2.29,12.42,12.42,0,0,1-4.59.81Zm14.9-11.31a9.82,9.82,0,0,0-.44-3,6.65,6.65,0,0,0-1.31-2.35,5.69,5.69,0,0,0-2.11-1.52,7.12,7.12,0,0,0-2.84-.54h-3.82V27.06h3.82a6.84,6.84,0,0,0,2.87-.57,5.8,5.8,0,0,0,2.1-1.57,7.13,7.13,0,0,0,1.29-2.37A9.65,9.65,0,0,0,410.25,19.6Z"/>
        <path d="M432.17,28.37a8.61,8.61,0,0,1-6.29,2.7,10,10,0,0,1-4.17-.89,10.38,10.38,0,0,1-3.4-2.45A11.57,11.57,0,0,1,416,24.06a12.2,12.2,0,0,1-.84-4.56,11.48,11.48,0,0,1,3.16-8,11,11,0,0,1,3.48-2.44,10.31,10.31,0,0,1,4.35-.91,10.59,10.59,0,0,1,5.45,1.34A8.6,8.6,0,0,1,435,13.12l-3.27,2.41a6,6,0,0,0-2.4-2.57,6.61,6.61,0,0,0-3.35-.89,5.74,5.74,0,0,0-2.62.6,6.26,6.26,0,0,0-2,1.65,7.74,7.74,0,0,0-1.31,2.42,9.16,9.16,0,0,0-.46,2.89,8.5,8.5,0,0,0,.51,3,7.7,7.7,0,0,0,1.4,2.4,6.49,6.49,0,0,0,2.11,1.6,6,6,0,0,0,2.65.59,7.65,7.65,0,0,0,5.91-3.08V22.52h-4.54V19.31h8.17v11.6h-3.63Z"/>
        <path d="M453.62,27.06v3.85H438V8.35h15.37V12.2h-11v5.43h9.5v3.56h-9.5v5.87Z"/>
        <path d="M479.67,25.1a5.14,5.14,0,0,1-2.14,4.32,7.68,7.68,0,0,1-2.32,1.11,10.26,10.26,0,0,1-2.81.38H461.5V8.35h12.07a4.47,4.47,0,0,1,2.13.51,5.23,5.23,0,0,1,1.62,1.32,5.83,5.83,0,0,1,1,1.84,6,6,0,0,1,.37,2.08,6.16,6.16,0,0,1-.83,3.1,5.06,5.06,0,0,1-2.41,2.15,5.79,5.79,0,0,1,3.06,2A5.9,5.9,0,0,1,479.67,25.1Zm-13.79-13v5.69h5.85a2.64,2.64,0,0,0,1.89-.76,2.81,2.81,0,0,0,.78-2.1,2.9,2.9,0,0,0-.72-2.07,2.29,2.29,0,0,0-1.76-.76Zm9.38,12.17a3.26,3.26,0,0,0-.21-1.16,3.2,3.2,0,0,0-.56-1,2.71,2.71,0,0,0-.82-.65,2.31,2.31,0,0,0-1.05-.24h-6.74v5.94h6.52a2.8,2.8,0,0,0,1.12-.22,2.73,2.73,0,0,0,.91-.62,3,3,0,0,0,.6-.94A2.94,2.94,0,0,0,475.26,24.27Z"/>
        <path d="M487.46,8.35h3.87l8.58,22.56H495.4l-2.1-5.62h-7.88l-2.06,5.62h-4.51Zm5.05,13.85-3.12-8.86-3.24,8.86Z"/>
        <path d="M513.89,14.26a5.24,5.24,0,0,0-.81-.6,9,9,0,0,0-1.43-.75,12.66,12.66,0,0,0-1.83-.62,7.89,7.89,0,0,0-2-.25,4.51,4.51,0,0,0-2.7.66,2.23,2.23,0,0,0-.89,1.88,1.94,1.94,0,0,0,.33,1.16,2.93,2.93,0,0,0,1,.81,8.45,8.45,0,0,0,1.61.63c.64.19,1.39.4,2.24.61a30.52,30.52,0,0,1,3,.95A8.21,8.21,0,0,1,514.67,20a5.32,5.32,0,0,1,1.44,1.83,6,6,0,0,1,.51,2.62,6.6,6.6,0,0,1-.68,3.1,5.79,5.79,0,0,1-1.84,2.08,8.05,8.05,0,0,1-2.67,1.16,13.6,13.6,0,0,1-3.16.36,16.89,16.89,0,0,1-5-.76,15.46,15.46,0,0,1-4.45-2.16l1.94-3.78a6.12,6.12,0,0,0,1,.75,17.59,17.59,0,0,0,1.76.92,15.3,15.3,0,0,0,2.26.78,10.21,10.21,0,0,0,2.54.31c2.41,0,3.62-.77,3.62-2.32a1.9,1.9,0,0,0-.41-1.23,3.49,3.49,0,0,0-1.18-.89,10.61,10.61,0,0,0-1.84-.7l-2.41-.7a21.37,21.37,0,0,1-2.82-1,7.36,7.36,0,0,1-2-1.24,4.64,4.64,0,0,1-1.19-1.65,5.64,5.64,0,0,1-.4-2.24,7,7,0,0,1,.63-3A6.35,6.35,0,0,1,502.12,10a8,8,0,0,1,2.62-1.35A11,11,0,0,1,508,8.19a12.35,12.35,0,0,1,4.38.75,16.34,16.34,0,0,1,3.5,1.76Z"/>
        <path d="M534,27.06v3.85H518.34V8.35h15.37V12.2h-11v5.43h9.5v3.56h-9.5v5.87Z"/>
      </g>
      <g>
        <path d="M85.21,8.69c-1.28.47-2.53.82-3.73,1.28a23.86,23.86,0,0,1-17.11,0A38.57,38.57,0,0,1,50.71,1.71C50.09,1.13,49.47.62,48.77,0c-1.12,1-2.17,1.94-3.29,2.83-5.67,4.66-11.95,7.8-19.33,8.62a20.87,20.87,0,0,1-9.11-1L11.76,8.61C10,12.34,8.15,16,6.6,19.67A80.41,80.41,0,0,0,1.36,39.15a.86.86,0,0,0,.47,1c1.36.77,2.68,1.51,4,2.4A12.2,12.2,0,0,1,8.15,44.7a3.16,3.16,0,0,1,.47,3.68,10.31,10.31,0,0,1-3.57,4.15c-1.44,1-2.95,1.86-4.42,2.76A1.08,1.08,0,0,0,0,56.41c.47,22.23,9.39,40.51,26,55.1a80.58,80.58,0,0,0,22,14,1.92,1.92,0,0,0,1.59,0,82.24,82.24,0,0,0,28.94-21.18A71.75,71.75,0,0,0,95.6,70.26a80.77,80.77,0,0,0,1.4-14,1.38,1.38,0,0,0-.58-.94c-1.55-1-3.18-1.9-4.66-3a12.62,12.62,0,0,1-2.75-3c-1.4-2-1.21-3.64.58-5.31a20.77,20.77,0,0,1,2.75-2.1,27.79,27.79,0,0,1,2.84-1.67.91.91,0,0,0,.5-1.08A84,84,0,0,0,87.3,12.61C86.56,11.33,85.9,10.05,85.21,8.69Zm8.57,50.87a68.32,68.32,0,0,1-6.25,25.49,73.58,73.58,0,0,1-20,25.6,76,76,0,0,1-17.92,11.41,1.82,1.82,0,0,1-1.67,0,77.37,77.37,0,0,1-15.09-9,75,75,0,0,1-22.7-26.81,68,68,0,0,1-7-27.7,1.56,1.56,0,0,1,1-1.71A17.21,17.21,0,0,0,10.75,51c2.21-3.49,1.79-6.83-1.32-9.58a25.16,25.16,0,0,0-3.76-2.64A1.46,1.46,0,0,1,4.85,37a79,79,0,0,1,8-23.35c.7-1.32.35-1.24,1.78-.7a26.05,26.05,0,0,0,14.9,1.16A40.36,40.36,0,0,0,48,4.73c.58-.5.93-.46,1.43,0A39.66,39.66,0,0,0,60.8,12a30,30,0,0,0,14.82,2.64A26.44,26.44,0,0,0,83,12.76c.58-.23.81-.07,1.08.43a79.8,79.8,0,0,1,8.11,24.06,1.14,1.14,0,0,1-.66,1.39,32.78,32.78,0,0,0-4,2.84c-3,2.75-3.37,6.05-1.2,9.54a14.57,14.57,0,0,0,5.59,5.24C93.55,57.11,94.32,58.08,93.78,59.56Z"/>
        <path d="M48.77,7.8c-10.2,7.49-21.1,12-34.18,8.07-1.16,2.79-2.48,5.59-3.45,8.46C9.94,28,9,31.78,8,35.5c-.2.7.07,1,.62,1.4a28,28,0,0,1,4,3.45,9.07,9.07,0,0,1,1.32,10.59,18,18,0,0,1-7.14,7.45,1.09,1.09,0,0,0-.62,1.2c1,17.66,8.38,32.4,21,44.58a79.38,79.38,0,0,0,20.64,14.4,2,2,0,0,0,1.9,0c15.48-7.88,27.63-19.13,35.19-34.92a63.71,63.71,0,0,0,5.9-22.5,3.16,3.16,0,0,0-1.63-3.53A15.55,15.55,0,0,1,83.77,52c-2.6-4.34-2.1-8.88,1.51-12.45a31.69,31.69,0,0,1,3.49-2.8c.35-.27.47-.42.39-.89a77.76,77.76,0,0,0-6.44-19.44c-.19-.39-.39-.54-.85-.39-8.19,2.64-16,1.25-23.51-2.32a55.86,55.86,0,0,1-4.93-2.72C51.8,10,50.33,8.85,48.77,7.8ZM67.2,37.28a28.19,28.19,0,0,0-1.47-9.73c-.39-1-.16-1.71.62-2.06a1.36,1.36,0,0,1,1.86,1.05,52.66,52.66,0,0,1,1.32,5.55c.27,1.66.31,3.37.47,5.12h2.44c0-.12.08-.16.08-.24,0-.27,0-.54,0-.85a31.57,31.57,0,0,1,1.67-9.74,1.34,1.34,0,0,1,1.7-1c.78.27,1,.93.86,1.87-.47,1.82-.93,3.64-1.25,5.47-.23,1.43-.23,2.94-.34,4.5h2.28a1.32,1.32,0,1,1,0,2.63H72.63v5.79h4.62c1,0,1.67.5,1.67,1.35s-.62,1.32-1.63,1.32c-1.28,0-2.52,0-3.8,0-.7,0-1,.16-1,.93.08,1.36,0,2.76,0,4.12v1.43a2,2,0,0,0,.27.12c1.47,0,2.91,0,4.38,0,1,0,1.71.5,1.71,1.32s-.62,1.35-1.67,1.35c-1.28,0-2.52,0-3.8,0-.78,0-.93.24-.93,1,0,5,0,9.94,0,14.9v.86a1.34,1.34,0,0,1-1.4,1.28,1.36,1.36,0,0,1-1.28-1.32,5.07,5.07,0,0,1,0-.78V57.65H65c-1,0-1.59-.58-1.55-1.39A1.42,1.42,0,0,1,65,54.94h4.85c0-2,0-3.84,0-5.67,0-.73-.19-1-.93-1-1.36,0-2.75,0-4.11,0A1.29,1.29,0,0,1,63.48,47a1.36,1.36,0,0,1,1.36-1.32,9.73,9.73,0,0,1,1.08,0H69.8V39.88l-.93,0H65.15c-1.09,0-1.71-.51-1.71-1.32s.62-1.32,1.67-1.36A12.63,12.63,0,0,0,67.2,37.28Zm-31.11.39c-.08,0-.2,0-.27,0-.16,2.41-.39,4.77-.47,7.18A95.74,95.74,0,0,0,38.92,73.6c.31,1.09,0,1.82-.82,2.06s-1.47-.24-1.74-1.28C32.6,60.56,31.43,46.6,34,32.4c.35-2,.89-3.92,1.44-5.9.31-1.16,1.59-1.55,2.25-.66a2.11,2.11,0,0,1,.23,1.55c-.39,1.94-.89,3.8-1.32,5.74a1.3,1.3,0,0,0,.16,1,13.44,13.44,0,0,1,2.83,4.73c2,5.2,2.75,10.67,3.34,16.18a1.32,1.32,0,0,1-1.17,1.63,1.37,1.37,0,0,1-1.51-1.36c-.16-1.12-.23-2.25-.39-3.33a51.81,51.81,0,0,0-2.72-12A20.86,20.86,0,0,0,36.09,37.67Zm-10.4.16-.31-.12c-.66,1.71-1.4,3.38-1.94,5.12a63.79,63.79,0,0,0-2.21,12.42c-.08,1-.66,1.55-1.48,1.51a1.36,1.36,0,0,1-1.24-1.59,70.75,70.75,0,0,1,2.37-13.31,17.91,17.91,0,0,1,4-7.68.93.93,0,0,0,.16-.74l-1.28-6.16a1.35,1.35,0,0,1,.93-1.79,1.38,1.38,0,0,1,1.67,1.05c.11.31.15.58.23.89a77.55,77.55,0,0,1,2.17,15.83,109.76,109.76,0,0,1-2.17,26.46c-.39,1.63-.78,3.26-1.16,4.93a1.29,1.29,0,0,1-1.44,1,1.27,1.27,0,0,1-1.2-1.21,3.39,3.39,0,0,1,.15-1A105.9,105.9,0,0,0,25.69,37.83Zm31.85-2c.08,0-.08,0,0,0-.46,4-.7,8-1.2,11.95a60.86,60.86,0,0,0-.27,16c.46,3.41,1,6.82,1.43,10.24.12.93-.27,1.59-1.08,1.71a1.32,1.32,0,0,1-1.55-1.28c-.59-3.92-1.21-7.84-1.63-11.76a69.91,69.91,0,0,1,.85-18.2,45.48,45.48,0,0,0,.43-13.58c-.16-1.2-.51-2.4-.78-3.6a1.36,1.36,0,0,1,.85-1.83,1.39,1.39,0,0,1,1.71,1c.08.24.16.47.23.74A32.88,32.88,0,0,1,57.54,35.81Zm-17.42,54c-1.71-2.29-1.71-4.5,0-6.09a5.38,5.38,0,0,1,6.6-.28,3.93,3.93,0,0,1,1.51,2.64,4.31,4.31,0,0,1-1.28,3.73,4.47,4.47,0,0,1-2.25,8,7.2,7.2,0,0,1-1.86,0,4.63,4.63,0,0,1-4.31-3A4.57,4.57,0,0,1,40.12,89.82Zm25.34-2.14h1.28c1.94,0,3.64.59,4.54,2.45a5.4,5.4,0,0,1-.51,5.74c-1.67,2.33-5.55,2.75-8,.93a1.32,1.32,0,0,1-.54-1,1.91,1.91,0,0,1,1-1,1.48,1.48,0,0,1,1.08.28,4.34,4.34,0,0,0,2.91.5,2.77,2.77,0,0,0,2.18-3.14A2.23,2.23,0,0,0,67,90.09a9.7,9.7,0,0,0-2.33.23c-1.47.27-2-.27-1.78-1.71.31-1.62.62-3.25.85-4.88a1.16,1.16,0,0,1,1.36-1.13h5c1,0,1.28.27,1.32,1.05a1.18,1.18,0,0,1-1.2,1.4,19.45,19.45,0,0,1-2,0c-2.4,0-2.4,0-2.75,2.37ZM55.84,92c-.35,0-.51,0-.7,0a4.38,4.38,0,0,1-4.35-3.18,4.77,4.77,0,0,1,1.83-5.43,5.34,5.34,0,0,1,6.28.19,5.09,5.09,0,0,1,1.16,6.17c-1.47,2.64-3.25,5.12-5,7.6a1.94,1.94,0,0,1-2.25.28c-.74-.66-.12-1.17.23-1.67C54,94.67,54.87,93.39,55.84,92ZM31.55,95.48V86.36c-.66.55-1.17,1-1.75,1.48a1.05,1.05,0,0,1-1.55-.27A1,1,0,0,1,28.33,86c1.16-1,2.33-2,3.45-3.07a1.36,1.36,0,0,1,1.75-.31A1.8,1.8,0,0,1,34.07,84c0,3.22,0,6.44,0,9.66,0,1.74,0,1.74,1.74,1.78.9,0,1.21.31,1.21,1.13s-.27,1.16-1.17,1.16c-2.09,0-4.19,0-6.32,0a1,1,0,0,1-1.13-1.12c0-.82.35-1.17,1.21-1.17C30.27,95.48,30.89,95.48,31.55,95.48ZM51.88,69.41l0,.15c-.35.43-.59,1-1,1.25a1.78,1.78,0,0,1-1.44-.28c-.31-.19-.42-.77-.46-1.2a99.36,99.36,0,0,1-.66-17.07c0-1.12.11-2.25.23-3.37A1.25,1.25,0,0,1,50,47.76a1.34,1.34,0,0,1,1.2,1.4v.5c0,4.15-.2,8.3-.12,12.46C51.1,64.56,51.68,67,51.88,69.41Zm6-14.67V49.2a1.2,1.2,0,0,1,1-1.32,1.71,1.71,0,0,1,1.36.38,2.08,2.08,0,0,1,.35,1.32,104.71,104.71,0,0,0,.62,15.64c.15,1.28.39,2.56.54,3.84a1.31,1.31,0,0,1-1,1.63,1.33,1.33,0,0,1-1.56-1.16c0-.24-.11-.51-.15-.74A71.8,71.8,0,0,1,57.89,54.74Zm4.58-18.89c0,1-.12,2.09-.16,3.26,0,.35-.07.74-.11,1.08-.12,1.09-.66,1.63-1.48,1.56S59.48,41,59.56,40c.35-4.34.5-8.65-1.09-12.8a1.24,1.24,0,0,1,.78-1.63,1.23,1.23,0,0,1,1.63.62,5.24,5.24,0,0,1,.46,1.09A28.1,28.1,0,0,1,62.47,35.85Zm-12.18.27c-.08-3.18-.16-6.09-1.17-8.92a1.32,1.32,0,0,1,2.45-1A4.81,4.81,0,0,1,52,27.51a38.79,38.79,0,0,1,.66,13.07,1.28,1.28,0,0,1-1.43,1.21A1.38,1.38,0,0,1,50,40.16C50.13,38.72,50.21,37.28,50.29,36.12Z"/>
        <path d="M43.54,91.1c-1.59,0-2.56.77-2.64,2.09-.12,1.55.89,2.49,2.68,2.49s2.79-1,2.71-2.49C46.17,91.84,45.17,91.06,43.54,91.1Z"/>
        <path d="M43.5,84.73a2,2,0,0,0-2.21,2,2,2,0,0,0,2.29,2,1.93,1.93,0,0,0,2.21-2.06C45.79,85.43,44.93,84.7,43.5,84.73Z"/>
        <path d="M53,87.22a2.25,2.25,0,0,0,2.45,2.48,2.47,2.47,0,0,0,2.6-2.4,2.42,2.42,0,0,0-2.49-2.6A2.45,2.45,0,0,0,53,87.22Z"/>
      </g>
    </g>
  </g>
</svg>
